<svg width="13" height="13" viewBox="0 0 13 13" fill="none" xmlns="http://www.w3.org/2000/svg">
<path d="M4.71777 0.645508C3.25293 0.674805 3.01367 0.689453 2.68652 0.777344C1.64648 1.06055 1.05566 1.64648 0.777344 2.68652C0.689453 3.01367 0.674805 3.25781 0.645508 4.78125C0.630859 5.72363 0.630859 7.27637 0.645508 8.22363C0.674805 9.74219 0.689453 9.98633 0.777344 10.3135C1.05566 11.3535 1.64648 11.9443 2.68652 12.2227C3.01367 12.3105 3.25781 12.3252 4.78125 12.3545C5.72363 12.3691 7.27637 12.3691 8.22363 12.3545C9.75195 12.3252 9.98633 12.3105 10.3232 12.2178C11.334 11.9492 11.9492 11.3389 12.2227 10.3232C12.3105 9.98145 12.3252 9.75684 12.3545 8.21875C12.3691 7.27637 12.3691 5.72363 12.3545 4.77637C12.3252 3.25293 12.3105 3.01367 12.2227 2.68652C11.9443 1.64648 11.3486 1.05078 10.3135 0.777344C9.93262 0.679688 9.83496 0.674805 7.08594 0.625977C6.69531 0.621094 5.63086 0.630859 4.71777 0.645508ZM10.6357 1.86621C10.8213 1.93457 11.041 2.14453 11.1191 2.33496C11.3584 2.88672 10.9336 3.52148 10.333 3.52148C9.87402 3.52148 9.47852 3.13086 9.47852 2.67188C9.47852 2.08105 10.084 1.65625 10.6357 1.86621ZM7.68652 3.01855C8.27734 3.22363 8.60449 3.43359 9.06836 3.8877C9.51758 4.33203 9.7959 4.77148 10.001 5.35254C10.1279 5.71387 10.1377 5.79688 10.1377 6.5C10.1377 7.20312 10.1279 7.28613 10.001 7.64746C9.80566 8.20898 9.5127 8.66797 9.09277 9.09277C8.66797 9.5127 8.20898 9.80566 7.64746 10.001C7.28613 10.1279 7.20312 10.1377 6.5 10.1377C5.79688 10.1377 5.71387 10.1279 5.35254 10.001C4.77148 9.7959 4.33203 9.51758 3.8877 9.06836C3.43359 8.60449 3.22852 8.27734 3.01367 7.68652C2.86719 7.27148 2.8623 7.22754 2.8623 6.5C2.86719 5.81152 2.87695 5.70898 2.99902 5.35254C3.25293 4.5957 3.79492 3.88281 4.44922 3.44824C5.16211 2.97461 5.6748 2.83301 6.59766 2.85254C7.18359 2.86719 7.30078 2.88672 7.68652 3.01855Z" fill="#856F67"/>
<path d="M5.81574 4.07725C4.53156 4.41905 3.75031 5.70811 4.07258 6.94835C4.30695 7.8419 4.94172 8.47667 5.84015 8.71104C7.51984 9.1505 9.1507 7.51964 8.71125 5.83995C8.36945 4.53624 7.06574 3.74034 5.81574 4.07725Z" fill="#856F67"/>
</svg>
