<svg width="25" height="18" viewBox="0 0 25 18" fill="none" xmlns="http://www.w3.org/2000/svg">
<path d="M10.7178 3.64551C9.25293 3.6748 9.01367 3.68945 8.68652 3.77734C7.64648 4.06055 7.05566 4.64648 6.77734 5.68652C6.68945 6.01367 6.6748 6.25781 6.64551 7.78125C6.63086 8.72363 6.63086 10.2764 6.64551 11.2236C6.6748 12.7422 6.68945 12.9863 6.77734 13.3135C7.05566 14.3535 7.64648 14.9443 8.68652 15.2227C9.01367 15.3105 9.25781 15.3252 10.7812 15.3545C11.7236 15.3691 13.2764 15.3691 14.2236 15.3545C15.752 15.3252 15.9863 15.3105 16.3232 15.2178C17.334 14.9492 17.9492 14.3389 18.2227 13.3232C18.3105 12.9814 18.3252 12.7568 18.3545 11.2188C18.3691 10.2764 18.3691 8.72363 18.3545 7.77637C18.3252 6.25293 18.3105 6.01367 18.2227 5.68652C17.9443 4.64648 17.3486 4.05078 16.3135 3.77734C15.9326 3.67969 15.835 3.6748 13.0859 3.62598C12.6953 3.62109 11.6309 3.63086 10.7178 3.64551ZM16.6357 4.86621C16.8213 4.93457 17.041 5.14453 17.1191 5.33496C17.3584 5.88672 16.9336 6.52148 16.333 6.52148C15.874 6.52148 15.4785 6.13086 15.4785 5.67188C15.4785 5.08105 16.084 4.65625 16.6357 4.86621ZM13.6865 6.01855C14.2773 6.22363 14.6045 6.43359 15.0684 6.8877C15.5176 7.33203 15.7959 7.77148 16.001 8.35254C16.1279 8.71387 16.1377 8.79688 16.1377 9.5C16.1377 10.2031 16.1279 10.2861 16.001 10.6475C15.8057 11.209 15.5127 11.668 15.0928 12.0928C14.668 12.5127 14.209 12.8057 13.6475 13.001C13.2861 13.1279 13.2031 13.1377 12.5 13.1377C11.7969 13.1377 11.7139 13.1279 11.3525 13.001C10.7715 12.7959 10.332 12.5176 9.8877 12.0684C9.43359 11.6045 9.22852 11.2773 9.01367 10.6865C8.86719 10.2715 8.8623 10.2275 8.8623 9.5C8.86719 8.81152 8.87695 8.70898 8.99902 8.35254C9.25293 7.5957 9.79492 6.88281 10.4492 6.44824C11.1621 5.97461 11.6748 5.83301 12.5977 5.85254C13.1836 5.86719 13.3008 5.88672 13.6865 6.01855Z" fill="#856F67"/>
<path d="M11.8157 7.07725C10.5316 7.41905 9.75031 8.70811 10.0726 9.94835C10.307 10.8419 10.9417 11.4767 11.8402 11.711C13.5198 12.1505 15.1507 10.5196 14.7112 8.83995C14.3695 7.53624 13.0657 6.74034 11.8157 7.07725Z" fill="#856F67"/>
</svg>
