<svg width="441" height="270" viewBox="0 0 441 270" fill="none" xmlns="http://www.w3.org/2000/svg">
<path d="M420.309 151.812L399.198 166.588C390.373 172.765 387.982 184.793 393.774 193.871L407.376 215.187L392.853 194.486C386.668 185.671 374.632 183.288 365.55 189.082L343.824 202.94L364.935 188.164C373.761 181.986 376.152 169.959 370.359 160.881L356.758 139.564L371.28 160.265C377.465 169.081 389.502 171.464 398.584 165.67L420.309 151.812Z" fill="#F2E9E1"/>
<path d="M53.4788 65.1557L46.0454 86.7545C42.898 95.8999 47.5138 105.897 56.5159 109.432L77.7783 117.782L56.1735 110.361C47.0265 107.219 37.0234 111.838 33.4826 120.839L25.1203 142.096L32.5536 120.497C35.701 111.352 31.0852 101.355 22.0832 97.8196L0.820762 89.4701L22.4255 96.8908C31.5725 100.033 41.5756 95.4134 45.1164 86.4128L53.4788 65.1557Z" fill="#F2E9E1"/>
<path d="M374.886 184.93C365.924 207.929 338.989 221.72 302.146 225.1C265.371 228.474 219.054 221.424 171.941 203.099C124.828 184.775 85.9322 158.681 61.1201 131.352C36.2625 103.974 25.75 75.6173 34.7114 52.6188C43.6729 29.6204 70.6082 15.8296 107.451 12.4494C144.227 9.07542 190.543 16.1255 237.656 34.4501C284.769 52.7747 323.665 78.8684 348.477 106.197C373.335 133.576 383.847 161.932 374.886 184.93Z" stroke="#F2E9E1" stroke-width="2"/>
<path d="M205.959 260.48C275.824 260.468 332.469 203.823 332.48 133.959C332.491 64.0957 275.865 7.46866 206 7.47995C136.136 7.49124 79.4909 64.1366 79.4796 134C79.4683 203.864 136.095 260.491 205.959 260.48Z" fill="#A7897E" stroke="#F2E9E1" stroke-width="3"/>
<path d="M166.929 120.997L166.931 110.498L176.217 110.497L176.215 120.996L174.295 120.996L174.296 111.667L174.746 112.147L168.4 112.148L168.851 111.668L168.849 120.997L166.929 120.997ZM180.977 114.861L186.198 114.86L186.197 116.465L180.977 116.465L180.977 114.861ZM181.126 119.36L187.052 119.359L187.052 120.994L179.176 120.995L179.178 110.496L186.843 110.495L186.843 112.13L181.128 112.131L181.126 119.36ZM189.226 120.994L189.227 110.495L193.548 110.494C194.478 110.494 195.273 110.644 195.933 110.944C196.603 111.243 197.118 111.673 197.478 112.233C197.838 112.793 198.018 113.458 198.018 114.228C198.018 114.998 197.838 115.663 197.477 116.223C197.117 116.783 196.602 117.213 195.932 117.513C195.272 117.813 194.477 117.963 193.547 117.963L190.306 117.964L191.177 117.049L191.176 120.993L189.226 120.994ZM191.177 117.259L190.307 116.314L193.457 116.313C194.317 116.313 194.962 116.133 195.392 115.773C195.832 115.403 196.052 114.888 196.053 114.228C196.053 113.558 195.833 113.043 195.393 112.684C194.963 112.324 194.318 112.144 193.458 112.144L190.307 112.144L191.178 111.184L191.177 117.259ZM201.663 114.857L206.883 114.856L206.883 116.461L201.663 116.462L201.663 114.857ZM201.812 119.357L207.738 119.356L207.737 120.991L199.862 120.992L199.863 110.493L207.529 110.492L207.529 112.127L201.813 112.128L201.812 119.357ZM209.926 120.99L209.928 110.491L211.848 110.491L211.847 117.945L217.489 110.49L219.304 110.49L219.302 120.989L217.382 120.989L217.383 113.55L211.742 120.99L209.926 120.99ZM214.594 109.786C213.694 109.786 213.014 109.596 212.554 109.216C212.104 108.836 211.874 108.301 211.864 107.611L213.229 107.611C213.239 107.981 213.359 108.266 213.589 108.466C213.829 108.666 214.164 108.766 214.594 108.766C215.024 108.766 215.359 108.666 215.599 108.466C215.849 108.266 215.979 107.981 215.989 107.611L217.339 107.611C217.329 108.3 217.094 108.835 216.634 109.215C216.174 109.595 215.494 109.786 214.594 109.786ZM224.452 120.988L224.454 111.659L224.918 112.139L220.988 112.139L220.988 110.49L229.869 110.488L229.869 112.138L225.939 112.139L226.389 111.659L226.387 120.988L224.452 120.988ZM231.564 120.987L231.566 110.488L233.486 110.488L233.485 117.942L239.127 110.487L240.942 110.486L240.94 120.985L239.02 120.986L239.021 113.546L233.38 120.987L231.564 120.987ZM162.187 138.996L162.188 128.497L166.884 128.496C168.064 128.496 168.984 128.731 169.644 129.201C170.304 129.661 170.634 130.326 170.634 131.196C170.634 132.056 170.319 132.721 169.688 133.191C169.058 133.651 168.228 133.881 167.198 133.881L167.468 133.341C168.638 133.341 169.543 133.576 170.183 134.045C170.823 134.515 171.143 135.195 171.143 136.085C171.143 136.995 170.808 137.71 170.138 138.23C169.467 138.74 168.477 138.995 167.167 138.995L162.187 138.996ZM164.107 137.496L167.107 137.496C167.788 137.495 168.303 137.37 168.653 137.12C169.003 136.86 169.178 136.465 169.178 135.935C169.178 135.405 169.003 135.02 168.653 134.781C168.303 134.531 167.788 134.406 167.108 134.406L164.108 134.406L164.107 137.496ZM164.108 132.981L166.718 132.981C167.348 132.981 167.828 132.856 168.158 132.606C168.488 132.346 168.654 131.976 168.654 131.496C168.654 130.996 168.489 130.621 168.159 130.371C167.829 130.121 167.349 129.996 166.719 129.996L164.108 129.997L164.108 132.981ZM184.456 138.993L180.901 133.879L182.477 132.904L186.661 138.992L184.456 138.993ZM177.51 138.994L177.512 128.495L179.432 128.494L179.43 138.993L177.51 138.994ZM178.846 134.569L178.846 132.889L182.387 132.889L182.386 134.568L178.846 134.569ZM182.657 133.968L180.871 133.729L184.458 128.494L186.528 128.493L182.657 133.968ZM186.474 138.992L191.201 128.493L193.121 128.492L197.86 138.99L195.82 138.991L191.756 129.527L192.536 129.527L188.484 138.992L186.474 138.992ZM188.65 136.562L189.175 135.032L194.845 135.031L195.37 136.561L188.65 136.562ZM201.148 138.99L201.15 129.661L201.615 130.141L197.684 130.141L197.685 128.492L206.566 128.49L206.565 130.14L202.635 130.141L203.085 129.661L203.084 138.99L201.148 138.99ZM206.383 138.989L211.11 128.489L213.031 128.489L217.769 138.987L215.729 138.988L211.665 129.524L212.445 129.524L208.393 138.989L206.383 138.989ZM208.559 136.559L209.084 135.029L214.755 135.028L215.28 136.558L208.559 136.559ZM219.199 139.137C219.029 139.137 218.859 139.122 218.689 139.092C218.519 139.062 218.334 139.027 218.134 138.987L218.27 137.292C218.41 137.332 218.56 137.352 218.72 137.352C219.14 137.352 219.475 137.182 219.725 136.842C219.975 136.492 220.155 135.982 220.265 135.312C220.375 134.642 220.45 133.817 220.491 132.837L220.641 128.488L228.367 128.487L228.365 138.985L226.445 138.986L226.447 129.657L226.897 130.137L221.901 130.137L222.321 129.642L222.216 132.762C222.186 133.802 222.115 134.717 222.005 135.507C221.895 136.297 221.725 136.962 221.495 137.502C221.275 138.032 220.98 138.437 220.61 138.717C220.24 138.997 219.769 139.137 219.199 139.137ZM236.195 139.134C235.375 139.134 234.62 138.999 233.93 138.73C233.24 138.46 232.64 138.085 232.13 137.605C231.62 137.115 231.225 136.545 230.945 135.895C230.665 135.235 230.525 134.516 230.525 133.736C230.525 132.956 230.666 132.241 230.946 131.591C231.226 130.931 231.621 130.361 232.131 129.881C232.641 129.391 233.241 129.011 233.931 128.741C234.622 128.471 235.372 128.335 236.182 128.335C237.002 128.335 237.752 128.47 238.432 128.74C239.122 129.01 239.722 129.39 240.232 129.88C240.742 130.359 241.137 130.929 241.417 131.589C241.697 132.239 241.837 132.954 241.836 133.734C241.836 134.514 241.696 135.234 241.416 135.894C241.136 136.554 240.741 137.124 240.231 137.604C239.721 138.084 239.12 138.459 238.43 138.729C237.75 138.999 237.005 139.134 236.195 139.134ZM236.18 137.424C236.71 137.424 237.2 137.334 237.65 137.154C238.101 136.974 238.491 136.719 238.821 136.389C239.151 136.049 239.406 135.659 239.586 135.219C239.776 134.769 239.871 134.274 239.871 133.734C239.871 133.194 239.776 132.704 239.586 132.264C239.406 131.814 239.152 131.425 238.822 131.095C238.492 130.755 238.102 130.495 237.652 130.315C237.202 130.135 236.712 130.045 236.181 130.045C235.651 130.045 235.161 130.135 234.711 130.315C234.271 130.495 233.881 130.755 233.541 131.095C233.211 131.425 232.951 131.815 232.761 132.265C232.581 132.705 232.491 133.195 232.49 133.735C232.49 134.265 232.58 134.755 232.76 135.205C232.95 135.655 233.21 136.05 233.54 136.39C233.87 136.72 234.26 136.975 234.71 137.155C235.16 137.335 235.65 137.424 236.18 137.424ZM244.007 138.983L244.008 128.484L251.134 128.483L251.119 130.133L245.463 130.134L245.913 129.669L245.927 138.983L244.007 138.983ZM160.439 156.995L160.44 146.496L162.391 146.495L162.389 156.994L160.439 156.995ZM165.229 156.994L165.231 146.495L166.836 146.495L173.42 154.578L172.625 154.578L172.627 146.494L174.562 146.493L174.56 156.992L172.955 156.993L166.371 148.909L167.166 148.909L167.164 156.993L165.229 156.994ZM180.629 157.141C179.809 157.141 179.024 157.027 178.274 156.797C177.524 156.557 176.929 156.252 176.489 155.882L177.164 154.367C177.584 154.697 178.104 154.972 178.724 155.192C179.344 155.412 179.98 155.522 180.63 155.521C181.18 155.521 181.625 155.461 181.965 155.341C182.305 155.221 182.555 155.061 182.715 154.861C182.875 154.651 182.955 154.416 182.955 154.156C182.955 153.836 182.84 153.581 182.61 153.391C182.38 153.191 182.08 153.036 181.71 152.927C181.35 152.807 180.945 152.697 180.495 152.597C180.055 152.497 179.61 152.382 179.16 152.252C178.72 152.112 178.315 151.937 177.945 151.727C177.585 151.507 177.29 151.217 177.06 150.858C176.83 150.498 176.715 150.038 176.715 149.478C176.715 148.908 176.865 148.388 177.165 147.918C177.476 147.438 177.941 147.058 178.561 146.778C179.191 146.488 179.986 146.343 180.946 146.342C181.576 146.342 182.201 146.422 182.821 146.582C183.441 146.742 183.981 146.972 184.441 147.272L183.826 148.787C183.356 148.507 182.871 148.302 182.371 148.172C181.871 148.032 181.391 147.962 180.931 147.962C180.391 147.962 179.951 148.027 179.611 148.157C179.281 148.287 179.036 148.457 178.876 148.667C178.725 148.877 178.65 149.117 178.65 149.387C178.65 149.707 178.76 149.967 178.98 150.167C179.21 150.357 179.505 150.507 179.865 150.617C180.235 150.727 180.645 150.837 181.095 150.947C181.545 151.047 181.99 151.162 182.43 151.292C182.881 151.422 183.286 151.591 183.646 151.801C184.016 152.011 184.311 152.296 184.53 152.656C184.76 153.016 184.875 153.471 184.875 154.021C184.875 154.581 184.72 155.101 184.41 155.581C184.11 156.051 183.645 156.431 183.015 156.721C182.385 157.001 181.589 157.141 180.629 157.141ZM188.792 156.99L188.794 148.141L185.313 148.141L185.314 146.492L194.225 146.49L194.224 148.14L190.744 148.141L190.743 156.99L188.792 156.99ZM193.674 156.989L198.401 146.49L200.321 146.489L205.06 156.987L203.02 156.988L198.956 147.524L199.736 147.524L195.684 156.989L193.674 156.989ZM195.85 154.559L196.375 153.029L202.045 153.028L202.57 154.558L195.85 154.559ZM211.155 157.136C210.334 157.137 209.579 157.007 208.889 156.747C208.209 156.477 207.614 156.102 207.104 155.622C206.594 155.132 206.199 154.557 205.92 153.898C205.64 153.238 205.5 152.518 205.5 151.738C205.5 150.958 205.64 150.238 205.92 149.578C206.2 148.918 206.596 148.348 207.106 147.868C207.626 147.378 208.231 147.003 208.921 146.743C209.611 146.473 210.366 146.338 211.186 146.337C212.076 146.337 212.876 146.482 213.587 146.772C214.307 147.062 214.912 147.487 215.401 148.047L214.171 149.247C213.761 148.837 213.316 148.537 212.836 148.347C212.366 148.147 211.846 148.047 211.276 148.047C210.726 148.047 210.216 148.137 209.746 148.318C209.276 148.498 208.871 148.753 208.531 149.083C208.191 149.413 207.925 149.803 207.735 150.253C207.555 150.703 207.465 151.198 207.465 151.738C207.465 152.267 207.555 152.757 207.735 153.207C207.925 153.657 208.19 154.052 208.53 154.392C208.87 154.722 209.27 154.977 209.73 155.157C210.19 155.337 210.7 155.427 211.26 155.427C211.78 155.426 212.28 155.346 212.76 155.186C213.25 155.016 213.715 154.736 214.155 154.346L215.265 155.801C214.715 156.241 214.075 156.576 213.345 156.806C212.625 157.026 211.895 157.136 211.155 157.136ZM213.42 155.546L213.421 151.617L215.266 151.616L215.265 155.801L213.42 155.546ZM217.837 156.985L217.839 146.486L222.159 146.486C223.089 146.486 223.885 146.635 224.545 146.935C225.215 147.235 225.73 147.665 226.089 148.225C226.449 148.785 226.629 149.45 226.629 150.22C226.629 150.99 226.449 151.654 226.089 152.214C225.729 152.764 225.214 153.19 224.543 153.49C223.883 153.78 223.088 153.925 222.158 153.925L218.918 153.925L219.788 153.04L219.787 156.985L217.837 156.985ZM224.708 156.984L222.053 153.175L224.138 153.175L226.808 156.984L224.708 156.984ZM219.788 153.25L218.918 152.321L222.068 152.32C222.928 152.32 223.574 152.135 224.004 151.765C224.444 151.395 224.664 150.88 224.664 150.22C224.664 149.55 224.444 149.035 224.004 148.675C223.574 148.315 222.929 148.135 222.069 148.136L218.919 148.136L219.789 147.176L219.788 153.25ZM227.325 156.984L232.052 146.484L233.972 146.484L238.711 156.982L236.671 156.982L232.607 147.519L233.387 147.519L229.335 156.983L227.325 156.984ZM229.5 154.554L230.026 153.024L235.696 153.023L236.221 154.553L229.5 154.554ZM240.047 156.982L240.048 146.483L241.653 146.483L246.243 154.146L245.403 154.146L249.919 146.481L251.524 146.481L251.538 156.98L249.693 156.98L249.679 149.376L250.069 149.376L246.227 155.781L245.357 155.781L241.458 149.377L241.908 149.377L241.907 156.981L240.047 156.982Z" fill="#F2E9E1"/>
</svg>
