<svg width="439" height="270" viewBox="0 0 439 270" fill="none" xmlns="http://www.w3.org/2000/svg">
<path d="M393.756 35.5619L385.579 59.6028C382.13 69.741 387.281 80.7927 397.262 84.6725L420.93 93.8726L396.885 85.7064C386.745 82.2627 375.688 87.4154 371.804 97.3949L362.592 121.059L370.769 97.0185C374.218 86.8803 369.067 75.8286 359.086 71.9488L335.418 62.7487L359.463 70.9149C369.603 74.3586 380.66 69.2059 384.545 59.2264L393.756 35.5619Z" fill="#A7897E"/>
<path d="M46.603 178.388L53.0168 200.376C55.7158 209.628 65.2242 215.115 74.5856 212.823L96.832 207.376L74.8428 213.782C65.5897 216.477 60.1044 225.982 62.3999 235.343L67.8551 257.587L61.4412 235.599C58.7422 226.347 49.2338 220.86 39.8724 223.152L17.6261 228.599L39.6152 222.193C48.8683 219.498 54.3537 209.993 52.0581 200.632L46.603 178.388Z" fill="#A7897E"/>
<path d="M381.564 92.9891C387.543 116.935 373.476 143.752 345.268 167.797C317.112 191.797 275.108 212.802 225.924 225.065C176.74 237.328 129.785 238.503 93.6462 230.533C57.4402 222.549 32.4151 205.479 26.4359 181.533C20.4567 157.586 34.5237 130.77 62.7321 106.725C90.8884 82.7243 132.892 61.7195 182.076 49.4566C231.26 37.1937 278.215 36.0186 314.354 43.9884C350.56 51.9729 375.585 69.043 381.564 92.9891Z" stroke="#A7897E" stroke-width="2"/>
<circle cx="204.5" cy="134.5" r="127" fill="#F2E9E1" stroke="#A7897E" stroke-width="3"/>
<path d="M164.931 120V109.5H174.216V120H172.296V110.67L172.746 111.15H166.401L166.851 110.67V120H164.931ZM178.977 113.865H184.197V115.47H178.977V113.865ZM179.127 118.365H185.052V120H177.177V109.5H184.842V111.135H179.127V118.365ZM187.225 120V109.5H191.545C192.475 109.5 193.27 109.65 193.93 109.95C194.6 110.25 195.115 110.68 195.475 111.24C195.835 111.8 196.015 112.465 196.015 113.235C196.015 114.005 195.835 114.67 195.475 115.23C195.115 115.79 194.6 116.22 193.93 116.52C193.27 116.82 192.475 116.97 191.545 116.97H188.305L189.175 116.055V120H187.225ZM189.175 116.265L188.305 115.32H191.455C192.315 115.32 192.96 115.14 193.39 114.78C193.83 114.41 194.05 113.895 194.05 113.235C194.05 112.565 193.83 112.05 193.39 111.69C192.96 111.33 192.315 111.15 191.455 111.15H188.305L189.175 110.19V116.265ZM199.66 113.865H204.88V115.47H199.66V113.865ZM199.81 118.365H205.735V120H197.86V109.5H205.525V111.135H199.81V118.365ZM207.924 120V109.5H209.844V116.955L215.484 109.5H217.299V120H215.379V112.56L209.739 120H207.924ZM212.589 108.795C211.689 108.795 211.009 108.605 210.549 108.225C210.099 107.845 209.869 107.31 209.859 106.62H211.224C211.234 106.99 211.354 107.275 211.584 107.475C211.824 107.675 212.159 107.775 212.589 107.775C213.019 107.775 213.354 107.675 213.594 107.475C213.844 107.275 213.974 106.99 213.984 106.62H215.334C215.324 107.31 215.089 107.845 214.629 108.225C214.169 108.605 213.489 108.795 212.589 108.795ZM222.448 120V110.67L222.913 111.15H218.983V109.5H227.863V111.15H223.933L224.383 110.67V120H222.448ZM229.56 120V109.5H231.48V116.955L237.12 109.5H238.935V120H237.015V112.56L231.375 120H229.56ZM160.192 138V127.5H164.887C166.067 127.5 166.987 127.735 167.647 128.205C168.307 128.665 168.637 129.33 168.637 130.2C168.637 131.06 168.322 131.725 167.692 132.195C167.062 132.655 166.232 132.885 165.202 132.885L165.472 132.345C166.642 132.345 167.547 132.58 168.187 133.05C168.827 133.52 169.147 134.2 169.147 135.09C169.147 136 168.812 136.715 168.142 137.235C167.472 137.745 166.482 138 165.172 138H160.192ZM162.112 136.5H165.112C165.792 136.5 166.307 136.375 166.657 136.125C167.007 135.865 167.182 135.47 167.182 134.94C167.182 134.41 167.007 134.025 166.657 133.785C166.307 133.535 165.792 133.41 165.112 133.41H162.112V136.5ZM162.112 131.985H164.722C165.352 131.985 165.832 131.86 166.162 131.61C166.492 131.35 166.657 130.98 166.657 130.5C166.657 130 166.492 129.625 166.162 129.375C165.832 129.125 165.352 129 164.722 129H162.112V131.985ZM182.459 138L178.904 132.885L180.479 131.91L184.664 138H182.459ZM175.514 138V127.5H177.434V138H175.514ZM176.849 133.575V131.895H180.389V133.575H176.849ZM180.659 132.975L178.874 132.735L182.459 127.5H184.529L180.659 132.975ZM184.477 138L189.202 127.5H191.122L195.862 138H193.822L189.757 128.535H190.537L186.487 138H184.477ZM186.652 135.57L187.177 134.04H192.847L193.372 135.57H186.652ZM199.15 138V128.67L199.615 129.15H195.685V127.5H204.565V129.15H200.635L201.085 128.67V138H199.15ZM204.384 138L209.109 127.5H211.029L215.769 138H213.729L209.664 128.535H210.444L206.394 138H204.384ZM206.559 135.57L207.084 134.04H212.754L213.279 135.57H206.559ZM217.199 138.15C217.029 138.15 216.859 138.135 216.689 138.105C216.519 138.075 216.334 138.04 216.134 138L216.269 136.305C216.409 136.345 216.559 136.365 216.719 136.365C217.139 136.365 217.474 136.195 217.724 135.855C217.974 135.505 218.154 134.995 218.264 134.325C218.374 133.655 218.449 132.83 218.489 131.85L218.639 127.5H226.364V138H224.444V128.67L224.894 129.15H219.899L220.319 128.655L220.214 131.775C220.184 132.815 220.114 133.73 220.004 134.52C219.894 135.31 219.724 135.975 219.494 136.515C219.274 137.045 218.979 137.45 218.609 137.73C218.239 138.01 217.769 138.15 217.199 138.15ZM234.193 138.15C233.373 138.15 232.618 138.015 231.928 137.745C231.238 137.475 230.638 137.1 230.128 136.62C229.618 136.13 229.223 135.56 228.943 134.91C228.663 134.25 228.523 133.53 228.523 132.75C228.523 131.97 228.663 131.255 228.943 130.605C229.223 129.945 229.618 129.375 230.128 128.895C230.638 128.405 231.238 128.025 231.928 127.755C232.618 127.485 233.368 127.35 234.178 127.35C234.998 127.35 235.748 127.485 236.428 127.755C237.118 128.025 237.718 128.405 238.228 128.895C238.738 129.375 239.133 129.945 239.413 130.605C239.693 131.255 239.833 131.97 239.833 132.75C239.833 133.53 239.693 134.25 239.413 134.91C239.133 135.57 238.738 136.14 238.228 136.62C237.718 137.1 237.118 137.475 236.428 137.745C235.748 138.015 235.003 138.15 234.193 138.15ZM234.178 136.44C234.708 136.44 235.198 136.35 235.648 136.17C236.098 135.99 236.488 135.735 236.818 135.405C237.148 135.065 237.403 134.675 237.583 134.235C237.773 133.785 237.868 133.29 237.868 132.75C237.868 132.21 237.773 131.72 237.583 131.28C237.403 130.83 237.148 130.44 236.818 130.11C236.488 129.77 236.098 129.51 235.648 129.33C235.198 129.15 234.708 129.06 234.178 129.06C233.648 129.06 233.158 129.15 232.708 129.33C232.268 129.51 231.878 129.77 231.538 130.11C231.208 130.44 230.948 130.83 230.758 131.28C230.578 131.72 230.488 132.21 230.488 132.75C230.488 133.28 230.578 133.77 230.758 134.22C230.948 134.67 231.208 135.065 231.538 135.405C231.868 135.735 232.258 135.99 232.708 136.17C233.158 136.35 233.648 136.44 234.178 136.44ZM242.004 138V127.5H249.129L249.114 129.15H243.459L243.909 128.685L243.924 138H242.004ZM158.447 156V145.5H160.397V156H158.447ZM163.237 156V145.5H164.842L171.427 153.585H170.632V145.5H172.567V156H170.962L164.377 147.915H165.172V156H163.237ZM178.636 156.15C177.816 156.15 177.031 156.035 176.281 155.805C175.531 155.565 174.936 155.26 174.496 154.89L175.171 153.375C175.591 153.705 176.111 153.98 176.731 154.2C177.351 154.42 177.986 154.53 178.636 154.53C179.186 154.53 179.631 154.47 179.971 154.35C180.311 154.23 180.561 154.07 180.721 153.87C180.881 153.66 180.961 153.425 180.961 153.165C180.961 152.845 180.846 152.59 180.616 152.4C180.386 152.2 180.086 152.045 179.716 151.935C179.356 151.815 178.951 151.705 178.501 151.605C178.061 151.505 177.616 151.39 177.166 151.26C176.726 151.12 176.321 150.945 175.951 150.735C175.591 150.515 175.296 150.225 175.066 149.865C174.836 149.505 174.721 149.045 174.721 148.485C174.721 147.915 174.871 147.395 175.171 146.925C175.481 146.445 175.946 146.065 176.566 145.785C177.196 145.495 177.991 145.35 178.951 145.35C179.581 145.35 180.206 145.43 180.826 145.59C181.446 145.75 181.986 145.98 182.446 146.28L181.831 147.795C181.361 147.515 180.876 147.31 180.376 147.18C179.876 147.04 179.396 146.97 178.936 146.97C178.396 146.97 177.956 147.035 177.616 147.165C177.286 147.295 177.041 147.465 176.881 147.675C176.731 147.885 176.656 148.125 176.656 148.395C176.656 148.715 176.766 148.975 176.986 149.175C177.216 149.365 177.511 149.515 177.871 149.625C178.241 149.735 178.651 149.845 179.101 149.955C179.551 150.055 179.996 150.17 180.436 150.3C180.886 150.43 181.291 150.6 181.651 150.81C182.021 151.02 182.316 151.305 182.536 151.665C182.766 152.025 182.881 152.48 182.881 153.03C182.881 153.59 182.726 154.11 182.416 154.59C182.116 155.06 181.651 155.44 181.021 155.73C180.391 156.01 179.596 156.15 178.636 156.15ZM186.798 156V147.15H183.318V145.5H192.228V147.15H188.748V156H186.798ZM191.679 156L196.404 145.5H198.324L203.064 156H201.024L196.959 146.535H197.739L193.689 156H191.679ZM193.854 153.57L194.379 152.04H200.049L200.574 153.57H193.854ZM209.158 156.15C208.338 156.15 207.583 156.02 206.893 155.76C206.213 155.49 205.618 155.115 205.108 154.635C204.598 154.145 204.203 153.57 203.923 152.91C203.643 152.25 203.503 151.53 203.503 150.75C203.503 149.97 203.643 149.25 203.923 148.59C204.203 147.93 204.598 147.36 205.108 146.88C205.628 146.39 206.233 146.015 206.923 145.755C207.613 145.485 208.368 145.35 209.188 145.35C210.078 145.35 210.878 145.495 211.588 145.785C212.308 146.075 212.913 146.5 213.403 147.06L212.173 148.26C211.763 147.85 211.318 147.55 210.838 147.36C210.368 147.16 209.848 147.06 209.278 147.06C208.728 147.06 208.218 147.15 207.748 147.33C207.278 147.51 206.873 147.765 206.533 148.095C206.193 148.425 205.928 148.815 205.738 149.265C205.558 149.715 205.468 150.21 205.468 150.75C205.468 151.28 205.558 151.77 205.738 152.22C205.928 152.67 206.193 153.065 206.533 153.405C206.873 153.735 207.273 153.99 207.733 154.17C208.193 154.35 208.703 154.44 209.263 154.44C209.783 154.44 210.283 154.36 210.763 154.2C211.253 154.03 211.718 153.75 212.158 153.36L213.268 154.815C212.718 155.255 212.078 155.59 211.348 155.82C210.628 156.04 209.898 156.15 209.158 156.15ZM211.423 154.56V150.63H213.268V154.815L211.423 154.56ZM215.84 156V145.5H220.16C221.09 145.5 221.885 145.65 222.545 145.95C223.215 146.25 223.73 146.68 224.09 147.24C224.45 147.8 224.63 148.465 224.63 149.235C224.63 150.005 224.45 150.67 224.09 151.23C223.73 151.78 223.215 152.205 222.545 152.505C221.885 152.795 221.09 152.94 220.16 152.94H216.92L217.79 152.055V156H215.84ZM222.71 156L220.055 152.19H222.14L224.81 156H222.71ZM217.79 152.265L216.92 151.335H220.07C220.93 151.335 221.575 151.15 222.005 150.78C222.445 150.41 222.665 149.895 222.665 149.235C222.665 148.565 222.445 148.05 222.005 147.69C221.575 147.33 220.93 147.15 220.07 147.15H216.92L217.79 146.19V152.265ZM225.326 156L230.051 145.5H231.971L236.711 156H234.671L230.606 146.535H231.386L227.336 156H225.326ZM227.501 153.57L228.026 152.04H233.696L234.221 153.57H227.501ZM238.047 156V145.5H239.652L244.242 153.165H243.402L247.917 145.5H249.522L249.537 156H247.692L247.677 148.395H248.067L244.227 154.8H243.357L239.457 148.395H239.907V156H238.047Z" fill="#A7897E"/>
</svg>
