<svg width="434" height="268" viewBox="0 0 434 268" fill="none" xmlns="http://www.w3.org/2000/svg">
<path d="M390.756 32.5619L382.579 56.6028C379.13 66.741 384.281 77.7927 394.262 81.6725L417.93 90.8726L393.885 82.7064C383.745 79.2627 372.688 84.4154 368.804 94.3949L359.592 118.059L367.769 94.0185C371.218 83.8803 366.067 72.8286 356.086 68.9488L332.418 59.7487L356.463 67.9149C366.603 71.3586 377.66 66.2059 381.545 56.2264L390.756 32.5619Z" fill="#F2E9E1"/>
<path d="M43.603 175.388L50.0168 197.376C52.7158 206.628 62.2242 212.115 71.5856 209.823L93.832 204.376L71.8428 210.782C62.5897 213.477 57.1044 222.982 59.3999 232.343L64.8551 254.587L58.4412 232.599C55.7422 223.347 46.2338 217.86 36.8724 220.152L14.6261 225.599L36.6152 219.193C45.8683 216.498 51.3537 206.993 49.0581 197.632L43.603 175.388Z" fill="#F2E9E1"/>
<path d="M378.564 89.9891C384.543 113.935 370.476 140.752 342.268 164.797C314.112 188.797 272.108 209.802 222.924 222.065C173.74 234.328 126.785 235.503 90.6462 227.533C54.4402 219.549 29.4151 202.479 23.4359 178.533C17.4567 154.586 31.5237 127.77 59.7321 103.725C87.8884 79.7243 129.892 58.7195 179.076 46.4566C228.26 34.1937 275.215 33.0186 311.354 40.9884C347.56 48.9729 372.585 66.043 378.564 89.9891Z" stroke="#F2E9E1" stroke-width="2"/>
<circle cx="201.5" cy="131.5" r="127" fill="#F2E9E1" stroke="#A7897E" stroke-width="3"/>
<path d="M161.931 117V106.5H171.216V117H169.296V107.67L169.746 108.15H163.401L163.851 107.67V117H161.931ZM175.977 110.865H181.197V112.47H175.977V110.865ZM176.127 115.365H182.052V117H174.177V106.5H181.842V108.135H176.127V115.365ZM184.225 117V106.5H188.545C189.475 106.5 190.27 106.65 190.93 106.95C191.6 107.25 192.115 107.68 192.475 108.24C192.835 108.8 193.015 109.465 193.015 110.235C193.015 111.005 192.835 111.67 192.475 112.23C192.115 112.79 191.6 113.22 190.93 113.52C190.27 113.82 189.475 113.97 188.545 113.97H185.305L186.175 113.055V117H184.225ZM186.175 113.265L185.305 112.32H188.455C189.315 112.32 189.96 112.14 190.39 111.78C190.83 111.41 191.05 110.895 191.05 110.235C191.05 109.565 190.83 109.05 190.39 108.69C189.96 108.33 189.315 108.15 188.455 108.15H185.305L186.175 107.19V113.265ZM196.66 110.865H201.88V112.47H196.66V110.865ZM196.81 115.365H202.735V117H194.86V106.5H202.525V108.135H196.81V115.365ZM204.924 117V106.5H206.844V113.955L212.484 106.5H214.299V117H212.379V109.56L206.739 117H204.924ZM209.589 105.795C208.689 105.795 208.009 105.605 207.549 105.225C207.099 104.845 206.869 104.31 206.859 103.62H208.224C208.234 103.99 208.354 104.275 208.584 104.475C208.824 104.675 209.159 104.775 209.589 104.775C210.019 104.775 210.354 104.675 210.594 104.475C210.844 104.275 210.974 103.99 210.984 103.62H212.334C212.324 104.31 212.089 104.845 211.629 105.225C211.169 105.605 210.489 105.795 209.589 105.795ZM219.448 117V107.67L219.913 108.15H215.983V106.5H224.863V108.15H220.933L221.383 107.67V117H219.448ZM226.56 117V106.5H228.48V113.955L234.12 106.5H235.935V117H234.015V109.56L228.375 117H226.56ZM157.192 135V124.5H161.887C163.067 124.5 163.987 124.735 164.647 125.205C165.307 125.665 165.637 126.33 165.637 127.2C165.637 128.06 165.322 128.725 164.692 129.195C164.062 129.655 163.232 129.885 162.202 129.885L162.472 129.345C163.642 129.345 164.547 129.58 165.187 130.05C165.827 130.52 166.147 131.2 166.147 132.09C166.147 133 165.812 133.715 165.142 134.235C164.472 134.745 163.482 135 162.172 135H157.192ZM159.112 133.5H162.112C162.792 133.5 163.307 133.375 163.657 133.125C164.007 132.865 164.182 132.47 164.182 131.94C164.182 131.41 164.007 131.025 163.657 130.785C163.307 130.535 162.792 130.41 162.112 130.41H159.112V133.5ZM159.112 128.985H161.722C162.352 128.985 162.832 128.86 163.162 128.61C163.492 128.35 163.657 127.98 163.657 127.5C163.657 127 163.492 126.625 163.162 126.375C162.832 126.125 162.352 126 161.722 126H159.112V128.985ZM179.459 135L175.904 129.885L177.479 128.91L181.664 135H179.459ZM172.514 135V124.5H174.434V135H172.514ZM173.849 130.575V128.895H177.389V130.575H173.849ZM177.659 129.975L175.874 129.735L179.459 124.5H181.529L177.659 129.975ZM181.477 135L186.202 124.5H188.122L192.862 135H190.822L186.757 125.535H187.537L183.487 135H181.477ZM183.652 132.57L184.177 131.04H189.847L190.372 132.57H183.652ZM196.15 135V125.67L196.615 126.15H192.685V124.5H201.565V126.15H197.635L198.085 125.67V135H196.15ZM201.384 135L206.109 124.5H208.029L212.769 135H210.729L206.664 125.535H207.444L203.394 135H201.384ZM203.559 132.57L204.084 131.04H209.754L210.279 132.57H203.559ZM214.199 135.15C214.029 135.15 213.859 135.135 213.689 135.105C213.519 135.075 213.334 135.04 213.134 135L213.269 133.305C213.409 133.345 213.559 133.365 213.719 133.365C214.139 133.365 214.474 133.195 214.724 132.855C214.974 132.505 215.154 131.995 215.264 131.325C215.374 130.655 215.449 129.83 215.489 128.85L215.639 124.5H223.364V135H221.444V125.67L221.894 126.15H216.899L217.319 125.655L217.214 128.775C217.184 129.815 217.114 130.73 217.004 131.52C216.894 132.31 216.724 132.975 216.494 133.515C216.274 134.045 215.979 134.45 215.609 134.73C215.239 135.01 214.769 135.15 214.199 135.15ZM231.193 135.15C230.373 135.15 229.618 135.015 228.928 134.745C228.238 134.475 227.638 134.1 227.128 133.62C226.618 133.13 226.223 132.56 225.943 131.91C225.663 131.25 225.523 130.53 225.523 129.75C225.523 128.97 225.663 128.255 225.943 127.605C226.223 126.945 226.618 126.375 227.128 125.895C227.638 125.405 228.238 125.025 228.928 124.755C229.618 124.485 230.368 124.35 231.178 124.35C231.998 124.35 232.748 124.485 233.428 124.755C234.118 125.025 234.718 125.405 235.228 125.895C235.738 126.375 236.133 126.945 236.413 127.605C236.693 128.255 236.833 128.97 236.833 129.75C236.833 130.53 236.693 131.25 236.413 131.91C236.133 132.57 235.738 133.14 235.228 133.62C234.718 134.1 234.118 134.475 233.428 134.745C232.748 135.015 232.003 135.15 231.193 135.15ZM231.178 133.44C231.708 133.44 232.198 133.35 232.648 133.17C233.098 132.99 233.488 132.735 233.818 132.405C234.148 132.065 234.403 131.675 234.583 131.235C234.773 130.785 234.868 130.29 234.868 129.75C234.868 129.21 234.773 128.72 234.583 128.28C234.403 127.83 234.148 127.44 233.818 127.11C233.488 126.77 233.098 126.51 232.648 126.33C232.198 126.15 231.708 126.06 231.178 126.06C230.648 126.06 230.158 126.15 229.708 126.33C229.268 126.51 228.878 126.77 228.538 127.11C228.208 127.44 227.948 127.83 227.758 128.28C227.578 128.72 227.488 129.21 227.488 129.75C227.488 130.28 227.578 130.77 227.758 131.22C227.948 131.67 228.208 132.065 228.538 132.405C228.868 132.735 229.258 132.99 229.708 133.17C230.158 133.35 230.648 133.44 231.178 133.44ZM239.004 135V124.5H246.129L246.114 126.15H240.459L240.909 125.685L240.924 135H239.004ZM155.447 153V142.5H157.397V153H155.447ZM160.237 153V142.5H161.842L168.427 150.585H167.632V142.5H169.567V153H167.962L161.377 144.915H162.172V153H160.237ZM175.636 153.15C174.816 153.15 174.031 153.035 173.281 152.805C172.531 152.565 171.936 152.26 171.496 151.89L172.171 150.375C172.591 150.705 173.111 150.98 173.731 151.2C174.351 151.42 174.986 151.53 175.636 151.53C176.186 151.53 176.631 151.47 176.971 151.35C177.311 151.23 177.561 151.07 177.721 150.87C177.881 150.66 177.961 150.425 177.961 150.165C177.961 149.845 177.846 149.59 177.616 149.4C177.386 149.2 177.086 149.045 176.716 148.935C176.356 148.815 175.951 148.705 175.501 148.605C175.061 148.505 174.616 148.39 174.166 148.26C173.726 148.12 173.321 147.945 172.951 147.735C172.591 147.515 172.296 147.225 172.066 146.865C171.836 146.505 171.721 146.045 171.721 145.485C171.721 144.915 171.871 144.395 172.171 143.925C172.481 143.445 172.946 143.065 173.566 142.785C174.196 142.495 174.991 142.35 175.951 142.35C176.581 142.35 177.206 142.43 177.826 142.59C178.446 142.75 178.986 142.98 179.446 143.28L178.831 144.795C178.361 144.515 177.876 144.31 177.376 144.18C176.876 144.04 176.396 143.97 175.936 143.97C175.396 143.97 174.956 144.035 174.616 144.165C174.286 144.295 174.041 144.465 173.881 144.675C173.731 144.885 173.656 145.125 173.656 145.395C173.656 145.715 173.766 145.975 173.986 146.175C174.216 146.365 174.511 146.515 174.871 146.625C175.241 146.735 175.651 146.845 176.101 146.955C176.551 147.055 176.996 147.17 177.436 147.3C177.886 147.43 178.291 147.6 178.651 147.81C179.021 148.02 179.316 148.305 179.536 148.665C179.766 149.025 179.881 149.48 179.881 150.03C179.881 150.59 179.726 151.11 179.416 151.59C179.116 152.06 178.651 152.44 178.021 152.73C177.391 153.01 176.596 153.15 175.636 153.15ZM183.798 153V144.15H180.318V142.5H189.228V144.15H185.748V153H183.798ZM188.679 153L193.404 142.5H195.324L200.064 153H198.024L193.959 143.535H194.739L190.689 153H188.679ZM190.854 150.57L191.379 149.04H197.049L197.574 150.57H190.854ZM206.158 153.15C205.338 153.15 204.583 153.02 203.893 152.76C203.213 152.49 202.618 152.115 202.108 151.635C201.598 151.145 201.203 150.57 200.923 149.91C200.643 149.25 200.503 148.53 200.503 147.75C200.503 146.97 200.643 146.25 200.923 145.59C201.203 144.93 201.598 144.36 202.108 143.88C202.628 143.39 203.233 143.015 203.923 142.755C204.613 142.485 205.368 142.35 206.188 142.35C207.078 142.35 207.878 142.495 208.588 142.785C209.308 143.075 209.913 143.5 210.403 144.06L209.173 145.26C208.763 144.85 208.318 144.55 207.838 144.36C207.368 144.16 206.848 144.06 206.278 144.06C205.728 144.06 205.218 144.15 204.748 144.33C204.278 144.51 203.873 144.765 203.533 145.095C203.193 145.425 202.928 145.815 202.738 146.265C202.558 146.715 202.468 147.21 202.468 147.75C202.468 148.28 202.558 148.77 202.738 149.22C202.928 149.67 203.193 150.065 203.533 150.405C203.873 150.735 204.273 150.99 204.733 151.17C205.193 151.35 205.703 151.44 206.263 151.44C206.783 151.44 207.283 151.36 207.763 151.2C208.253 151.03 208.718 150.75 209.158 150.36L210.268 151.815C209.718 152.255 209.078 152.59 208.348 152.82C207.628 153.04 206.898 153.15 206.158 153.15ZM208.423 151.56V147.63H210.268V151.815L208.423 151.56ZM212.84 153V142.5H217.16C218.09 142.5 218.885 142.65 219.545 142.95C220.215 143.25 220.73 143.68 221.09 144.24C221.45 144.8 221.63 145.465 221.63 146.235C221.63 147.005 221.45 147.67 221.09 148.23C220.73 148.78 220.215 149.205 219.545 149.505C218.885 149.795 218.09 149.94 217.16 149.94H213.92L214.79 149.055V153H212.84ZM219.71 153L217.055 149.19H219.14L221.81 153H219.71ZM214.79 149.265L213.92 148.335H217.07C217.93 148.335 218.575 148.15 219.005 147.78C219.445 147.41 219.665 146.895 219.665 146.235C219.665 145.565 219.445 145.05 219.005 144.69C218.575 144.33 217.93 144.15 217.07 144.15H213.92L214.79 143.19V149.265ZM222.326 153L227.051 142.5H228.971L233.711 153H231.671L227.606 143.535H228.386L224.336 153H222.326ZM224.501 150.57L225.026 149.04H230.696L231.221 150.57H224.501ZM235.047 153V142.5H236.652L241.242 150.165H240.402L244.917 142.5H246.522L246.537 153H244.692L244.677 145.395H245.067L241.227 151.8H240.357L236.457 145.395H236.907V153H235.047Z" fill="#A7897E"/>
</svg>
