<svg width="432" height="212" viewBox="0 0 432 212" fill="none" xmlns="http://www.w3.org/2000/svg">
<path d="M353.834 37.0142C353.097 36.9782 352.366 37.1072 351.838 37.5776C351.347 38.0149 351.094 38.6252 350.985 39.2788C350.668 41.1753 352.974 42.0402 354.431 40.7853C354.629 40.6145 354.816 40.4436 354.981 40.2768C356.143 39.1064 355.482 37.0948 353.834 37.0142Z" fill="#A7897E" stroke="#F2E9E1" stroke-width="2" stroke-linecap="round" stroke-linejoin="round"/>
<path d="M360.465 68.1207L356.202 69.2414M356.202 69.2414C356.202 69.2414 346.034 70.5777 341.615 66.3276C335.556 60.5 337.71 43.1456 346.777 32.7069C353.175 25.3403 368.769 20.8276 368.769 20.8276C368.769 20.8276 364.729 2 368.769 2C370.339 2 401.395 16.1629 410.059 27.5517C418.724 38.9406 419.986 47.7602 423.524 61.6207C431.98 94.7525 433.846 124.603 418.587 149.034C409.251 163.982 395.293 170.864 376.398 175.483C368.521 177.408 362.221 177.006 355.753 177.724C343.635 179.069 319.289 186.86 295.612 191.172C266.739 196.432 249.833 199.241 218.865 200.586C199.632 201.421 186.326 210 172.637 210C152.844 210 137.854 202.603 126.41 194.983C121.323 191.596 102.623 193.414 92.0756 190.948C80.1477 188.16 61.1075 194.983 37.3205 192.741C32.9437 192.329 25.427 195.655 20.2656 200.138C12.6358 205.517 2.98633 207.31 2.98633 207.31C2.98633 207.31 18.3003 179.923 35.7496 172.793C45.6235 168.759 71.4302 164.677 79.9577 164.5C98.4837 164.115 112.774 170.552 123.717 170.552C129.134 170.552 133.514 148.135 144.138 133.121C157.602 119.224 164.783 113.431 173.984 108.914C200.464 95.9138 237.266 87.3966 270.927 80C297.407 74.1814 346.777 83.5862 346.777 83.5862C347.824 83.5862 349.47 80 356.202 69.2414Z" stroke="#F2E9E1" stroke-width="4" stroke-linecap="round" stroke-linejoin="round"/>
</svg>
