<svg width="120" height="125" viewBox="0 0 120 125" fill="none" xmlns="http://www.w3.org/2000/svg">
<path fill-rule="evenodd" clip-rule="evenodd" d="M59.7922 91.3832L61.0494 91.0591C60.8051 91.2841 60.5608 91.4904 60.2814 91.5101C60.1264 91.5195 59.9616 91.4723 59.7922 91.3832Z" fill="#F8E021"/>
<path fill-rule="evenodd" clip-rule="evenodd" d="M59.7399 91.3543L61.114 90.999C61.082 91.0287 61.0503 91.0581 61.0183 91.0872L59.8197 91.397C59.7932 91.3837 59.7667 91.3695 59.7399 91.3543Z" fill="#F9DF22"/>
<path fill-rule="evenodd" clip-rule="evenodd" d="M59.6908 91.325L61.1767 90.9409L61.0801 91.0306L59.7676 91.3698C59.742 91.3559 59.7164 91.3408 59.6908 91.325Z" fill="#F9DF22"/>
<path fill-rule="evenodd" clip-rule="evenodd" d="M59.6451 91.2957L61.2389 90.8838C61.2066 90.9132 61.1743 90.9429 61.142 90.9728L59.7179 91.3412C59.6939 91.3269 59.6695 91.3118 59.6451 91.2957Z" fill="#F9DE22"/>
<path fill-rule="evenodd" clip-rule="evenodd" d="M59.5979 91.2637L61.3074 90.823C61.2751 90.8512 61.2428 90.8803 61.2108 90.9093L59.6652 91.3089C59.6427 91.2946 59.6204 91.2795 59.5979 91.2637Z" fill="#F9DE23"/>
<path fill-rule="evenodd" clip-rule="evenodd" d="M59.5535 91.2322L61.3814 90.76C61.3455 90.7897 61.3096 90.8206 61.2742 90.8521L59.6208 91.2795C59.5986 91.2643 59.576 91.2486 59.5535 91.2322Z" fill="#F9DE23"/>
<path fill-rule="evenodd" clip-rule="evenodd" d="M59.5127 91.202L61.4573 90.6995C61.4187 90.7288 61.3806 90.7603 61.3425 90.7925L59.5767 91.2489C59.5556 91.2338 59.5343 91.2183 59.5127 91.202Z" fill="#F8DD21"/>
<path fill-rule="evenodd" clip-rule="evenodd" d="M59.4722 91.1705L61.5484 90.634C61.503 90.6643 61.4582 90.6976 61.4144 90.7331L59.5352 91.2189C59.5142 91.2032 59.4932 91.1871 59.4722 91.1705Z" fill="#F8DC22"/>
<path fill-rule="evenodd" clip-rule="evenodd" d="M59.4307 91.1373L61.669 90.5605C61.6531 90.569 61.6376 90.5781 61.622 90.5875C61.5831 90.6105 61.5444 90.636 61.5063 90.6632L59.4898 91.1845C59.47 91.1691 59.4502 91.1533 59.4307 91.1373Z" fill="#F8DA23"/>
<path fill-rule="evenodd" clip-rule="evenodd" d="M59.3914 91.1045L61.8895 90.4587C61.7993 90.4948 61.7091 90.5351 61.622 90.5875L61.6074 90.5963L59.4508 91.1536C59.431 91.1376 59.4112 91.1212 59.3914 91.1045Z" fill="#F8DA23"/>
<path fill-rule="evenodd" clip-rule="evenodd" d="M59.3547 91.0731L62.1891 90.3403C62.0499 90.4006 61.9016 90.4479 61.7572 90.5157L59.4123 91.1224C59.3931 91.1064 59.3739 91.0897 59.3547 91.0731Z" fill="#F8DA23"/>
<path fill-rule="evenodd" clip-rule="evenodd" d="M59.3188 91.0411L62.3607 90.2542C62.2574 90.3156 62.1456 90.3599 62.0314 90.4035L59.3749 91.0902C59.356 91.0741 59.3374 91.0578 59.3188 91.0411Z" fill="#F8D921"/>
<path fill-rule="evenodd" clip-rule="evenodd" d="M59.2793 91.0051L62.4674 90.1812C62.4131 90.2239 62.3559 90.259 62.2959 90.2902L59.3347 91.0553C59.3165 91.039 59.2979 91.0223 59.2793 91.0051Z" fill="#F8D921"/>
<path fill-rule="evenodd" clip-rule="evenodd" d="M59.2451 90.9733L62.5337 90.123C62.4978 90.1579 62.4597 90.1885 62.4201 90.216L59.2987 91.023C59.2808 91.0066 59.2628 90.99 59.2451 90.9733Z" fill="#F8D722"/>
<path fill-rule="evenodd" clip-rule="evenodd" d="M59.2107 90.94L62.5861 90.0676C62.5587 90.0997 62.5294 90.1285 62.4993 90.1546L59.264 90.9909C59.246 90.9742 59.2284 90.9573 59.2107 90.94Z" fill="#F9D722"/>
<path fill-rule="evenodd" clip-rule="evenodd" d="M59.1776 90.9079L62.6273 90.0161C62.606 90.0449 62.5838 90.0715 62.5606 90.0961L59.2263 90.9554L59.1776 90.9079Z" fill="#F9D722"/>
<path fill-rule="evenodd" clip-rule="evenodd" d="M59.1406 90.8711L62.6656 89.96C62.6476 89.9884 62.629 90.0145 62.6099 90.039L59.1921 90.9223C59.175 90.9056 59.158 90.8887 59.1406 90.8711Z" fill="#F8D622"/>
<path fill-rule="evenodd" clip-rule="evenodd" d="M59.109 90.8385L62.694 89.9116C62.6791 89.9386 62.6635 89.9637 62.6477 89.9873L59.1593 90.8897L59.109 90.8385Z" fill="#F8D523"/>
<path fill-rule="evenodd" clip-rule="evenodd" d="M59.0774 90.8056L62.719 89.8635C62.7062 89.8899 62.6928 89.9147 62.6788 89.9383L59.1264 90.8565C59.1103 90.8398 59.0938 90.8225 59.0774 90.8056Z" fill="#F8D523"/>
<path fill-rule="evenodd" clip-rule="evenodd" d="M59.0457 90.7717L62.7403 89.8167C62.7293 89.8421 62.7178 89.8663 62.7056 89.8897L59.0923 90.8208L59.0457 90.7717Z" fill="#F8D423"/>
<path fill-rule="evenodd" clip-rule="evenodd" d="M59.0118 90.7356L62.7607 89.7666C62.7513 89.7914 62.7415 89.8148 62.7312 89.8375L59.0597 90.7868L59.0118 90.7356Z" fill="#F8D323"/>
<path fill-rule="evenodd" clip-rule="evenodd" d="M58.9811 90.7013L62.7775 89.7202C62.7689 89.7448 62.7601 89.7687 62.751 89.7914L59.0289 90.7537C59.0128 90.7365 58.9969 90.7192 58.9811 90.7013Z" fill="#F8D223"/>
<path fill-rule="evenodd" clip-rule="evenodd" d="M58.9512 90.6684L62.7917 89.6758C62.7844 89.6997 62.7768 89.7227 62.7686 89.7451L58.9975 90.7199L58.9512 90.6684Z" fill="#F8D223"/>
<path fill-rule="evenodd" clip-rule="evenodd" d="M58.9211 90.634L62.8053 89.6301C62.7985 89.6541 62.7918 89.6771 62.7845 89.6992L58.9653 90.6836L58.9211 90.634Z" fill="#F8D124"/>
<path fill-rule="evenodd" clip-rule="evenodd" d="M58.8892 90.5971L62.8177 89.5818C62.812 89.6054 62.8059 89.6281 62.7995 89.6499L58.9352 90.6495L58.8892 90.5971Z" fill="#F8D022"/>
<path fill-rule="evenodd" clip-rule="evenodd" d="M58.8606 90.5636L62.8282 89.5374L62.8236 89.5574C62.8196 89.574 62.8157 89.5901 62.8117 89.6058L58.9054 90.6157L58.8606 90.5636Z" fill="#F8D022"/>
<path fill-rule="evenodd" clip-rule="evenodd" d="M58.8315 90.5292L62.8372 89.4939C62.8329 89.5154 62.8284 89.5366 62.8235 89.5572L62.8223 89.5621L58.8763 90.5819L58.8315 90.5292Z" fill="#F7CE23"/>
<path fill-rule="evenodd" clip-rule="evenodd" d="M58.8014 90.4927L62.8454 89.4504C62.8418 89.4716 62.8375 89.4928 62.8332 89.5131L58.844 90.5442L58.8014 90.4927Z" fill="#F7CE22"/>
<path fill-rule="evenodd" clip-rule="evenodd" d="M58.7725 90.4571L62.8537 89.4023C62.85 89.4254 62.846 89.4478 62.8418 89.4699L58.816 90.5104L58.7725 90.4571Z" fill="#F7CE22"/>
<path fill-rule="evenodd" clip-rule="evenodd" d="M58.745 90.4234L62.8603 89.3596C62.857 89.382 62.8536 89.4041 62.8496 89.4257L58.7876 90.4758L58.745 90.4234Z" fill="#F6CC22"/>
<path fill-rule="evenodd" clip-rule="evenodd" d="M58.7173 90.3888L62.8664 89.3162C62.8634 89.3389 62.86 89.3613 62.8567 89.3834L58.7599 90.4424L58.7173 90.3888Z" fill="#F7CC22"/>
<path fill-rule="evenodd" clip-rule="evenodd" d="M58.688 90.3518L62.8715 89.2734C62.8691 89.2943 62.8667 89.3149 62.8636 89.3352L58.7297 90.4048L58.688 90.3518Z" fill="#F7CB23"/>
<path fill-rule="evenodd" clip-rule="evenodd" d="M58.6609 90.317L62.8767 89.2266C62.8746 89.249 62.8718 89.2711 62.8694 89.2929L58.7023 90.37L58.6709 90.3298L58.6609 90.317Z" fill="#F7CB23"/>
<path fill-rule="evenodd" clip-rule="evenodd" d="M58.6342 90.2818L62.8811 89.1841C62.8789 89.2065 62.8768 89.2286 62.8744 89.2504L58.6759 90.3357L58.671 90.3294L58.6342 90.2818Z" fill="#F7CA23"/>
<path fill-rule="evenodd" clip-rule="evenodd" d="M58.6083 90.2479L62.8847 89.1426C62.8829 89.1644 62.8811 89.1862 62.8789 89.2074L58.6488 90.3009L58.6083 90.2479Z" fill="#F7C923"/>
<path fill-rule="evenodd" clip-rule="evenodd" d="M58.5796 90.2096L62.888 89.0991L62.8831 89.1612L58.6198 90.2632L58.5796 90.2096Z" fill="#F7C923"/>
<path fill-rule="evenodd" clip-rule="evenodd" d="M58.5537 90.1748L62.8911 89.0537L62.8868 89.1182L58.5939 90.2287L58.5537 90.1748Z" fill="#F6C824"/>
<path fill-rule="evenodd" clip-rule="evenodd" d="M58.5276 90.1399L62.8936 89.0112L62.8896 89.0767L58.5678 90.1941L58.5276 90.1399Z" fill="#F6C724"/>
<path fill-rule="evenodd" clip-rule="evenodd" d="M58.5024 90.105L62.8953 88.9697L62.8922 89.0339L58.542 90.1592L58.5024 90.105Z" fill="#F6C724"/>
<path fill-rule="evenodd" clip-rule="evenodd" d="M58.4751 90.0669L62.8971 88.9229L62.8944 88.988L58.5138 90.1205L58.4751 90.0669Z" fill="#F6C622"/>
<path fill-rule="evenodd" clip-rule="evenodd" d="M58.4498 90.0314L62.8984 88.8816L62.8962 88.9467L58.4888 90.0859L58.4498 90.0314Z" fill="#F6C523"/>
<path fill-rule="evenodd" clip-rule="evenodd" d="M58.4255 89.9968L62.8997 88.8403L62.8978 88.9042L58.4633 90.0504L58.4255 89.9968Z" fill="#F6C523"/>
<path fill-rule="evenodd" clip-rule="evenodd" d="M58.4005 89.9617L62.9002 88.7986L62.899 88.8631L58.4368 90.0132L58.4005 89.9617Z" fill="#F6C423"/>
<path fill-rule="evenodd" clip-rule="evenodd" d="M58.374 89.9232L62.9006 88.7534L62.9 88.817L58.4118 89.9781L58.374 89.9232Z" fill="#F6C323"/>
<path fill-rule="evenodd" clip-rule="evenodd" d="M58.3494 89.8877L62.9006 88.7112V88.7757L58.3871 89.9425L58.3494 89.8877Z" fill="#F6C224"/>
<path fill-rule="evenodd" clip-rule="evenodd" d="M58.3259 89.853L62.9003 88.6704L62.9006 88.7349L58.3634 89.9078L58.3259 89.853Z" fill="#F6C224"/>
<path fill-rule="evenodd" clip-rule="evenodd" d="M58.3025 89.8179L62.9 88.6284L62.9006 88.6926L58.3369 89.8688L58.3025 89.8179Z" fill="#F5C124"/>
<path fill-rule="evenodd" clip-rule="evenodd" d="M58.2759 89.7785L62.899 88.5833L62.9002 88.6478L58.3127 89.8333L58.2759 89.7785Z" fill="#F5C025"/>
<path fill-rule="evenodd" clip-rule="evenodd" d="M58.2531 89.7434L62.8981 88.5427L62.8996 88.606L58.289 89.7977L58.2531 89.7434Z" fill="#F5C025"/>
<path fill-rule="evenodd" clip-rule="evenodd" d="M58.2296 89.7079L62.8969 88.5015L62.8987 88.5654L58.2659 89.7631L58.2296 89.7079Z" fill="#F5C024"/>
<path fill-rule="evenodd" clip-rule="evenodd" d="M58.2068 89.6726L62.8954 88.4607L62.8975 88.5234L58.2406 89.7247L58.2068 89.6726Z" fill="#F5BF25"/>
<path fill-rule="evenodd" clip-rule="evenodd" d="M58.1812 89.6328L62.8935 88.4148L62.8959 88.4787L58.2168 89.6882L58.1812 89.6328Z" fill="#F5BF25"/>
<path fill-rule="evenodd" clip-rule="evenodd" d="M58.1587 89.5982L62.8918 88.3748L62.8945 88.4384L58.1943 89.6533L58.1587 89.5982Z" fill="#F5BD25"/>
<path fill-rule="evenodd" clip-rule="evenodd" d="M58.1365 89.5628L62.8896 88.3333L62.8927 88.3969L58.1712 89.6176L58.1365 89.5628Z" fill="#F5BD25"/>
<path fill-rule="evenodd" clip-rule="evenodd" d="M58.1118 89.5232L62.8872 88.2925L62.8906 88.3522L58.1465 89.5786L58.1118 89.5232Z" fill="#F5BD25"/>
<path fill-rule="evenodd" clip-rule="evenodd" d="M58.0895 89.4878L62.8844 88.2483L62.8883 88.3107L58.1236 89.5423L58.0895 89.4878Z" fill="#F5BC25"/>
<path fill-rule="evenodd" clip-rule="evenodd" d="M58.0669 89.4516L62.8816 88.2073L62.8859 88.2706L58.1016 89.5073L58.0669 89.4516Z" fill="#F5BB25"/>
<path fill-rule="evenodd" clip-rule="evenodd" d="M58.0453 89.4162L62.8789 88.1667L62.8831 88.2291L58.0797 89.472L58.0453 89.4162Z" fill="#F4BA26"/>
<path fill-rule="evenodd" clip-rule="evenodd" d="M58.0212 89.3767L62.8758 88.1257L62.8801 88.1851L58.0551 89.4322L58.0212 89.3767Z" fill="#F4BA26"/>
<path fill-rule="evenodd" clip-rule="evenodd" d="M57.9996 89.341L62.8722 88.0815L62.8771 88.1448L58.0334 89.3971L57.9996 89.341Z" fill="#F4B926"/>
<path fill-rule="evenodd" clip-rule="evenodd" d="M57.9783 89.3055L62.8685 88.0405L62.874 88.1035L58.0115 89.3606L57.9783 89.3055Z" fill="#F4B826"/>
<path fill-rule="evenodd" clip-rule="evenodd" d="M57.9567 89.2693L62.8649 88.0007L62.8707 88.0637L57.9902 89.3253L57.9567 89.2693Z" fill="#F4B826"/>
<path fill-rule="evenodd" clip-rule="evenodd" d="M57.9338 89.2305L62.8612 87.9607L62.8667 88.0186L57.9661 89.2853L57.9338 89.2305Z" fill="#F4B726"/>
<path fill-rule="evenodd" clip-rule="evenodd" d="M57.9121 89.1933L62.8566 87.9153L62.8627 87.9783L57.945 89.2496L57.9121 89.1933Z" fill="#F4B625"/>
<path fill-rule="evenodd" clip-rule="evenodd" d="M57.8915 89.1579L62.8527 87.8757L62.8588 87.9375L57.9241 89.214L57.8915 89.1579Z" fill="#F4B625"/>
<path fill-rule="evenodd" clip-rule="evenodd" d="M57.8701 89.1217L62.8481 87.835L62.8548 87.8977L57.9027 89.1777L57.8701 89.1217Z" fill="#F4B426"/>
<path fill-rule="evenodd" clip-rule="evenodd" d="M57.8477 89.0821L62.8433 87.7908L62.8503 87.8535L57.8803 89.1381L57.8477 89.0821Z" fill="#F5B426"/>
<path fill-rule="evenodd" clip-rule="evenodd" d="M57.8275 89.0464L62.8387 87.75L62.8457 87.8127L57.8589 89.1019L57.8275 89.0464Z" fill="#F3B325"/>
<path fill-rule="evenodd" clip-rule="evenodd" d="M57.8065 89.0097L62.8338 87.7102L62.8415 87.7729L57.8385 89.066L57.8065 89.0097Z" fill="#F3B325"/>
<path fill-rule="evenodd" clip-rule="evenodd" d="M57.7864 88.9744L62.8289 87.6707L62.8365 87.7321L57.8159 89.0262L57.7864 88.9744Z" fill="#F3B125"/>
<path fill-rule="evenodd" clip-rule="evenodd" d="M57.7639 88.9339L62.8232 87.6262L62.8311 87.6886L57.7956 88.9902L57.7639 88.9339Z" fill="#F3B125"/>
<path fill-rule="evenodd" clip-rule="evenodd" d="M57.7441 88.898L62.8181 87.5864L62.826 87.6479L57.7755 88.9543L57.7441 88.898Z" fill="#F3B125"/>
<path fill-rule="evenodd" clip-rule="evenodd" d="M57.7236 88.8614L62.8125 87.5459L62.8207 87.6083L57.755 88.9178L57.7236 88.8614Z" fill="#F3B024"/>
<path fill-rule="evenodd" clip-rule="evenodd" d="M57.7041 88.8258L62.8067 87.5066L62.8155 87.5687L57.733 88.8788L57.7041 88.8258Z" fill="#F3AE24"/>
<path fill-rule="evenodd" clip-rule="evenodd" d="M57.6825 88.7859L62.8003 87.4619L62.8094 87.524L57.7127 88.8414L57.6825 88.7859Z" fill="#F3AE24"/>
<path fill-rule="evenodd" clip-rule="evenodd" d="M57.6624 88.749L62.7945 87.4226L62.8036 87.4847L57.6931 88.8057L57.6624 88.749Z" fill="#F3AE24"/>
<path fill-rule="evenodd" clip-rule="evenodd" d="M57.6432 88.7134L62.7887 87.3833L62.7978 87.4445L57.673 88.7691L57.6432 88.7134Z" fill="#F3AD24"/>
<path fill-rule="evenodd" clip-rule="evenodd" d="M57.6235 88.6765L62.7824 87.3428L62.7919 87.4049L57.6522 88.7298L57.6235 88.6765Z" fill="#F3AD24"/>
<path fill-rule="evenodd" clip-rule="evenodd" d="M57.6021 88.6369L62.7753 87.2996L62.785 87.3607L57.6325 88.6935L57.6021 88.6369Z" fill="#F2AC24"/>
<path fill-rule="evenodd" clip-rule="evenodd" d="M57.5833 88.6008L62.7687 87.2595L62.7787 87.3213L57.6128 88.6568L57.5833 88.6008Z" fill="#F3AB24"/>
<path fill-rule="evenodd" clip-rule="evenodd" d="M57.5637 88.5637L62.7622 87.22L62.7726 87.2821L57.5936 88.6206L57.5637 88.5637Z" fill="#F3AA25"/>
<path fill-rule="evenodd" clip-rule="evenodd" d="M57.543 88.524L62.7552 87.1797L62.7649 87.2375L57.5722 88.5797L57.543 88.524Z" fill="#F3AA25"/>
<path fill-rule="evenodd" clip-rule="evenodd" d="M57.5236 88.4871L62.7477 87.1367L62.7583 87.1985L57.5534 88.544L57.5236 88.4871Z" fill="#F3AA23"/>
<path fill-rule="evenodd" clip-rule="evenodd" d="M57.505 88.451L62.7407 87.0977L62.7516 87.1582L57.5343 88.5068L57.505 88.451Z" fill="#F3A823"/>
<path fill-rule="evenodd" clip-rule="evenodd" d="M57.4861 88.4138L62.7333 87.0574L62.7446 87.1192L57.5153 88.471L57.4861 88.4138Z" fill="#F3A823"/>
<path fill-rule="evenodd" clip-rule="evenodd" d="M57.4656 88.3741L62.7259 87.0183L62.7366 87.075L57.4948 88.4311L57.4656 88.3741Z" fill="#F3A724"/>
<path fill-rule="evenodd" clip-rule="evenodd" d="M57.447 88.3377L62.7174 86.9744L62.7293 87.0359L57.4757 88.3941L57.447 88.3377Z" fill="#F3A724"/>
<path fill-rule="evenodd" clip-rule="evenodd" d="M57.4285 88.3007L62.7101 86.9355L62.722 86.997L57.4574 88.3577L57.4285 88.3007Z" fill="#F2A623"/>
<path fill-rule="evenodd" clip-rule="evenodd" d="M57.4102 88.2644L62.7022 86.8965L62.7141 86.9568L57.4385 88.3208L57.4102 88.2644Z" fill="#F2A523"/>
<path fill-rule="evenodd" clip-rule="evenodd" d="M57.3899 88.2238L62.6944 86.8564L62.706 86.914L57.4182 88.2807L57.3957 88.2356L57.3899 88.2238Z" fill="#F2A424"/>
<path fill-rule="evenodd" clip-rule="evenodd" d="M57.3715 88.1871L62.6854 86.8137L62.6976 86.874L57.3995 88.2434L57.3955 88.2356L57.3715 88.1871Z" fill="#F2A424"/>
<path fill-rule="evenodd" clip-rule="evenodd" d="M57.3533 88.1498L62.677 86.7737L62.6898 86.8352L57.3816 88.207L57.3533 88.1498Z" fill="#F2A324"/>
<path fill-rule="evenodd" clip-rule="evenodd" d="M57.3356 88.1139L62.6687 86.7351L62.6815 86.7954L57.3636 88.1712L57.3356 88.1139Z" fill="#F2A324"/>
<path fill-rule="evenodd" clip-rule="evenodd" d="M57.3162 88.0736L62.6594 86.6914L62.6725 86.7526L57.3436 88.1299L57.3162 88.0736Z" fill="#F2A124"/>
<path fill-rule="evenodd" clip-rule="evenodd" d="M57.2979 88.0363L62.6505 86.6526L62.6642 86.7138L57.3259 88.0935L57.2979 88.0363Z" fill="#F2A124"/>
<path fill-rule="evenodd" clip-rule="evenodd" d="M57.2805 88.0001L62.642 86.6143L62.6554 86.6742L57.3076 88.0564L57.2805 88.0001Z" fill="#F2A124"/>
<path fill-rule="evenodd" clip-rule="evenodd" d="M57.2628 87.9629L62.6328 86.5747L62.6465 86.6356L57.2884 88.0165L57.2628 87.9629Z" fill="#F39F24"/>
<path fill-rule="evenodd" clip-rule="evenodd" d="M57.2439 87.9224L62.6227 86.5317L62.6367 86.5917L57.2704 87.9787L57.2439 87.9224Z" fill="#F1A024"/>
<path fill-rule="evenodd" clip-rule="evenodd" d="M57.2263 87.8849L62.6134 86.4924L62.6277 86.5533L57.2534 87.9424L57.2263 87.8849Z" fill="#F19F24"/>
<path fill-rule="evenodd" clip-rule="evenodd" d="M57.2095 87.8484L62.6042 86.4541L62.6185 86.5138L57.236 87.9062L57.2095 87.8484Z" fill="#F29D24"/>
<path fill-rule="evenodd" clip-rule="evenodd" d="M57.1927 87.8116L62.5941 86.4143L62.6091 86.4752L57.2171 87.8649L57.1927 87.8116Z" fill="#F29D24"/>
<path fill-rule="evenodd" clip-rule="evenodd" d="M57.1741 87.7704L62.5837 86.3718L62.5986 86.4327L57.2003 87.8279L57.1741 87.7704Z" fill="#F29D24"/>
<path fill-rule="evenodd" clip-rule="evenodd" d="M57.158 87.7335L62.5737 86.3335L62.5889 86.3929L57.1832 87.7902L57.158 87.7335Z" fill="#F19B25"/>
<path fill-rule="evenodd" clip-rule="evenodd" d="M57.1416 87.696L62.5637 86.2944L62.5792 86.355L57.1672 87.7538L57.1416 87.696Z" fill="#F19B25"/>
<path fill-rule="evenodd" clip-rule="evenodd" d="M57.126 87.6589L62.5536 86.2559L62.5691 86.3152L57.1488 87.7122L57.126 87.6589Z" fill="#F19A24"/>
<path fill-rule="evenodd" clip-rule="evenodd" d="M57.1084 87.6172L62.5421 86.2129L62.5582 86.2732L57.1331 87.6756L57.1084 87.6172Z" fill="#F19A24"/>
<path fill-rule="evenodd" clip-rule="evenodd" d="M57.0934 87.5801L62.5316 86.1743L62.5475 86.2337L57.1174 87.6386L57.0934 87.5801Z" fill="#F19823"/>
<path fill-rule="evenodd" clip-rule="evenodd" d="M57.0785 87.5432L62.5207 86.1353L62.5374 86.1955L57.1016 87.6007L57.0785 87.5432Z" fill="#F19823"/>
<path fill-rule="evenodd" clip-rule="evenodd" d="M57.062 87.5012L62.51 86.0969L62.5258 86.1533L57.0852 87.5597L57.062 87.5012Z" fill="#EF9723"/>
<path fill-rule="evenodd" clip-rule="evenodd" d="M57.0477 87.464L62.4982 86.0552L62.5149 86.1142L57.07 87.5215L57.0477 87.464Z" fill="#EF9623"/>
<path fill-rule="evenodd" clip-rule="evenodd" d="M57.0334 87.4256L62.4866 86.0159L62.504 86.0761L57.0557 87.4844L57.0334 87.4256Z" fill="#EF9623"/>
<path fill-rule="evenodd" clip-rule="evenodd" d="M57.02 87.3884L62.4756 85.978L62.493 86.0371L57.041 87.4462L57.02 87.3884Z" fill="#EF9523"/>
<path fill-rule="evenodd" clip-rule="evenodd" d="M57.0051 87.346L62.4638 85.939L62.4805 85.995L57.0258 87.405L57.0051 87.346Z" fill="#EF9424"/>
<path fill-rule="evenodd" clip-rule="evenodd" d="M56.9922 87.3082L62.4511 85.8972L62.4688 85.956L57.0126 87.3675L56.9922 87.3082Z" fill="#EF9424"/>
<path fill-rule="evenodd" clip-rule="evenodd" d="M56.9797 87.2706L62.439 85.8584L62.4576 85.9181L56.9992 87.329L56.9797 87.2706Z" fill="#F09324"/>
<path fill-rule="evenodd" clip-rule="evenodd" d="M56.9677 87.2318L62.4272 85.8206L62.4458 85.8802L56.9865 87.2915C56.9801 87.2715 56.9737 87.2518 56.9677 87.2318Z" fill="#EF9225"/>
<path fill-rule="evenodd" clip-rule="evenodd" d="M56.9548 87.19L62.4153 85.7827L62.4327 85.8375L56.9728 87.2488L56.9548 87.19Z" fill="#EF9125"/>
<path fill-rule="evenodd" clip-rule="evenodd" d="M56.9434 87.1509L62.4014 85.74L62.4206 85.7997L56.961 87.2109C56.9549 87.1909 56.9491 87.1709 56.9434 87.1509Z" fill="#EF9125"/>
<path fill-rule="evenodd" clip-rule="evenodd" d="M56.9326 87.113L62.3891 85.7026L62.4083 85.7611L56.9494 87.172L56.9326 87.113Z" fill="#EE9024"/>
<path fill-rule="evenodd" clip-rule="evenodd" d="M56.9219 87.0738L62.3759 85.6638L62.3958 85.7235L56.9383 87.1341C56.9328 87.1138 56.9274 87.0938 56.9219 87.0738Z" fill="#EE8F24"/>
<path fill-rule="evenodd" clip-rule="evenodd" d="M56.9113 87.0312L62.362 85.6221L62.3708 85.6478L62.3818 85.6805L56.9268 87.0918C56.9213 87.0715 56.9161 87.0515 56.9113 87.0312Z" fill="#EE8F24"/>
<path fill-rule="evenodd" clip-rule="evenodd" d="M56.9019 86.9926L62.3489 85.5835L62.369 85.6429L56.9165 87.0523C56.9116 87.0323 56.9067 87.0123 56.9019 86.9926Z" fill="#EE8E24"/>
<path fill-rule="evenodd" clip-rule="evenodd" d="M56.8929 86.9531L62.3358 85.5461L62.3562 85.6055L56.907 87.014C56.9021 86.9937 56.8975 86.9734 56.8929 86.9531Z" fill="#EE8E24"/>
<path fill-rule="evenodd" clip-rule="evenodd" d="M56.8845 86.9143L62.3225 85.5085L62.3429 85.5667L56.8967 86.9704C56.8927 86.9516 56.8885 86.9331 56.8845 86.9143Z" fill="#EE8E24"/>
<path fill-rule="evenodd" clip-rule="evenodd" d="M56.8756 86.8703L62.3074 85.4661L62.3285 85.5254L56.8881 86.9315C56.8838 86.9112 56.8796 86.8906 56.8756 86.8703Z" fill="#EE8D24"/>
<path fill-rule="evenodd" clip-rule="evenodd" d="M56.8683 86.8314L62.2937 85.429L62.3147 85.4871L56.8802 86.8929C56.8759 86.8726 56.8722 86.852 56.8683 86.8314Z" fill="#EE8B23"/>
<path fill-rule="evenodd" clip-rule="evenodd" d="M56.8613 86.791L62.2795 85.3906L62.3014 85.4494L56.8723 86.8528C56.8686 86.8322 56.865 86.8116 56.8613 86.791Z" fill="#EE8B23"/>
<path fill-rule="evenodd" clip-rule="evenodd" d="M56.8552 86.752L62.2657 85.3535L62.2877 85.4123L56.8647 86.8099C56.8613 86.7905 56.8583 86.7711 56.8552 86.752Z" fill="#EE8B23"/>
<path fill-rule="evenodd" clip-rule="evenodd" d="M56.8489 86.7085L62.2496 85.3115L62.2719 85.3703L56.858 86.7697C56.8547 86.7494 56.8516 86.7291 56.8489 86.7085Z" fill="#ED8A24"/>
<path fill-rule="evenodd" clip-rule="evenodd" d="M56.8436 86.6678L62.2353 85.2742L62.2578 85.3329L56.8519 86.7302C56.8488 86.7093 56.8461 86.6887 56.8436 86.6678Z" fill="#EE8824"/>
<path fill-rule="evenodd" clip-rule="evenodd" d="M56.8387 86.6281L62.2206 85.2368L62.2432 85.2947L56.8464 86.6896C56.8436 86.6693 56.8412 86.6487 56.8387 86.6281Z" fill="#EE8824"/>
<path fill-rule="evenodd" clip-rule="evenodd" d="M56.8348 86.5872L62.2055 85.199L62.2286 85.2574L56.8409 86.646C56.8388 86.6266 56.8367 86.6069 56.8348 86.5872Z" fill="#EE8724"/>
<path fill-rule="evenodd" clip-rule="evenodd" d="M56.8308 86.5431L62.1889 85.158L62.2121 85.2155L56.8366 86.6061C56.8345 86.5852 56.8323 86.5644 56.8308 86.5431Z" fill="#EE8724"/>
<path fill-rule="evenodd" clip-rule="evenodd" d="M56.8278 86.5017L62.1734 85.1199L62.1972 85.1783L56.8326 86.565C56.8308 86.5441 56.8293 86.5229 56.8278 86.5017Z" fill="#EE8724"/>
<path fill-rule="evenodd" clip-rule="evenodd" d="M56.8254 86.4615L62.1583 85.083L62.1823 85.1415L56.8294 86.5251C56.8279 86.5039 56.8267 86.4827 56.8254 86.4615Z" fill="#EE8524"/>
<path fill-rule="evenodd" clip-rule="evenodd" d="M56.8232 86.417L62.1424 85.0452L62.1652 85.0997L56.8263 86.4797C56.8251 86.4588 56.8242 86.4379 56.8232 86.417Z" fill="#EE8424"/>
<path fill-rule="evenodd" clip-rule="evenodd" d="M56.822 86.3753L62.125 85.0046L62.1497 85.0628L56.8242 86.4392C56.8232 86.418 56.8226 86.3968 56.822 86.3753Z" fill="#EE8424"/>
<path fill-rule="evenodd" clip-rule="evenodd" d="M56.821 86.3345L62.1091 84.9675L62.1338 85.0248L56.8226 86.3975C56.822 86.3766 56.8213 86.3557 56.821 86.3345Z" fill="#EE8424"/>
<path fill-rule="evenodd" clip-rule="evenodd" d="M56.821 86.2924L62.0927 84.9299L62.1179 84.9878L56.8213 86.3569L56.821 86.3172V86.2924Z" fill="#ED8225"/>
<path fill-rule="evenodd" clip-rule="evenodd" d="M56.8214 86.2474L62.0765 84.8931L62.1 84.9464L56.821 86.3119C56.8207 86.2907 56.821 86.2692 56.8214 86.2474Z" fill="#ED8225"/>
<path fill-rule="evenodd" clip-rule="evenodd" d="M56.8223 86.2054L62.0579 84.8521L62.0838 84.9099L56.821 86.2703C56.8213 86.2488 56.8217 86.2269 56.8223 86.2054Z" fill="#ED8224"/>
<path fill-rule="evenodd" clip-rule="evenodd" d="M56.8235 86.1637L62.0415 84.8152L62.0674 84.873L56.8217 86.2288L56.8235 86.1637Z" fill="#ED8124"/>
<path fill-rule="evenodd" clip-rule="evenodd" d="M56.8254 86.1227L62.0242 84.7778L62.0507 84.8357L56.823 86.187C56.8236 86.1654 56.8245 86.1442 56.8254 86.1227Z" fill="#ED8025"/>
<path fill-rule="evenodd" clip-rule="evenodd" d="M56.8281 86.0756L62.0071 84.741L62.032 84.7949L56.8247 86.141L56.8281 86.0756Z" fill="#ED8025"/>
<path fill-rule="evenodd" clip-rule="evenodd" d="M56.8312 86.0338L61.9886 84.7007L62.0148 84.7573L56.8269 86.0986C56.8281 86.0771 56.8296 86.0556 56.8312 86.0338Z" fill="#ED7F24"/>
<path fill-rule="evenodd" clip-rule="evenodd" d="M56.8345 85.9912L61.9706 84.6636L61.998 84.7211L56.8293 86.0569C56.8309 86.0351 56.8327 86.0133 56.8345 85.9912Z" fill="#ED7E25"/>
<path fill-rule="evenodd" clip-rule="evenodd" d="M56.8381 85.9494L61.9531 84.6272L61.9802 84.6835L56.8323 86.0154C56.8341 85.9933 56.8359 85.9715 56.8381 85.9494Z" fill="#ED7E25"/>
<path fill-rule="evenodd" clip-rule="evenodd" d="M56.8428 85.9018L61.9332 84.5859L61.9612 84.6432L56.8364 85.9681L56.8428 85.9018Z" fill="#ED7D25"/>
<path fill-rule="evenodd" clip-rule="evenodd" d="M56.8473 85.8596L61.9155 84.5496L61.9435 84.6071L56.8403 85.926C56.8425 85.9039 56.8449 85.882 56.8473 85.8596Z" fill="#EC7C24"/>
<path fill-rule="evenodd" clip-rule="evenodd" d="M56.8522 85.8176L61.8968 84.5127L61.9252 84.5699L56.8448 85.883L56.8522 85.8176Z" fill="#EC7C24"/>
<path fill-rule="evenodd" clip-rule="evenodd" d="M56.8577 85.7743L61.8786 84.4763L61.9073 84.5333L56.8501 85.8367L56.8577 85.7743Z" fill="#EC7B24"/>
<path fill-rule="evenodd" clip-rule="evenodd" d="M56.8641 85.7273L61.8582 84.4363L61.8868 84.4926L56.8552 85.793L56.8641 85.7273Z" fill="#EC7A24"/>
<path fill-rule="evenodd" clip-rule="evenodd" d="M56.8706 85.6835L61.8394 84.3992L61.8687 84.4561L56.8608 85.7504L56.8706 85.6835Z" fill="#EC7925"/>
<path fill-rule="evenodd" clip-rule="evenodd" d="M56.8768 85.6412L61.8203 84.3633L61.8495 84.4193L56.8667 85.7082L56.8768 85.6412Z" fill="#EC7925"/>
<path fill-rule="evenodd" clip-rule="evenodd" d="M56.8838 85.5974L61.8009 84.3264L61.8307 84.3831L56.8738 85.6607L56.8838 85.5974Z" fill="#EC7825"/>
<path fill-rule="evenodd" clip-rule="evenodd" d="M56.8918 85.55L61.7799 84.2866L61.81 84.3433L56.8805 85.6176L56.8918 85.55Z" fill="#EC7725"/>
<path fill-rule="evenodd" clip-rule="evenodd" d="M56.8993 85.5074L61.76 84.2498L61.7904 84.3067L56.8877 85.5738L56.8993 85.5074Z" fill="#EC7725"/>
<path fill-rule="evenodd" clip-rule="evenodd" d="M56.9073 85.4631L61.7406 84.2139L61.7714 84.2705L56.8951 85.5309L56.9073 85.4631Z" fill="#EC7625"/>
<path fill-rule="evenodd" clip-rule="evenodd" d="M56.9154 85.4204L61.721 84.1782L61.7512 84.2337L56.9036 85.4828L56.9154 85.4204Z" fill="#EC7525"/>
<path fill-rule="evenodd" clip-rule="evenodd" d="M56.925 85.3714L61.6985 84.1377L61.7299 84.194L56.9119 85.4396L56.925 85.3714Z" fill="#EB7524"/>
<path fill-rule="evenodd" clip-rule="evenodd" d="M56.9339 85.3285L61.6785 84.1021L61.7096 84.1575L56.9202 85.3967L56.9339 85.3285Z" fill="#EB7424"/>
<path fill-rule="evenodd" clip-rule="evenodd" d="M56.943 85.285L61.6581 84.0652L61.6897 84.1215L56.929 85.3522L56.943 85.285Z" fill="#EB7325"/>
<path fill-rule="evenodd" clip-rule="evenodd" d="M56.9536 85.2366L61.6373 84.0295L61.6675 84.0822L56.939 85.3045L56.9536 85.2366Z" fill="#EB7325"/>
<path fill-rule="evenodd" clip-rule="evenodd" d="M56.9634 85.1926L61.6145 83.9895L61.6468 84.0455L56.9485 85.2599L56.9634 85.1926Z" fill="#EB7224"/>
<path fill-rule="evenodd" clip-rule="evenodd" d="M56.9737 85.148L61.5935 83.9536L61.6264 84.0099L56.9579 85.2164L56.9737 85.148Z" fill="#EB7124"/>
<path fill-rule="evenodd" clip-rule="evenodd" d="M56.984 85.1044L61.5727 83.9182L61.605 83.9733L56.9679 85.1719L56.984 85.1044Z" fill="#EB7024"/>
<path fill-rule="evenodd" clip-rule="evenodd" d="M56.9957 85.0557L61.5509 83.8816L61.5822 83.9343L56.9792 85.1238L56.9957 85.0557Z" fill="#EB7024"/>
<path fill-rule="evenodd" clip-rule="evenodd" d="M57.0069 85.0116L61.5277 83.843L61.5606 83.8981L56.9899 85.0804L57.0069 85.0116Z" fill="#EB6F24"/>
<path fill-rule="evenodd" clip-rule="evenodd" d="M57.0178 84.9674L61.5056 83.8064L61.5395 83.8621L57.0007 85.0353L57.0178 84.9674Z" fill="#EB6E24"/>
<path fill-rule="evenodd" clip-rule="evenodd" d="M57.0294 84.9226L61.484 83.771L61.5181 83.8267L57.0117 84.9917L57.0294 84.9226Z" fill="#EA6E24"/>
<path fill-rule="evenodd" clip-rule="evenodd" d="M57.0423 84.8748L61.4622 83.7356L61.4939 83.7871L57.0243 84.9424L57.0423 84.8748Z" fill="#EA6D24"/>
<path fill-rule="evenodd" clip-rule="evenodd" d="M57.0548 84.8289L61.4375 83.696L61.4723 83.7518L57.0359 84.8986L57.0548 84.8289Z" fill="#EA6C24"/>
<path fill-rule="evenodd" clip-rule="evenodd" d="M57.067 84.785L61.4156 83.6609L61.4497 83.7157L57.0481 84.8534L57.067 84.785Z" fill="#EA6C24"/>
<path fill-rule="evenodd" clip-rule="evenodd" d="M57.0797 84.7398L61.3927 83.6248L61.4278 83.6802L57.0599 84.8094L57.0797 84.7398Z" fill="#EA6B24"/>
<path fill-rule="evenodd" clip-rule="evenodd" d="M57.0937 84.6912L61.368 83.5862L61.4028 83.6407L57.0736 84.7606L57.0937 84.6912Z" fill="#EA6A24"/>
<path fill-rule="evenodd" clip-rule="evenodd" d="M57.1065 84.6463L61.3445 83.55L61.3802 83.6052L57.0867 84.715L57.1065 84.6463Z" fill="#EA6A24"/>
<path fill-rule="evenodd" clip-rule="evenodd" d="M57.1199 84.6014L61.3217 83.5151L61.3577 83.5703L57.0995 84.671L57.1199 84.6014Z" fill="#EA6924"/>
<path fill-rule="evenodd" clip-rule="evenodd" d="M57.1333 84.5568L61.2988 83.48L61.3342 83.5339L57.1138 84.6216L57.1333 84.5568Z" fill="#EA6924"/>
<path fill-rule="evenodd" clip-rule="evenodd" d="M57.1489 84.5066L61.2727 83.4407L61.3093 83.4958L57.1276 84.5769L57.1489 84.5066Z" fill="#EA6823"/>
<path fill-rule="evenodd" clip-rule="evenodd" d="M57.1629 84.462L61.2496 83.4058L61.2855 83.46L57.1416 84.5311L57.1629 84.462Z" fill="#E96824"/>
<path fill-rule="evenodd" clip-rule="evenodd" d="M57.1775 84.4161L61.2255 83.3699L61.2624 83.4247L57.1553 84.4864L57.1775 84.4161Z" fill="#E86724"/>
<path fill-rule="evenodd" clip-rule="evenodd" d="M57.1917 84.3718L61.2016 83.3352L61.2382 83.3888L57.1704 84.4381L57.1917 84.3718Z" fill="#E86623"/>
<path fill-rule="evenodd" clip-rule="evenodd" d="M57.208 84.3224L61.1749 83.2961L61.2124 83.3507L57.1854 84.3918L57.208 84.3224Z" fill="#E86623"/>
<path fill-rule="evenodd" clip-rule="evenodd" d="M57.2232 84.2768L61.1508 83.2615L61.1886 83.3163L57.1997 84.3474L57.2232 84.2768Z" fill="#E86523"/>
<path fill-rule="evenodd" clip-rule="evenodd" d="M57.2382 84.2319L61.1269 83.2266L61.1644 83.2805L57.2151 84.3013L57.2382 84.2319Z" fill="#E86423"/>
<path fill-rule="evenodd" clip-rule="evenodd" d="M57.254 84.1859L61.1019 83.1912L61.14 83.2454L57.2312 84.2529L57.254 84.1859Z" fill="#E86423"/>
<path fill-rule="evenodd" clip-rule="evenodd" d="M57.2709 84.1361L61.0746 83.1528L61.1127 83.2064L57.2468 84.2057L57.2709 84.1361Z" fill="#E86323"/>
<path fill-rule="evenodd" clip-rule="evenodd" d="M57.2874 84.0898L61.0494 83.1174L61.0881 83.172L57.2625 84.1609L57.2737 84.1285L57.2874 84.0898Z" fill="#E86223"/>
<path fill-rule="evenodd" clip-rule="evenodd" d="M57.3036 84.045L61.0247 83.083L61.0631 83.1366L57.2783 84.1159L57.3036 84.045Z" fill="#E86223"/>
<path fill-rule="evenodd" clip-rule="evenodd" d="M57.3214 83.9958L60.9989 83.0471L61.0358 83.0983L57.2964 84.0649L57.3214 83.9958Z" fill="#E66123"/>
<path fill-rule="evenodd" clip-rule="evenodd" d="M57.3384 83.9488L60.9712 83.0098L61.0108 83.064L57.3125 84.02L57.3384 83.9488Z" fill="#E76023"/>
<path fill-rule="evenodd" clip-rule="evenodd" d="M57.3548 83.9034L60.9459 82.9753L60.9852 83.0287L57.3292 83.9737L57.3548 83.9034Z" fill="#E76023"/>
<path fill-rule="evenodd" clip-rule="evenodd" d="M57.3719 83.8571L60.9197 82.9399L60.9599 82.9942L57.3457 83.9286L57.3719 83.8571Z" fill="#E76023"/>
<path fill-rule="evenodd" clip-rule="evenodd" d="M57.3895 83.8085L60.8938 82.9055L60.9313 82.9555L57.3643 83.8775L57.3895 83.8085Z" fill="#E75F23"/>
<path fill-rule="evenodd" clip-rule="evenodd" d="M57.4069 83.7606L60.8648 82.8667L60.9056 82.9209L57.381 83.8321L57.4069 83.7606Z" fill="#E75E23"/>
<path fill-rule="evenodd" clip-rule="evenodd" d="M57.4234 83.7157L60.839 82.833L60.8792 82.886L57.3975 83.7869L57.4234 83.7157Z" fill="#E75E23"/>
<path fill-rule="evenodd" clip-rule="evenodd" d="M57.4398 83.6705L60.8124 82.7979L60.8533 82.8518L57.4142 83.7408L57.4398 83.6705Z" fill="#E75D24"/>
<path fill-rule="evenodd" clip-rule="evenodd" d="M57.4574 83.6208L60.7856 82.7629L60.8246 82.8138L57.4321 83.6907L57.4574 83.6208Z" fill="#E85C24"/>
<path fill-rule="evenodd" clip-rule="evenodd" d="M57.4735 83.5748L60.7566 82.7261L60.7978 82.7791L57.4489 83.6445L57.4735 83.5748Z" fill="#E85C24"/>
<path fill-rule="evenodd" clip-rule="evenodd" d="M57.4895 83.5287L60.7294 82.6912L60.7714 82.7448L57.4648 83.5996L57.4895 83.5287Z" fill="#E75B24"/>
<path fill-rule="evenodd" clip-rule="evenodd" d="M57.5044 83.4839L60.7028 82.6572L60.7443 82.7099L57.481 83.5532L57.5044 83.4839Z" fill="#E75A24"/>
<path fill-rule="evenodd" clip-rule="evenodd" d="M57.5207 83.4334L60.6722 82.6189L60.7146 82.6725L57.4976 83.504L57.5207 83.4334Z" fill="#E75925"/>
<path fill-rule="evenodd" clip-rule="evenodd" d="M57.5348 83.3889L60.6452 82.585L60.6872 82.6377L57.5126 83.4588C57.5205 83.4355 57.5278 83.4122 57.5348 83.3889Z" fill="#E75925"/>
<path fill-rule="evenodd" clip-rule="evenodd" d="M57.5485 83.3445L60.6175 82.5505L60.6602 82.6038L57.5272 83.4135C57.5345 83.3905 57.5415 83.3672 57.5485 83.3445Z" fill="#E75925"/>
<path fill-rule="evenodd" clip-rule="evenodd" d="M57.5616 83.2991L60.5898 82.5164L60.6324 82.5691L57.5421 83.3654C57.5488 83.3433 57.5552 83.3212 57.5616 83.2991Z" fill="#E75825"/>
<path fill-rule="evenodd" clip-rule="evenodd" d="M57.5747 83.2505L60.5593 82.479L60.6019 82.5314L57.5558 83.319C57.5625 83.2962 57.5686 83.2732 57.5747 83.2505Z" fill="#E75825"/>
<path fill-rule="evenodd" clip-rule="evenodd" d="M57.5863 83.2055L60.531 82.4443L60.5746 82.4976L57.5684 83.2749C57.5745 83.2516 57.5805 83.2286 57.5863 83.2055Z" fill="#E75725"/>
<path fill-rule="evenodd" clip-rule="evenodd" d="M57.5966 83.1619L60.5032 82.4106L60.5465 82.463L57.5798 83.2303C57.5859 83.2076 57.5914 83.1846 57.5966 83.1619Z" fill="#E75625"/>
<path fill-rule="evenodd" clip-rule="evenodd" d="M57.6064 83.1174L60.4743 82.3762L60.5179 82.4286L57.5918 83.1829C57.597 83.161 57.6018 83.1392 57.6064 83.1174Z" fill="#E75625"/>
<path fill-rule="evenodd" clip-rule="evenodd" d="M57.6158 83.0698L60.4435 82.3389L60.4684 82.3692L60.487 82.3913L57.6021 83.1376C57.6069 83.1149 57.6115 83.0925 57.6158 83.0698Z" fill="#E75525"/>
<path fill-rule="evenodd" clip-rule="evenodd" d="M57.6234 83.0268L60.4146 82.3047L60.4587 82.3577L57.6112 83.0935C57.6158 83.0713 57.6197 83.0489 57.6234 83.0268Z" fill="#E65425"/>
<path fill-rule="evenodd" clip-rule="evenodd" d="M57.6301 82.9834L60.3862 82.271L60.4307 82.324L57.6191 83.051C57.6234 83.0283 57.6268 83.0058 57.6301 82.9834Z" fill="#E65425"/>
<path fill-rule="evenodd" clip-rule="evenodd" d="M57.6356 82.941L60.3579 82.2373L60.4012 82.2885L57.6271 83.0037C57.6301 82.9828 57.6332 82.9619 57.6356 82.941Z" fill="#E65325"/>
<path fill-rule="evenodd" clip-rule="evenodd" d="M57.6405 82.8937L60.3253 82.1997L60.3704 82.2524L57.6332 82.96C57.6362 82.9379 57.6387 82.9158 57.6405 82.8937Z" fill="#E65225"/>
<path fill-rule="evenodd" clip-rule="evenodd" d="M57.6438 82.8518L60.2967 82.166L60.3414 82.2181L57.6383 82.9175C57.6404 82.8957 57.6423 82.8736 57.6438 82.8518Z" fill="#E65125"/>
<path fill-rule="evenodd" clip-rule="evenodd" d="M57.6463 82.8091L60.2669 82.1318L60.3126 82.1845L57.6423 82.8749C57.6439 82.8531 57.6454 82.8313 57.6463 82.8091Z" fill="#E65125"/>
<path fill-rule="evenodd" clip-rule="evenodd" d="M57.6475 82.765L60.2373 82.0974L60.2806 82.1474L57.6454 82.8286C57.6463 82.8074 57.6472 82.7862 57.6475 82.765Z" fill="#E65025"/>
<path fill-rule="evenodd" clip-rule="evenodd" d="M57.6475 82.7223L60.205 82.0608L60.251 82.1132L57.6469 82.7863C57.6475 82.765 57.6478 82.7435 57.6475 82.7223Z" fill="#E64F25"/>
<path fill-rule="evenodd" clip-rule="evenodd" d="M57.6462 82.681L60.1754 82.0273L60.2217 82.08L57.6475 82.7452C57.6478 82.724 57.6472 82.7028 57.6462 82.681Z" fill="#E64F25"/>
<path fill-rule="evenodd" clip-rule="evenodd" d="M57.6442 82.6406L60.1459 81.9939L60.1916 82.0457L57.6469 82.7033C57.6466 82.6827 57.6457 82.6618 57.6442 82.6406Z" fill="#E64F25"/>
<path fill-rule="evenodd" clip-rule="evenodd" d="M57.6409 82.5966L60.1149 81.959L60.1591 82.009L57.6454 82.6587C57.6442 82.6381 57.6427 82.6175 57.6409 82.5966Z" fill="#E64E25"/>
<path fill-rule="evenodd" clip-rule="evenodd" d="M57.6362 82.5555L60.0826 81.9233L60.1292 81.9751L57.6426 82.6182C57.6411 82.5973 57.639 82.5764 57.6362 82.5555Z" fill="#E64E25"/>
<path fill-rule="evenodd" clip-rule="evenodd" d="M57.6311 82.515L60.0522 81.8892L60.0991 81.9416L57.639 82.5774C57.6366 82.5568 57.6341 82.5359 57.6311 82.515Z" fill="#E54D25"/>
<path fill-rule="evenodd" clip-rule="evenodd" d="M57.6248 82.4757L60.0221 81.856L60.0693 81.9081L57.6342 82.5378C57.6321 82.5202 57.6293 82.5027 57.6263 82.4848L57.6248 82.4757Z" fill="#E54C25"/>
<path fill-rule="evenodd" clip-rule="evenodd" d="M57.6171 82.4335L59.9906 81.821L60.0357 81.8707L57.6277 82.4932L57.6262 82.4847C57.6235 82.4678 57.6204 82.4508 57.6171 82.4335Z" fill="#E54C25"/>
<path fill-rule="evenodd" clip-rule="evenodd" d="M57.6082 82.393L59.9579 81.7856L60.0055 81.8377L57.6206 82.4542C57.617 82.4339 57.6127 82.4136 57.6082 82.393Z" fill="#E54B25"/>
<path fill-rule="evenodd" clip-rule="evenodd" d="M57.5996 82.3543L59.9278 81.7527L59.9744 81.8039L57.6127 82.4142C57.6087 82.3945 57.6042 82.3746 57.5996 82.3543Z" fill="#E54A25"/>
<path fill-rule="evenodd" clip-rule="evenodd" d="M57.5896 82.3146L59.8964 81.7185L59.9443 81.7706L57.6045 82.3755C57.6 82.3552 57.5948 82.3349 57.5896 82.3146Z" fill="#E54925"/>
<path fill-rule="evenodd" clip-rule="evenodd" d="M57.5784 82.2726L59.863 81.6819L59.9105 81.7334L57.5942 82.3325C57.5893 82.3128 57.5839 82.2925 57.5784 82.2726Z" fill="#E54925"/>
<path fill-rule="evenodd" clip-rule="evenodd" d="M57.5671 82.2335L59.8319 81.6479L59.8798 81.7L57.5842 82.2934C57.5787 82.2738 57.5732 82.2535 57.5671 82.2335Z" fill="#E54825"/>
<path fill-rule="evenodd" clip-rule="evenodd" d="M57.5554 82.1954L59.8013 81.615L59.8495 81.6671L57.5734 82.2553C57.5676 82.2356 57.5618 82.2157 57.5554 82.1954Z" fill="#E44725"/>
<path fill-rule="evenodd" clip-rule="evenodd" d="M57.5437 82.1571L59.7704 81.5813L59.8173 81.6322L57.5614 82.2138L57.5437 82.1571Z" fill="#E44725"/>
<path fill-rule="evenodd" clip-rule="evenodd" d="M57.53 82.115L59.7366 81.5447L59.7848 81.5968L57.5492 82.1747C57.5431 82.1547 57.5367 82.135 57.53 82.115Z" fill="#E44725"/>
<path fill-rule="evenodd" clip-rule="evenodd" d="M57.5171 82.0775L59.706 81.5117L59.7532 81.5629L57.5366 82.136L57.5171 82.0775Z" fill="#E44625"/>
<path fill-rule="evenodd" clip-rule="evenodd" d="M57.5034 82.0391L59.6747 81.4778L59.7228 81.5299L57.5241 82.0981L57.5034 82.0391Z" fill="#E44625"/>
<path fill-rule="evenodd" clip-rule="evenodd" d="M57.49 82.0016L59.6442 81.4448L59.6908 81.4954L57.5101 82.0576L57.49 82.0016Z" fill="#E44525"/>
<path fill-rule="evenodd" clip-rule="evenodd" d="M57.4745 81.9594L59.6098 81.4075L59.6579 81.4596L57.4961 82.0181L57.4745 81.9594Z" fill="#E44425"/>
<path fill-rule="evenodd" clip-rule="evenodd" d="M57.4607 81.9222L59.5793 81.3743L59.6274 81.4267L57.4823 81.981L57.4607 81.9222Z" fill="#E34324"/>
<path fill-rule="evenodd" clip-rule="evenodd" d="M57.4465 81.8846L59.5487 81.3406L59.5962 81.3927L57.4685 81.9424L57.4465 81.8846Z" fill="#E34324"/>
<path fill-rule="evenodd" clip-rule="evenodd" d="M57.4319 81.8466L59.5182 81.3071L59.5651 81.3583L57.4535 81.9026L57.4319 81.8466Z" fill="#E34225"/>
<path fill-rule="evenodd" clip-rule="evenodd" d="M57.4158 81.8057L59.485 81.2708L59.5319 81.3222L57.4383 81.8635L57.4158 81.8057Z" fill="#E34224"/>
<path fill-rule="evenodd" clip-rule="evenodd" d="M57.4006 81.7673L59.454 81.2366L59.5015 81.289L57.4238 81.826L57.4006 81.7673Z" fill="#E34224"/>
<path fill-rule="evenodd" clip-rule="evenodd" d="M57.3861 81.7304L59.4243 81.2036L59.4709 81.2551L57.409 81.7885L57.3861 81.7304Z" fill="#E34124"/>
<path fill-rule="evenodd" clip-rule="evenodd" d="M57.3696 81.6898L59.3926 81.1682L59.4376 81.2185L57.3925 81.7471L57.3696 81.6898Z" fill="#E34025"/>
<path fill-rule="evenodd" clip-rule="evenodd" d="M57.3545 81.6514L59.361 81.1328L59.4079 81.1852L57.3779 81.7099L57.3545 81.6514Z" fill="#E34025"/>
<path fill-rule="evenodd" clip-rule="evenodd" d="M57.3396 81.6141L59.3308 81.0989L59.3775 81.1513L57.3628 81.672L57.3396 81.6141Z" fill="#E33F25"/>
<path fill-rule="evenodd" clip-rule="evenodd" d="M57.3242 81.5762L59.3012 81.0652L59.3474 81.1179L57.3477 81.6347L57.3242 81.5762Z" fill="#E33E25"/>
<path fill-rule="evenodd" clip-rule="evenodd" d="M57.3085 81.5364L59.2711 81.0305L59.3143 81.0799L57.331 81.5927L57.3085 81.5364Z" fill="#E33E25"/>
<path fill-rule="evenodd" clip-rule="evenodd" d="M57.2927 81.4973L59.2392 80.9941L59.2852 81.0468L57.3162 81.556L57.2927 81.4973Z" fill="#E33D25"/>
<path fill-rule="evenodd" clip-rule="evenodd" d="M57.2781 81.4602L59.2105 80.9607L59.2556 81.0128L57.3012 81.5183L57.2781 81.4602Z" fill="#E33C25"/>
<path fill-rule="evenodd" clip-rule="evenodd" d="M57.2631 81.4229L59.1812 80.9268L59.2263 80.9792L57.2859 81.4808L57.2631 81.4229Z" fill="#E23B25"/>
<path fill-rule="evenodd" clip-rule="evenodd" d="M57.2468 81.3823L59.1513 80.8916L59.1945 80.9422L57.2697 81.4399L57.2468 81.3823Z" fill="#E23B25"/>
<path fill-rule="evenodd" clip-rule="evenodd" d="M57.2317 81.3439L59.1206 80.855L59.1651 80.9077L57.2545 81.4017L57.2317 81.3439Z" fill="#E23A25"/>
<path fill-rule="evenodd" clip-rule="evenodd" d="M57.217 81.3062L59.0922 80.8213L59.1367 80.8746L57.2399 81.3647L57.217 81.3062Z" fill="#E23925"/>
<path fill-rule="evenodd" clip-rule="evenodd" d="M57.2028 81.2687L59.0642 80.7874L59.1078 80.8398L57.225 81.3265L57.2028 81.2687Z" fill="#E23925"/>
<path fill-rule="evenodd" clip-rule="evenodd" d="M59.0767 80.8027L57.2091 81.2855C57.0986 80.9996 56.9865 80.6821 56.8993 80.3223C56.6687 79.3697 56.6078 78.125 56.9517 78.138C57.2953 78.1508 58.0441 79.4296 58.6752 80.2881C58.8138 80.4771 58.9466 80.6461 59.0767 80.8027Z" fill="#E33926"/>
<path fill-rule="evenodd" clip-rule="evenodd" d="M16.4143 46.6301L48.2941 48.1495V48.7329L16.4143 47.6815V46.6301Z" fill="#856F67"/>
<path fill-rule="evenodd" clip-rule="evenodd" d="M28.6064 51.5912L48.3374 48.3726L48.416 48.7373L28.7499 52.2434L28.6064 51.5912Z" fill="#856F67"/>
<path fill-rule="evenodd" clip-rule="evenodd" d="M34.635 53.9515L48.416 48.6216L48.5378 48.8875L34.8571 54.428L34.635 53.9515Z" fill="#856F67"/>
<path fill-rule="evenodd" clip-rule="evenodd" d="M62.5752 18.9547C63.4851 18.6799 69.4135 18.7832 70.345 18.9032C81.9711 20.3922 91.6998 24.0229 88.4091 35.7084C84.9006 48.1794 71.7596 67.0659 60.1289 53.5308C60.0375 53.4233 60.0202 53.2388 59.9943 53.0413C69.7878 63.7442 85.0748 45.6989 87.1815 35.6827C90.8901 18.0965 58.993 20.0533 62.5752 18.9547Z" fill="#856F67"/>
<path fill-rule="evenodd" clip-rule="evenodd" d="M57.6524 18.9506C56.7428 18.6759 50.8141 18.7789 49.8826 18.8991C38.2565 20.3882 28.5281 24.0188 31.8188 35.7044C35.3271 48.1753 48.468 67.0619 60.0987 53.5265C60.1901 53.4193 60.2075 53.2348 60.2334 53.0373C50.4398 63.7402 35.1528 45.6948 33.0461 35.6829C29.3378 18.0925 61.2346 20.0493 57.6524 18.9506Z" fill="#856F67"/>
<path fill-rule="evenodd" clip-rule="evenodd" d="M60.0988 46.3513C62.9238 46.3513 65.2087 47.1195 65.2087 48.0724C65.2087 49.0208 63.0411 54.252 60.0988 54.252C57.1563 54.252 54.9844 49.0208 54.9844 48.0724C54.9844 47.1195 57.2738 46.3513 60.0988 46.3513Z" fill="#856F67"/>
<path fill-rule="evenodd" clip-rule="evenodd" d="M31.2093 20.4355C30.7393 19.3798 30.2693 16.2384 30.3911 13.9896C30.6914 8.47519 32.7981 3.06801 40.485 0.14981C42.7486 -0.712565 44.5507 2.38163 45.0207 3.48451C45.6299 4.9006 48.355 11.6939 48.3157 12.8398C48.1241 18.0364 43.5668 1.11123 40.955 2.07236C31.2745 5.63878 31.5575 13.8781 35.5186 20.1438C34.4957 20.6672 31.6793 21.4868 31.2093 20.4355Z" fill="#856F67"/>
<path fill-rule="evenodd" clip-rule="evenodd" d="M36.3804 88.0853C30.9437 78.365 49.7739 72.1254 50.6314 69.4777C50.6707 69.3575 50.6445 69.276 50.6183 69.1557C48.8859 69.6022 42.4614 73.4173 41.1293 74.4687C36.1148 78.4295 31.0308 84.1887 36.0365 90.0293C44.085 99.4319 48.4245 97.389 53.2995 100.346C55.0495 101.406 55.0799 104.109 54.0832 104.818C45.6299 110.864 20.1184 91.9131 24.1058 78.8115C24.8411 76.3825 41.125 61.7103 45.4341 55.2045C45.8608 54.565 45.8258 54.0586 44.8638 54.2476C38.9833 60.8219 32.4585 69.525 25.2764 75.1209C17.1064 81.4807 26.1905 95.8185 38.8267 103.457C48.9642 109.585 59.1977 105.697 54.8667 101.015C54.2965 100.402 56.3553 99.9853 52.7076 98.9381C47.8847 97.5608 40.2587 95.033 36.8982 88.9692C36.7331 88.669 36.5501 88.3858 36.3804 88.0853Z" fill="#856F67"/>
<path fill-rule="evenodd" clip-rule="evenodd" d="M50.0349 101.483C49.5171 101.664 49.8132 101.848 50.4922 101.943C51.1669 102.037 52.2202 102.05 53.0473 102.015C53.8697 101.981 54.4661 101.904 54.5795 101.492C54.6925 101.084 54.3269 100.346 54.0223 100.2C53.7131 100.054 53.4649 100.505 52.6729 100.818C51.8849 101.131 50.5531 101.307 50.0349 101.483Z" fill="#856F67"/>
<path fill-rule="evenodd" clip-rule="evenodd" d="M50.2396 103.912C49.7218 104.088 50.0221 104.273 50.6965 104.367C51.3713 104.466 52.4246 104.474 53.2516 104.44C54.0744 104.406 54.6708 104.328 55.0233 103.921C55.3714 103.509 55.4759 102.771 55.1713 102.625C54.8624 102.479 54.1441 102.929 53.1167 103.242C52.0895 103.556 50.7575 103.732 50.2396 103.912Z" fill="#856F67"/>
<path fill-rule="evenodd" clip-rule="evenodd" d="M88.9878 20.4355C89.4578 19.3798 89.9281 16.2384 89.8063 13.9896C89.5059 8.47519 87.3992 3.06801 79.712 0.14981C77.4442 -0.712565 75.6467 2.38163 75.1764 3.48451C74.5671 4.9006 71.8381 11.6939 71.8814 12.8398C72.073 18.0364 76.6303 1.11123 79.242 2.07236C88.9226 5.63878 88.6396 13.8781 84.6787 20.1438C85.7016 20.6672 88.5178 21.4868 88.9878 20.4355Z" fill="#856F67"/>
<path fill-rule="evenodd" clip-rule="evenodd" d="M54.6358 33.5973C54.6489 33.726 54.6577 33.859 54.6577 33.9877C54.6577 36.4767 51.8894 38.4938 48.468 38.4938C45.0512 38.4938 42.2828 36.4767 42.2828 33.9877C42.2828 33.6315 42.3392 33.2883 42.4437 32.9536C42.7178 35.2581 45.3731 37.0689 48.6118 37.0689C51.5409 37.0689 53.9918 35.5883 54.6358 33.5973Z" fill="#856F67"/>
<path fill-rule="evenodd" clip-rule="evenodd" d="M65.5612 33.5973C65.5439 33.726 65.5393 33.859 65.5393 33.9877C65.5393 36.4767 68.3079 38.4938 71.7248 38.4938C75.1462 38.4938 77.9145 36.4767 77.9145 33.9877C77.9145 33.6315 77.8578 33.2883 77.7533 32.9536C77.4792 35.2581 74.8239 37.0689 71.5855 37.0689C68.6561 37.0689 66.2009 35.5883 65.5612 33.5973Z" fill="#856F67"/>
<path fill-rule="evenodd" clip-rule="evenodd" d="M83.8167 88.0853C89.2534 78.365 70.4232 72.1254 69.5657 69.4777C69.5267 69.3575 69.5526 69.276 69.5788 69.1557C71.3111 69.6022 77.736 73.4173 79.0678 74.4687C84.0823 78.4295 89.162 84.1887 84.1606 90.0293C76.1124 99.4319 71.7726 97.389 66.8976 100.346C65.1476 101.406 65.1171 104.109 66.1141 104.818C74.5671 110.864 100.079 91.9131 96.0916 78.8115C95.356 76.3825 79.0678 61.7103 74.763 55.2045C74.3365 54.565 74.3713 54.0586 75.3332 54.2476C81.2138 60.8219 87.7385 69.525 94.9207 75.1209C103.091 81.4807 94.0065 95.8185 81.3706 103.457C71.2328 109.585 60.9994 105.697 65.3307 101.015C65.8963 100.402 63.842 99.9853 67.4895 98.9381C72.3124 97.5608 79.9383 95.033 83.2988 88.9692C83.4642 88.669 83.647 88.3858 83.8167 88.0853Z" fill="#856F67"/>
<path fill-rule="evenodd" clip-rule="evenodd" d="M70.1622 101.483C70.68 101.664 70.3843 101.848 69.7053 101.943C69.0306 102.037 67.9772 102.05 67.1502 102.015C66.3275 101.981 65.731 101.904 65.618 101.492C65.5004 101.084 65.866 100.346 66.1751 100.2C66.484 100.054 66.7323 100.505 67.52 100.818C68.3123 101.131 69.6444 101.307 70.1622 101.483Z" fill="#856F67"/>
<path fill-rule="evenodd" clip-rule="evenodd" d="M69.9575 103.912C70.4711 104.088 70.1753 104.273 69.5006 104.367C68.8259 104.466 67.7683 104.474 66.9455 104.44C66.1228 104.406 65.5266 104.328 65.1739 103.921C64.8257 103.509 64.7212 102.771 65.0259 102.625C65.335 102.479 66.0533 102.929 67.0805 103.242C68.1076 103.556 69.4397 103.732 69.9575 103.912Z" fill="#856F67"/>
<path fill-rule="evenodd" clip-rule="evenodd" d="M61.7439 54.8142C61.8789 54.9472 61.9529 55.0974 61.9529 55.2561C61.9529 55.7796 61.1259 56.2088 60.0987 56.2088C59.0713 56.2088 58.24 55.7796 58.24 55.2561C58.24 55.1189 58.3009 54.9902 58.4011 54.8699C58.6622 55.2946 59.3064 55.5951 60.0552 55.5951C60.8429 55.5951 61.5045 55.2689 61.7439 54.8142Z" fill="#856F67"/>
<path fill-rule="evenodd" clip-rule="evenodd" d="M50.949 89.8406H51.9152V98.7109L51.8674 98.6939C51.8065 98.6767 51.7498 98.6594 51.6889 98.6424C51.6673 98.6337 51.6411 98.6294 51.6194 98.6209C51.5585 98.6037 51.5018 98.5867 51.4409 98.5694L51.3757 98.5479C51.3145 98.531 51.2536 98.5095 51.1927 98.4922C51.171 98.4837 51.1491 98.4792 51.1275 98.4707C51.0708 98.4537 51.0099 98.4365 50.9532 98.4192L50.949 98.4149V89.8406ZM50.949 99.2346V99.2304L50.9532 99.2346C50.9532 99.2346 50.9532 99.2346 50.949 99.2346ZM54.6534 105.268C57.8655 106.152 63.1237 105.985 66.0836 105.05C66.3882 105.307 66.7538 105.513 67.1239 105.672C63.7549 106.788 57.1953 106.981 53.5476 105.878C53.8001 105.77 54.035 105.654 54.2528 105.53L54.2659 105.521C54.3311 105.483 54.3963 105.444 54.4572 105.406C54.466 105.397 54.4749 105.393 54.4834 105.384C54.5443 105.345 54.601 105.307 54.6534 105.268ZM68.2817 99.2946V89.8406H69.2437V99.1531C69.1434 99.1186 69.0347 99.1016 68.926 99.1016C68.7517 99.1016 68.5297 99.1704 68.2817 99.2946Z" fill="#856F67"/>
<path fill-rule="evenodd" clip-rule="evenodd" d="M62.7274 86.3557C66.3882 86.7677 69.2437 88.0896 69.2437 90.0851C69.2437 92.5141 64.9867 93.8745 60.2031 93.8745C55.4149 93.8745 50.949 92.5526 50.949 90.1193C50.949 88.2313 53.6521 86.9179 57.1037 86.4287C57.0909 86.489 57.0863 86.5532 57.0863 86.6132C57.0863 86.9179 57.2081 87.2057 57.4171 87.4544C54.2528 87.7249 52.0197 88.5188 52.0197 89.8619C52.0197 91.5484 55.7241 93.3208 60.1854 93.3208C64.6428 93.3208 68.1772 91.5484 68.1772 89.8619C68.1772 88.4973 65.7351 87.6949 62.4402 87.4416C62.6406 87.1926 62.7579 86.9137 62.7579 86.6132C62.7579 86.5275 62.7493 86.4417 62.7274 86.3557Z" fill="#856F67"/>
<path fill-rule="evenodd" clip-rule="evenodd" d="M59.8853 81.4682C61.0215 83.0088 60.708 81.9917 61.1302 82.2664C61.6831 82.6226 61.7571 83.1633 62.2183 83.7213C63.8854 85.7338 62.4666 89.4286 63.1803 89.8406C63.2631 89.8921 63.25 91.1797 62.4187 90.3386C62.3621 90.2783 62.0096 85.841 61.2521 84.8841C58.4883 81.3952 57.1867 78.816 57.191 78.9835C57.2345 79.9231 56.4295 79.198 57.9617 82.6653C58.5709 84.0345 55.7416 86.429 58.4317 88.8752C59.5066 89.8536 59.4457 90.3686 60.4382 91.3642C60.6949 91.6259 60.9344 91.8834 61.2173 92.1236C61.2304 92.1324 61.2 92.1409 61.1826 92.1493C60.4948 92.4713 60.0291 92.0809 59.5721 91.6044C59.2587 91.2739 58.9626 90.905 58.6665 90.5573C57.5306 89.2484 56.6817 88.1755 56.4423 86.4032C56.3466 85.678 56.399 85.0601 56.7036 84.3864C57.0865 83.5407 57.9224 82.9616 57.3302 82.1119C56.399 80.7858 55.8939 77.2624 57.2388 77.3826C57.4782 77.4041 57.7701 78.9962 57.8962 79.2495C58.8624 81.202 58.7494 79.9231 59.8853 81.4682Z" fill="#856F67"/>
<path fill-rule="evenodd" clip-rule="evenodd" d="M61.1606 89.8018C60.7603 89.7545 60.2815 89.0809 60.0463 88.2827C59.8069 87.4842 59.8069 86.5616 59.8069 85.9652C59.8069 85.3688 59.8069 85.094 59.8547 85.3815C59.9025 85.6647 60.0027 86.5101 60.4033 87.1583C60.7993 87.802 61.5045 88.2567 61.6961 88.7674C61.8831 89.2823 61.5611 89.8533 61.1606 89.8018Z" fill="#856F67"/>
<path fill-rule="evenodd" clip-rule="evenodd" d="M103.648 46.6301L71.7684 48.1495V48.7329L103.648 47.6815V46.6301Z" fill="#856F67"/>
<path fill-rule="evenodd" clip-rule="evenodd" d="M91.4557 51.5912L71.7248 48.3726L71.6465 48.7373L91.3122 52.2434L91.4557 51.5912Z" fill="#856F67"/>
<path fill-rule="evenodd" clip-rule="evenodd" d="M85.4229 53.9515L71.6465 48.6216L71.5247 48.8875L85.2054 54.428L85.4229 53.9515Z" fill="#856F67"/>
<path d="M1.65404 118.67L3.26453 114.744C3.83902 113.323 4.27005 112.486 4.55304 112.237C4.83602 111.984 5.18419 111.86 5.59755 111.86C6.0633 111.873 6.49859 112.083 6.90769 112.495C7.31282 112.907 7.92204 113.98 8.73597 115.722L10.5292 119.602C11.2737 121.237 11.7221 122.237 11.8701 122.605C12.0224 122.974 12.1007 123.249 12.1007 123.429C12.1007 123.773 11.9527 124.052 11.6566 124.262C11.3608 124.477 11.0126 124.584 10.6121 124.584C10.2682 124.584 9.97665 124.515 9.73723 124.378C9.49354 124.236 9.22792 123.833 8.94067 123.159L8.40516 121.923C6.92962 118.559 6.15042 116.791 6.05904 116.619C5.97192 116.447 5.8979 116.306 5.84154 116.185C5.45834 115.537 5.26674 115.207 5.26674 115.203C5.26674 115.199 5.26674 115.194 5.26674 115.194C5.25364 115.194 5.23628 115.199 5.22349 115.203C5.21039 115.207 5.00995 115.864 4.62706 117.164C4.47475 117.636 4.24385 118.353 3.93498 119.314C3.6258 120.275 3.37327 121.146 3.18198 121.923L2.85117 123.236C2.69886 123.803 2.4768 124.18 2.18955 124.361C1.9023 124.541 1.55839 124.631 1.15783 124.631C0.800825 124.631 0.51784 124.52 0.309181 124.296C0.104482 124.073 0 123.768 0 123.382C0 123.168 0.139208 122.665 0.413663 121.867C0.687814 121.073 1.10117 120.005 1.65404 118.67ZM20.0879 123.253V123.541C20.0748 123.992 19.9402 124.331 19.6877 124.562C19.4306 124.79 19.0696 124.906 18.6039 124.906C18.26 124.906 17.9812 124.837 17.7765 124.704C17.5721 124.571 17.4329 124.387 17.3632 124.15C16.9236 124.292 16.4838 124.395 16.04 124.464C15.6004 124.532 15.1913 124.566 14.8038 124.566C13.9375 124.566 13.215 124.404 12.6362 124.073C12.0572 123.738 11.7699 123.288 11.7699 122.708C11.7699 121.833 12.3444 121.061 13.4937 120.387C14.6427 119.713 16.0226 119.43 17.6331 119.537V118.928C17.6331 118.649 17.5591 118.46 17.4156 118.357C17.2718 118.258 17.0324 118.207 16.7016 118.207C16.3577 118.207 15.9964 118.254 15.6089 118.344C15.2218 118.434 14.7819 118.58 14.2857 118.782C13.7505 119.009 13.3152 119.057 12.9756 118.928C12.6405 118.799 12.4708 118.554 12.4708 118.19C12.4577 117.752 12.9887 117.361 14.0594 117.014C15.1346 116.666 16.1792 116.49 17.1978 116.49C18.2033 116.503 18.9432 116.748 19.4178 117.228C19.8921 117.709 20.1358 118.456 20.1489 119.473V121.314C20.5232 121.292 20.8324 121.378 21.0804 121.563C21.3286 121.752 21.4505 121.958 21.4505 122.18C21.4505 122.404 21.3548 122.597 21.1632 122.756C20.9716 122.919 20.6103 123.082 20.0879 123.253ZM17.5286 122.292V122.18C17.5286 121.786 17.4503 121.533 17.2892 121.43C17.1326 121.322 16.8758 121.267 16.5188 121.267C15.9964 121.267 15.5044 121.391 15.0387 121.644C14.5818 121.893 14.3512 122.142 14.3512 122.391C14.3512 122.515 14.4075 122.623 14.5251 122.7C14.6427 122.781 14.8038 122.82 15.0082 122.82C15.3826 122.82 15.7963 122.773 16.2574 122.678C16.7189 122.58 17.1454 122.451 17.5286 122.292ZM29.7076 123.301L29.3159 121.267L29.2156 120.674C28.3192 122.554 27.7663 123.601 27.5531 123.816C27.3398 124.03 27.0742 124.138 26.7565 124.138C26.4126 124.138 26.1427 124.065 25.9511 123.919C25.7598 123.777 25.6029 123.515 25.4768 123.142C25.355 122.833 25.2286 122.464 25.1067 122.035C24.9806 121.61 24.8761 121.194 24.7933 120.786C24.7412 121.086 24.6976 121.352 24.6714 121.588C24.6452 121.824 24.6148 122.421 24.5889 123.382L24.567 123.897C24.5539 124.185 24.4016 124.412 24.1143 124.575C23.8271 124.742 23.5093 124.824 23.1654 124.824C22.8084 124.824 22.53 124.73 22.3384 124.545C22.1468 124.356 22.0685 124.065 22.1121 123.67L22.1514 123.189C22.1815 122.73 22.2818 122.043 22.4517 121.121C22.6257 120.202 22.7911 119.524 22.9607 119.087L23.2699 118.207C23.4049 117.79 23.5965 117.482 23.8356 117.284C24.075 117.087 24.4798 116.988 25.0458 116.988C25.3593 116.988 25.5987 117.048 25.7552 117.173C25.9164 117.297 26.0471 117.49 26.1601 117.756L26.3648 118.318C26.4038 118.447 26.4778 118.722 26.5823 119.142C26.6868 119.567 26.8826 120.125 27.1699 120.82C27.183 120.777 27.183 120.773 27.1699 120.812C27.1568 120.846 27.4443 120.219 28.0362 118.928L28.367 118.207C28.6152 117.662 28.8285 117.336 29.0067 117.228C29.1852 117.121 29.4292 117.065 29.7295 117.052C29.9906 117.052 30.2126 117.108 30.3911 117.22C30.5696 117.331 30.7 117.486 30.7829 117.679L30.9483 118.142C30.9742 118.258 31.0092 118.378 31.0528 118.494C31.0917 118.61 31.1962 118.958 31.3616 119.537C31.4835 119.953 31.5837 120.232 31.6489 120.378C31.7186 120.524 31.8143 120.812 31.9407 121.249L32.1887 122.18C32.4195 123.099 32.4543 123.726 32.2889 124.056C32.1235 124.387 31.7796 124.554 31.2571 124.554C30.8176 124.554 30.4652 124.447 30.2038 124.232C29.9427 124.017 29.7773 123.708 29.7076 123.301ZM34.1299 123.974V123.575C34.1126 122.644 34.0779 122.108 34.0127 121.958C33.9514 121.807 33.9341 121.018 33.9645 119.584C33.6337 119.584 33.3727 119.524 33.1899 119.4C33.0026 119.275 32.9112 119.104 32.9112 118.881C32.9112 118.644 32.9417 118.469 33.0026 118.353C33.0635 118.232 33.3727 118.048 33.921 117.79C33.9776 117.589 34.1083 117.413 34.313 117.267C34.5217 117.125 34.7611 117.052 35.0353 117.052C35.1748 117.052 35.3271 117.078 35.5013 117.134C35.671 117.185 35.8495 117.254 36.0277 117.34L37.0813 117.07C37.795 116.885 38.4131 116.748 38.9267 116.645C39.4448 116.542 39.8539 116.486 40.1585 116.477C40.5286 116.477 40.8159 116.563 41.0117 116.731C41.2119 116.902 41.3121 117.113 41.3121 117.357C41.299 117.722 41.2728 117.911 41.2295 117.928C41.1902 117.941 41.1729 118.121 41.1902 118.464C41.1902 119.232 41.2426 119.927 41.3425 120.545C41.447 121.168 41.5037 121.498 41.5168 121.541L41.6213 122.326C41.7474 123.318 41.6996 123.953 41.4775 124.232C41.2554 124.511 40.8987 124.648 40.4025 124.648C40.0193 124.648 39.6973 124.515 39.4448 124.249C39.188 123.979 39.0531 123.648 39.04 123.253L38.9571 121.524C38.9312 121.073 38.9181 120.571 38.9181 120.018C38.9181 119.46 38.9312 118.902 38.9571 118.335C37.499 118.657 36.7721 118.816 36.781 118.816C36.7895 118.816 36.5763 118.885 36.1498 119.022C36.1367 120.284 36.2193 121.189 36.3978 121.739C36.5763 122.288 36.6677 123.035 36.6677 123.974C36.6677 124.283 36.537 124.532 36.2759 124.721C36.0149 124.906 35.6969 125 35.3271 125C34.9963 125 34.7133 124.914 34.4781 124.738C34.2433 124.562 34.1299 124.305 34.1299 123.974ZM47.4016 118.335L46.9882 118.288C46.5225 118.232 46.3525 117.984 46.4832 117.541C46.6139 117.1 47.136 116.876 48.0416 116.876C48.8817 116.885 49.6173 117.216 50.2397 117.863C50.8665 118.507 51.1797 119.348 51.1797 120.387C51.1669 121.563 50.7621 122.571 49.9609 123.412C49.1644 124.258 48.1939 124.683 47.0534 124.683C45.9784 124.683 45.0293 124.318 44.2022 123.593C43.3752 122.863 42.9619 122.035 42.9619 121.108C42.9619 120.412 43.2098 119.666 43.706 118.872C44.2022 118.074 44.7551 117.679 45.3601 117.679C45.6604 117.679 45.9303 117.778 46.1655 117.975C46.4006 118.172 46.5225 118.365 46.5356 118.559C46.5225 118.593 46.5094 118.623 46.4963 118.657C46.4832 118.687 46.4006 118.782 46.248 118.945L46.0001 119.198C45.8347 119.361 45.704 119.593 45.6083 119.897C45.5081 120.202 45.4603 120.503 45.4603 120.803C45.4472 121.391 45.6431 121.863 46.0522 122.219C46.457 122.58 46.9011 122.756 47.38 122.756C47.8631 122.756 48.2636 122.528 48.5813 122.069C48.8945 121.61 49.0556 121.048 49.0556 120.387C49.0556 119.808 48.9122 119.34 48.6203 118.975C48.3331 118.61 47.924 118.4 47.4016 118.335ZM58.0356 117.452C58.8754 117.25 59.6025 117.34 60.2248 117.726C60.8429 118.108 61.1606 118.713 61.1737 119.537C61.1737 120.412 60.5252 121.507 59.2324 122.811C57.9396 124.125 56.6383 124.781 55.3325 124.794C54.2572 124.794 53.5261 124.163 53.1298 122.902C52.7381 121.64 52.5422 119.537 52.5422 116.589C52.5422 115.284 52.799 114.345 53.3083 113.769C53.8176 113.19 54.588 112.902 55.6197 112.902C56.5859 112.902 57.3825 113.134 58.0137 113.598C58.6491 114.066 58.9668 114.701 58.9668 115.516C58.9668 115.911 58.8885 116.263 58.7362 116.58C58.5882 116.894 58.3533 117.185 58.0356 117.452ZM58.5708 119.602C58.5708 119.46 58.5403 119.361 58.4794 119.297C58.4185 119.232 58.3228 119.198 58.2007 119.198C58.1443 119.211 58.0962 119.22 58.0441 119.232C57.9963 119.241 57.5391 119.576 56.6731 120.224C56.412 120.43 56.1768 120.571 55.9721 120.657C55.7632 120.743 55.5369 120.79 55.2889 120.803C55.3584 121.477 55.4412 121.928 55.5369 122.155C55.6328 122.386 55.7589 122.502 55.907 122.502C56.2116 122.502 56.7297 122.155 57.4696 121.468C58.2053 120.777 58.5708 120.155 58.5708 119.602ZM55.1235 118.863L55.4979 118.705C55.0973 118.245 55.154 117.713 55.6718 117.108C56.1899 116.503 56.4467 116.01 56.4467 115.628C56.4336 115.349 56.377 115.134 56.2813 114.975C56.1857 114.821 56.0462 114.744 55.8677 114.744C55.6066 114.744 55.4107 114.864 55.2801 115.096C55.1494 115.331 55.0888 115.649 55.1016 116.044C55.1016 117.271 55.1016 117.988 55.1016 118.19C55.1016 118.391 55.1104 118.619 55.1235 118.863ZM64.769 118.172V118.735L64.8693 119.713C65.0347 119.456 65.2872 119.263 65.6223 119.138C65.9619 119.009 66.4404 118.945 67.0585 118.945C67.8554 118.945 68.5124 119.121 69.0306 119.481C69.5441 119.838 69.8095 120.318 69.8226 120.915C69.8226 121.79 69.3614 122.665 68.4299 123.541C67.5026 124.417 66.5364 124.858 65.5309 124.858C64.6646 124.858 63.9856 124.627 63.4982 124.159C63.0062 123.695 62.7495 122.962 62.7233 121.958L62.6797 120.721C62.6535 119.953 62.6188 119.344 62.5798 118.893C62.5362 118.447 62.5143 118.228 62.5143 118.237C62.5143 117.863 62.6188 117.585 62.8277 117.396C63.0324 117.211 63.2935 117.117 63.6112 117.117C63.9682 117.117 64.2512 117.211 64.4556 117.404C64.6646 117.598 64.769 117.855 64.769 118.172ZM65.1781 122.532C65.2217 122.79 65.2915 122.97 65.3959 123.077C65.5004 123.185 65.6354 123.236 65.8008 123.236C66.0749 123.236 66.4231 122.97 66.841 122.429C67.2632 121.889 67.4722 121.46 67.4722 121.138C67.4722 120.966 67.407 120.833 67.2763 120.73C67.1456 120.627 66.9543 120.58 66.7061 120.58C66.3753 120.58 66.0618 120.7 65.766 120.945C65.4699 121.194 65.2394 121.554 65.0782 122.035C65.0782 122.099 65.0913 122.189 65.1172 122.301C65.1434 122.412 65.165 122.489 65.1781 122.532ZM72.6737 120.885L72.5476 123.189C72.5083 123.747 72.3648 124.155 72.1166 124.417C71.8683 124.678 71.5375 124.807 71.1242 124.807C70.7803 124.807 70.5192 124.73 70.3407 124.566C70.1622 124.408 70.0708 124.168 70.0708 123.846C70.0708 123.614 70.0924 123.095 70.136 122.292C70.1753 121.49 70.2015 120.786 70.2189 120.176C70.2189 120.048 70.21 119.923 70.1969 119.795C70.1838 119.666 70.1534 119.494 70.1144 119.28C70.0184 118.756 69.9706 118.486 69.9706 118.464C69.9706 118.443 69.9706 118.417 69.9706 118.383C69.9706 118.074 70.0924 117.812 70.3407 117.598C70.5887 117.383 70.8759 117.276 71.2067 117.276C71.7596 117.288 72.1513 117.417 72.3865 117.662C72.6171 117.906 72.7346 118.267 72.7346 118.735C72.7346 119.207 72.7304 119.589 72.713 119.881C72.6999 120.176 72.6868 120.507 72.6737 120.885ZM82.5849 121.859L82.8112 122.532C83.0028 123.155 82.9812 123.627 82.7372 123.953C82.4981 124.279 82.1496 124.442 81.6969 124.442C81.3923 124.442 81.1093 124.374 80.8483 124.241C80.5869 124.108 80.3868 123.897 80.2519 123.605C79.9341 123.97 79.5467 124.241 79.0855 124.425C78.624 124.605 78.1452 124.696 77.6489 124.696C76.687 124.696 75.9425 124.335 75.4204 123.614C74.898 122.893 74.6543 121.932 74.6979 120.721L74.7369 119.087C74.75 118.477 74.8718 118.035 75.0981 117.756C75.3245 117.482 75.6815 117.336 76.1646 117.327C76.5913 117.336 76.9045 117.447 77.1134 117.662C77.3181 117.876 77.4007 118.408 77.3617 119.263L77.2788 120.721C77.2353 121.344 77.3139 121.829 77.514 122.18C77.7141 122.532 78.0014 122.704 78.3715 122.691C78.8677 122.691 79.2201 122.477 79.4337 122.043C79.6469 121.61 79.7294 120.863 79.6728 119.795L79.6122 118.657C79.5686 118.056 79.6469 117.61 79.8385 117.319C80.0298 117.022 80.3521 116.876 80.809 116.876C81.205 116.876 81.5011 116.958 81.6838 117.125C81.8712 117.288 81.993 117.692 82.0454 118.335L82.1496 119.76C82.1627 120.048 82.2105 120.4 82.2934 120.812C82.3762 121.224 82.4719 121.571 82.5849 121.859ZM79.4684 116.859C79.2028 116.979 78.9633 117.065 78.7416 117.117C78.5238 117.168 78.3148 117.198 78.1232 117.198C77.5314 117.198 77.0352 117.065 76.6392 116.804C76.2386 116.542 76.0385 116.224 76.0385 115.851C76.0385 115.563 76.1387 115.336 76.3388 115.169C76.5389 115.005 76.7957 114.92 77.1134 114.92C77.1396 114.92 77.1701 114.924 77.2051 114.928C77.2399 114.937 77.4835 115.005 77.9405 115.147C78.1845 115.233 78.3322 115.276 78.3846 115.28C78.4324 115.288 78.476 115.288 78.5153 115.288C79.3423 115.288 79.847 115.13 80.0344 114.808C80.2171 114.49 80.5391 114.327 80.9918 114.327C81.1876 114.327 81.353 114.383 81.5011 114.495C81.6448 114.611 81.7143 114.731 81.7143 114.86C81.7143 115.091 81.4313 115.443 80.8614 115.915C80.2869 116.383 79.8254 116.701 79.4684 116.859ZM95.0947 117.966L95.6521 117.374C95.9957 117.01 96.4268 116.846 96.9446 116.885C97.4585 116.924 97.7153 117.134 97.7153 117.516C97.7153 118.018 97.3583 118.597 96.6314 119.25C95.9132 119.897 95.2473 120.301 94.642 120.451C95.6302 120.588 96.4877 120.992 97.2102 121.661C97.9328 122.326 98.294 123.047 98.294 123.816C98.294 124.125 98.1764 124.369 97.9459 124.554C97.7107 124.734 97.4018 124.829 97.0144 124.841C96.7402 124.841 96.5096 124.785 96.3223 124.683C96.1395 124.575 95.9957 124.365 95.9001 124.056C95.6259 123.296 95.1687 122.751 94.529 122.412C93.889 122.078 93.1144 121.919 92.2045 121.94C92.2481 122.155 92.2959 122.468 92.3614 122.884C92.4223 123.301 92.4528 123.58 92.4528 123.721C92.4397 124.082 92.2959 124.374 92.0175 124.592C91.743 124.811 91.4122 124.918 91.0293 124.918C90.5331 124.918 90.1761 124.815 89.9629 124.61C89.7497 124.399 89.6452 123.88 89.6452 123.047C89.6321 122.532 89.6105 121.936 89.5843 121.258C89.5538 120.58 89.5276 119.984 89.5014 119.473C89.4578 119.057 89.4362 118.79 89.4274 118.679C89.4231 118.567 89.4231 118.443 89.4362 118.301C89.4362 117.928 89.5191 117.636 89.6842 117.422C89.8499 117.207 90.1326 117.1 90.5331 117.1C90.9727 117.1 91.2904 117.177 91.482 117.327C91.6736 117.473 91.7997 117.709 91.8564 118.031C91.8695 118.202 91.878 118.404 91.8868 118.64C91.8911 118.876 91.9087 119.305 91.9346 119.936C92.9271 119.511 93.6149 119.168 94.0023 118.911C94.3852 118.657 94.7511 118.34 95.0947 117.966ZM103.5 118.335L103.086 118.288C102.616 118.232 102.451 117.984 102.577 117.541C102.712 117.1 103.23 116.876 104.14 116.876C104.976 116.885 105.711 117.216 106.338 117.863C106.965 118.507 107.278 119.348 107.278 120.387C107.261 121.563 106.856 122.571 106.059 123.412C105.258 124.258 104.288 124.683 103.147 124.683C102.072 124.683 101.123 124.318 100.296 123.593C99.4738 122.863 99.0601 122.035 99.0601 121.108C99.0601 120.412 99.3084 119.666 99.8 118.872C100.296 118.074 100.849 117.679 101.454 117.679C101.754 117.679 102.024 117.778 102.259 117.975C102.495 118.172 102.616 118.365 102.63 118.559C102.616 118.593 102.603 118.623 102.59 118.657C102.577 118.687 102.495 118.782 102.342 118.945L102.094 119.198C101.929 119.361 101.798 119.593 101.702 119.897C101.607 120.202 101.559 120.503 101.559 120.803C101.545 121.391 101.742 121.863 102.146 122.219C102.551 122.58 102.995 122.756 103.478 122.756C103.957 122.756 104.358 122.528 104.675 122.069C104.993 121.61 105.15 121.048 105.15 120.387C105.15 119.808 105.006 119.34 104.714 118.975C104.427 118.61 104.022 118.4 103.5 118.335ZM112.171 120.674L111.653 121.091C111.627 121.4 111.613 121.683 111.613 121.94C111.613 122.198 111.627 122.55 111.653 122.996C111.666 123.575 111.539 124.005 111.27 124.288C111.004 124.571 110.621 124.712 110.125 124.712C109.742 124.712 109.459 124.618 109.28 124.425C109.102 124.232 109.011 123.841 109.011 123.253C109.011 123.103 109.028 122.713 109.063 122.078C109.098 121.443 109.128 120.747 109.154 120C109.154 119.949 109.154 119.885 109.154 119.808C109.154 119.735 109.154 119.361 109.154 118.687C109.141 118.172 109.25 117.825 109.476 117.636C109.703 117.452 110.029 117.353 110.456 117.34C110.913 117.353 111.261 117.473 111.509 117.701C111.757 117.932 111.853 118.254 111.796 118.67C112.954 118.061 113.672 117.713 113.955 117.623C114.238 117.533 114.495 117.482 114.73 117.469C115.004 117.469 115.226 117.555 115.392 117.726C115.557 117.898 115.653 118.138 115.679 118.447C116.367 118.018 116.933 117.709 117.372 117.507C117.812 117.314 118.186 117.207 118.486 117.198C119.009 117.198 119.383 117.319 119.614 117.567C119.84 117.812 119.953 118.185 119.953 118.687C119.953 119.679 119.906 120.37 119.81 120.756C119.714 121.138 119.666 121.49 119.666 121.812C119.666 122.026 119.67 122.202 119.684 122.34C119.697 122.481 119.731 122.593 119.788 122.678L119.893 122.884C120.058 123.236 120.032 123.584 119.819 123.927C119.605 124.271 119.196 124.442 118.591 124.442C118.056 124.442 117.659 124.305 117.416 124.039C117.168 123.773 117.041 123.386 117.041 122.884C117.041 122.653 117.072 122.249 117.124 121.683C117.181 121.116 117.22 120.498 117.25 119.825C117.25 119.782 117.25 119.743 117.25 119.705C117.25 119.666 117.25 119.627 117.25 119.584C117.233 119.456 117.224 119.383 117.216 119.361C117.211 119.34 117.203 119.327 117.185 119.327C117.076 119.327 116.845 119.447 116.493 119.687C116.145 119.927 115.853 120.155 115.618 120.37C115.618 120.477 115.618 120.563 115.618 120.636C115.618 120.704 115.631 120.975 115.657 121.443C115.657 121.764 115.675 122.035 115.701 122.253C115.727 122.472 115.749 122.665 115.762 122.837C115.749 123.395 115.605 123.811 115.331 124.086C115.052 124.365 114.73 124.502 114.356 124.502C113.903 124.502 113.572 124.391 113.368 124.168C113.159 123.944 113.059 123.593 113.059 123.112C113.059 122.374 113.089 121.816 113.15 121.434C113.211 121.056 113.242 120.743 113.242 120.498C113.242 120.4 113.233 120.327 113.211 120.275C113.189 120.219 113.168 120.194 113.141 120.194C113.072 120.194 112.915 120.254 112.676 120.378C112.436 120.503 112.267 120.601 112.171 120.674Z" fill="#856F67"/>
</svg>
