<svg width="200" height="209" viewBox="0 0 200 209" fill="none" xmlns="http://www.w3.org/2000/svg">
<path fill-rule="evenodd" clip-rule="evenodd" d="M99.6538 152.639L101.749 152.099C101.342 152.474 100.935 152.818 100.469 152.85C100.211 152.866 99.9361 152.787 99.6538 152.639Z" fill="#F8E021"/>
<path fill-rule="evenodd" clip-rule="evenodd" d="M99.5665 152.591L101.857 151.999C101.803 152.048 101.751 152.097 101.697 152.145L99.6995 152.662C99.6553 152.64 99.6111 152.616 99.5665 152.591Z" fill="#F9DF22"/>
<path fill-rule="evenodd" clip-rule="evenodd" d="M99.4847 152.542L101.961 151.902L101.8 152.051L99.6126 152.617C99.57 152.593 99.5273 152.568 99.4847 152.542Z" fill="#F9DF22"/>
<path fill-rule="evenodd" clip-rule="evenodd" d="M99.4086 152.493L102.065 151.807C102.011 151.856 101.957 151.905 101.903 151.955L99.5299 152.569C99.4898 152.545 99.4492 152.52 99.4086 152.493Z" fill="#F9DE22"/>
<path fill-rule="evenodd" clip-rule="evenodd" d="M99.3299 152.44L102.179 151.706C102.125 151.753 102.071 151.801 102.018 151.849L99.4421 152.515C99.4045 152.492 99.3675 152.466 99.3299 152.44Z" fill="#F9DE23"/>
<path fill-rule="evenodd" clip-rule="evenodd" d="M99.2558 152.388L102.302 151.601C102.243 151.65 102.183 151.702 102.124 151.754L99.368 152.466C99.3309 152.441 99.2934 152.415 99.2558 152.388Z" fill="#F9DE23"/>
<path fill-rule="evenodd" clip-rule="evenodd" d="M99.1878 152.337L102.429 151.5C102.364 151.548 102.301 151.601 102.237 151.655L99.2944 152.415C99.2594 152.39 99.2239 152.364 99.1878 152.337Z" fill="#F8DD21"/>
<path fill-rule="evenodd" clip-rule="evenodd" d="M99.1202 152.284L102.581 151.39C102.505 151.44 102.43 151.496 102.357 151.555L99.2253 152.365C99.1902 152.338 99.1552 152.312 99.1202 152.284Z" fill="#F8DC22"/>
<path fill-rule="evenodd" clip-rule="evenodd" d="M99.0511 152.229L102.782 151.268C102.755 151.282 102.729 151.297 102.703 151.313C102.638 151.351 102.574 151.393 102.51 151.439L99.1496 152.308C99.1166 152.282 99.0836 152.256 99.0511 152.229Z" fill="#F8DA23"/>
<path fill-rule="evenodd" clip-rule="evenodd" d="M98.9857 152.174L103.149 151.098C102.999 151.158 102.849 151.225 102.703 151.312L102.679 151.327L99.0847 152.256C99.0517 152.229 99.0187 152.202 98.9857 152.174Z" fill="#F8DA23"/>
<path fill-rule="evenodd" clip-rule="evenodd" d="M98.9246 152.122L103.649 150.9C103.417 151.001 103.169 151.08 102.929 151.193L99.0206 152.204C98.9886 152.177 98.9566 152.149 98.9246 152.122Z" fill="#F8DA23"/>
<path fill-rule="evenodd" clip-rule="evenodd" d="M98.8648 152.069L103.935 150.757C103.762 150.86 103.576 150.934 103.386 151.006L98.9582 152.151C98.9267 152.124 98.8958 152.097 98.8648 152.069Z" fill="#F8D921"/>
<path fill-rule="evenodd" clip-rule="evenodd" d="M98.7989 152.009L104.112 150.636C104.022 150.707 103.927 150.765 103.827 150.817L98.8913 152.093C98.8608 152.065 98.8299 152.038 98.7989 152.009Z" fill="#F8D921"/>
<path fill-rule="evenodd" clip-rule="evenodd" d="M98.7419 151.956L104.223 150.539C104.163 150.597 104.1 150.648 104.034 150.694L98.8313 152.038C98.8013 152.011 98.7714 151.983 98.7419 151.956Z" fill="#F8D722"/>
<path fill-rule="evenodd" clip-rule="evenodd" d="M98.6846 151.901L104.31 150.447C104.265 150.5 104.216 150.548 104.166 150.592L98.7734 151.986C98.7435 151.958 98.714 151.93 98.6846 151.901Z" fill="#F9D722"/>
<path fill-rule="evenodd" clip-rule="evenodd" d="M98.6293 151.847L104.379 150.36C104.343 150.408 104.306 150.453 104.268 150.494L98.7106 151.926L98.6293 151.847Z" fill="#F9D722"/>
<path fill-rule="evenodd" clip-rule="evenodd" d="M98.5678 151.785L104.443 150.267C104.413 150.314 104.382 150.357 104.35 150.398L98.6536 151.87C98.6252 151.843 98.5967 151.814 98.5678 151.785Z" fill="#F8D622"/>
<path fill-rule="evenodd" clip-rule="evenodd" d="M98.515 151.731L104.49 150.187C104.465 150.231 104.439 150.273 104.413 150.313L98.5988 151.817L98.515 151.731Z" fill="#F8D523"/>
<path fill-rule="evenodd" clip-rule="evenodd" d="M98.4623 151.676L104.532 150.105C104.51 150.149 104.488 150.191 104.465 150.23L98.5441 151.76C98.5172 151.733 98.4898 151.704 98.4623 151.676Z" fill="#F8D523"/>
<path fill-rule="evenodd" clip-rule="evenodd" d="M98.4094 151.62L104.567 150.028C104.549 150.071 104.53 150.111 104.509 150.15L98.4871 151.702L98.4094 151.62Z" fill="#F8D423"/>
<path fill-rule="evenodd" clip-rule="evenodd" d="M98.3531 151.559L104.601 149.944C104.585 149.986 104.569 150.025 104.552 150.062L98.4328 151.645L98.3531 151.559Z" fill="#F8D323"/>
<path fill-rule="evenodd" clip-rule="evenodd" d="M98.3018 151.502L104.629 149.867C104.615 149.908 104.6 149.948 104.585 149.986L98.3815 151.59C98.3546 151.561 98.3282 151.532 98.3018 151.502Z" fill="#F8D223"/>
<path fill-rule="evenodd" clip-rule="evenodd" d="M98.252 151.447L104.653 149.793C104.641 149.833 104.628 149.871 104.614 149.909L98.3292 151.533L98.252 151.447Z" fill="#F8D223"/>
<path fill-rule="evenodd" clip-rule="evenodd" d="M98.2018 151.391L104.675 149.718C104.664 149.758 104.653 149.796 104.641 149.833L98.2755 151.474L98.2018 151.391Z" fill="#F8D124"/>
<path fill-rule="evenodd" clip-rule="evenodd" d="M98.1485 151.328L104.696 149.636C104.686 149.676 104.676 149.713 104.666 149.75L98.2252 151.416L98.1485 151.328Z" fill="#F8D022"/>
<path fill-rule="evenodd" clip-rule="evenodd" d="M98.1009 151.272L104.714 149.562L104.706 149.595C104.699 149.623 104.693 149.65 104.686 149.676L98.1755 151.359L98.1009 151.272Z" fill="#F8D022"/>
<path fill-rule="evenodd" clip-rule="evenodd" d="M98.0526 151.215L104.729 149.49C104.722 149.526 104.714 149.561 104.706 149.595L104.704 149.603L98.1272 151.303L98.0526 151.215Z" fill="#F7CE23"/>
<path fill-rule="evenodd" clip-rule="evenodd" d="M98.0023 151.154L104.742 149.417C104.736 149.452 104.729 149.488 104.722 149.521L98.0734 151.24L98.0023 151.154Z" fill="#F7CE22"/>
<path fill-rule="evenodd" clip-rule="evenodd" d="M97.9541 151.095L104.756 149.337C104.75 149.376 104.743 149.413 104.736 149.45L98.0267 151.184L97.9541 151.095Z" fill="#F7CE22"/>
<path fill-rule="evenodd" clip-rule="evenodd" d="M97.9083 151.04L104.767 149.267C104.762 149.304 104.756 149.341 104.749 149.377L97.9794 151.127L97.9083 151.04Z" fill="#F6CC22"/>
<path fill-rule="evenodd" clip-rule="evenodd" d="M97.8621 150.981L104.777 149.193C104.772 149.231 104.767 149.269 104.761 149.305L97.9332 151.07L97.8621 150.981Z" fill="#F7CC22"/>
<path fill-rule="evenodd" clip-rule="evenodd" d="M97.8134 150.92L104.786 149.123C104.782 149.157 104.778 149.192 104.773 149.226L97.883 151.008L97.8134 150.92Z" fill="#F7CB23"/>
<path fill-rule="evenodd" clip-rule="evenodd" d="M97.7681 150.862L104.795 149.044C104.791 149.082 104.786 149.119 104.782 149.155L97.8372 150.95L97.7849 150.883L97.7681 150.862Z" fill="#F7CB23"/>
<path fill-rule="evenodd" clip-rule="evenodd" d="M97.7236 150.803L104.802 148.974C104.798 149.011 104.795 149.048 104.791 149.084L97.7931 150.893L97.785 150.882L97.7236 150.803Z" fill="#F7CA23"/>
<path fill-rule="evenodd" clip-rule="evenodd" d="M97.6805 150.746L104.808 148.904C104.805 148.941 104.802 148.977 104.798 149.012L97.748 150.835L97.6805 150.746Z" fill="#F7C923"/>
<path fill-rule="evenodd" clip-rule="evenodd" d="M97.6326 150.683L104.813 148.832L104.805 148.936L97.6996 150.772L97.6326 150.683Z" fill="#F7C923"/>
<path fill-rule="evenodd" clip-rule="evenodd" d="M97.5896 150.625L104.819 148.756L104.811 148.864L97.6566 150.715L97.5896 150.625Z" fill="#F6C824"/>
<path fill-rule="evenodd" clip-rule="evenodd" d="M97.5459 150.567L104.823 148.686L104.816 148.795L97.6129 150.657L97.5459 150.567Z" fill="#F6C724"/>
<path fill-rule="evenodd" clip-rule="evenodd" d="M97.5042 150.508L104.826 148.616L104.82 148.723L97.5702 150.599L97.5042 150.508Z" fill="#F6C724"/>
<path fill-rule="evenodd" clip-rule="evenodd" d="M97.4585 150.445L104.829 148.538L104.824 148.647L97.523 150.534L97.4585 150.445Z" fill="#F6C622"/>
<path fill-rule="evenodd" clip-rule="evenodd" d="M97.4164 150.386L104.831 148.47L104.827 148.578L97.4814 150.477L97.4164 150.386Z" fill="#F6C523"/>
<path fill-rule="evenodd" clip-rule="evenodd" d="M97.3758 150.328L104.833 148.4L104.83 148.507L97.4387 150.417L97.3758 150.328Z" fill="#F6C523"/>
<path fill-rule="evenodd" clip-rule="evenodd" d="M97.3342 150.27L104.834 148.331L104.832 148.439L97.3946 150.355L97.3342 150.27Z" fill="#F6C423"/>
<path fill-rule="evenodd" clip-rule="evenodd" d="M97.29 150.206L104.834 148.256L104.833 148.362L97.353 150.297L97.29 150.206Z" fill="#F6C323"/>
<path fill-rule="evenodd" clip-rule="evenodd" d="M97.249 150.146L104.834 148.185V148.293L97.3119 150.237L97.249 150.146Z" fill="#F6C224"/>
<path fill-rule="evenodd" clip-rule="evenodd" d="M97.2098 150.088L104.834 148.117L104.834 148.225L97.2722 150.179L97.2098 150.088Z" fill="#F6C224"/>
<path fill-rule="evenodd" clip-rule="evenodd" d="M97.1707 150.03L104.833 148.048L104.834 148.155L97.2281 150.115L97.1707 150.03Z" fill="#F5C124"/>
<path fill-rule="evenodd" clip-rule="evenodd" d="M97.1265 149.965L104.832 147.973L104.834 148.08L97.1879 150.056L97.1265 149.965Z" fill="#F5C025"/>
<path fill-rule="evenodd" clip-rule="evenodd" d="M97.0884 149.906L104.83 147.905L104.833 148.011L97.1483 149.997L97.0884 149.906Z" fill="#F5C025"/>
<path fill-rule="evenodd" clip-rule="evenodd" d="M97.0494 149.847L104.828 147.836L104.831 147.942L97.1098 149.939L97.0494 149.847Z" fill="#F5C024"/>
<path fill-rule="evenodd" clip-rule="evenodd" d="M97.0113 149.788L104.826 147.769L104.829 147.873L97.0676 149.875L97.0113 149.788Z" fill="#F5BF25"/>
<path fill-rule="evenodd" clip-rule="evenodd" d="M96.9687 149.722L104.823 147.692L104.827 147.798L97.0281 149.814L96.9687 149.722Z" fill="#F5BF25"/>
<path fill-rule="evenodd" clip-rule="evenodd" d="M96.9311 149.664L104.82 147.625L104.824 147.731L96.9905 149.755L96.9311 149.664Z" fill="#F5BD25"/>
<path fill-rule="evenodd" clip-rule="evenodd" d="M96.894 149.604L104.816 147.555L104.821 147.661L96.9519 149.696L96.894 149.604Z" fill="#F5BD25"/>
<path fill-rule="evenodd" clip-rule="evenodd" d="M96.853 149.539L104.812 147.488L104.818 147.587L96.9108 149.631L96.853 149.539Z" fill="#F5BD25"/>
<path fill-rule="evenodd" clip-rule="evenodd" d="M96.8158 149.48L104.807 147.414L104.814 147.518L96.8727 149.571L96.8158 149.48Z" fill="#F5BC25"/>
<path fill-rule="evenodd" clip-rule="evenodd" d="M96.7783 149.419L104.803 147.345L104.81 147.451L96.8361 149.512L96.7783 149.419Z" fill="#F5BB25"/>
<path fill-rule="evenodd" clip-rule="evenodd" d="M96.7421 149.361L104.798 147.278L104.805 147.382L96.7995 149.454L96.7421 149.361Z" fill="#F4BA26"/>
<path fill-rule="evenodd" clip-rule="evenodd" d="M96.7021 149.294L104.793 147.209L104.8 147.308L96.7585 149.386L96.7021 149.294Z" fill="#F4BA26"/>
<path fill-rule="evenodd" clip-rule="evenodd" d="M96.6661 149.235L104.787 147.136L104.795 147.242L96.7224 149.329L96.6661 149.235Z" fill="#F4B926"/>
<path fill-rule="evenodd" clip-rule="evenodd" d="M96.6306 149.176L104.781 147.068L104.79 147.173L96.6859 149.268L96.6306 149.176Z" fill="#F4B826"/>
<path fill-rule="evenodd" clip-rule="evenodd" d="M96.5944 149.115L104.775 147.001L104.784 147.106L96.6503 149.209L96.5944 149.115Z" fill="#F4B826"/>
<path fill-rule="evenodd" clip-rule="evenodd" d="M96.5564 149.051L104.769 146.935L104.778 147.031L96.6102 149.142L96.5564 149.051Z" fill="#F4B726"/>
<path fill-rule="evenodd" clip-rule="evenodd" d="M96.5203 148.989L104.761 146.859L104.771 146.964L96.5751 149.083L96.5203 148.989Z" fill="#F4B625"/>
<path fill-rule="evenodd" clip-rule="evenodd" d="M96.4858 148.93L104.754 146.793L104.765 146.896L96.5401 149.024L96.4858 148.93Z" fill="#F4B625"/>
<path fill-rule="evenodd" clip-rule="evenodd" d="M96.4502 148.87L104.747 146.725L104.758 146.83L96.5045 148.963L96.4502 148.87Z" fill="#F4B426"/>
<path fill-rule="evenodd" clip-rule="evenodd" d="M96.4128 148.804L104.739 146.652L104.751 146.756L96.4671 148.897L96.4128 148.804Z" fill="#F5B426"/>
<path fill-rule="evenodd" clip-rule="evenodd" d="M96.3792 148.744L104.731 146.583L104.743 146.688L96.4315 148.837L96.3792 148.744Z" fill="#F3B325"/>
<path fill-rule="evenodd" clip-rule="evenodd" d="M96.3442 148.683L104.723 146.518L104.736 146.622L96.3975 148.777L96.3442 148.683Z" fill="#F3B325"/>
<path fill-rule="evenodd" clip-rule="evenodd" d="M96.3107 148.625L104.715 146.452L104.728 146.554L96.36 148.711L96.3107 148.625Z" fill="#F3B125"/>
<path fill-rule="evenodd" clip-rule="evenodd" d="M96.2731 148.557L104.705 146.378L104.719 146.482L96.3259 148.651L96.2731 148.557Z" fill="#F3B125"/>
<path fill-rule="evenodd" clip-rule="evenodd" d="M96.2402 148.497L104.697 146.311L104.71 146.413L96.2925 148.59L96.2402 148.497Z" fill="#F3B125"/>
<path fill-rule="evenodd" clip-rule="evenodd" d="M96.2061 148.436L104.688 146.243L104.701 146.347L96.2584 148.53L96.2061 148.436Z" fill="#F3B024"/>
<path fill-rule="evenodd" clip-rule="evenodd" d="M96.1736 148.376L104.678 146.177L104.693 146.281L96.2218 148.464L96.1736 148.376Z" fill="#F3AE24"/>
<path fill-rule="evenodd" clip-rule="evenodd" d="M96.1375 148.31L104.667 146.104L104.682 146.207L96.1878 148.403L96.1375 148.31Z" fill="#F3AE24"/>
<path fill-rule="evenodd" clip-rule="evenodd" d="M96.104 148.249L104.658 146.038L104.673 146.142L96.1553 148.343L96.104 148.249Z" fill="#F3AE24"/>
<path fill-rule="evenodd" clip-rule="evenodd" d="M96.072 148.189L104.648 145.972L104.663 146.074L96.1217 148.282L96.072 148.189Z" fill="#F3AD24"/>
<path fill-rule="evenodd" clip-rule="evenodd" d="M96.0391 148.128L104.637 145.905L104.653 146.008L96.0868 148.216L96.0391 148.128Z" fill="#F3AD24"/>
<path fill-rule="evenodd" clip-rule="evenodd" d="M96.0035 148.061L104.626 145.832L104.642 145.934L96.0542 148.155L96.0035 148.061Z" fill="#F2AC24"/>
<path fill-rule="evenodd" clip-rule="evenodd" d="M95.9721 148.001L104.614 145.766L104.631 145.869L96.0214 148.094L95.9721 148.001Z" fill="#F3AB24"/>
<path fill-rule="evenodd" clip-rule="evenodd" d="M95.9395 147.94L104.604 145.701L104.621 145.804L95.9893 148.035L95.9395 147.94Z" fill="#F3AA25"/>
<path fill-rule="evenodd" clip-rule="evenodd" d="M95.905 147.873L104.592 145.633L104.608 145.729L95.9537 147.966L95.905 147.873Z" fill="#F3AA25"/>
<path fill-rule="evenodd" clip-rule="evenodd" d="M95.8726 147.812L104.579 145.562L104.597 145.665L95.9224 147.907L95.8726 147.812Z" fill="#F3AA23"/>
<path fill-rule="evenodd" clip-rule="evenodd" d="M95.8417 147.752L104.568 145.496L104.586 145.597L95.8904 147.845L95.8417 147.752Z" fill="#F3A823"/>
<path fill-rule="evenodd" clip-rule="evenodd" d="M95.8101 147.689L104.556 145.429L104.574 145.532L95.8589 147.785L95.8101 147.689Z" fill="#F3A823"/>
<path fill-rule="evenodd" clip-rule="evenodd" d="M95.7759 147.623L104.543 145.363L104.561 145.458L95.8247 147.718L95.7759 147.623Z" fill="#F3A724"/>
<path fill-rule="evenodd" clip-rule="evenodd" d="M95.7451 147.563L104.529 145.291L104.549 145.394L95.7928 147.657L95.7451 147.563Z" fill="#F3A724"/>
<path fill-rule="evenodd" clip-rule="evenodd" d="M95.7142 147.501L104.517 145.226L104.537 145.329L95.7624 147.596L95.7142 147.501Z" fill="#F2A623"/>
<path fill-rule="evenodd" clip-rule="evenodd" d="M95.6837 147.441L104.504 145.161L104.523 145.262L95.7309 147.535L95.6837 147.441Z" fill="#F2A523"/>
<path fill-rule="evenodd" clip-rule="evenodd" d="M95.6497 147.373L104.491 145.094L104.51 145.19L95.6969 147.468L95.6594 147.393L95.6497 147.373Z" fill="#F2A424"/>
<path fill-rule="evenodd" clip-rule="evenodd" d="M95.6191 147.312L104.476 145.023L104.496 145.124L95.6658 147.406L95.6592 147.393L95.6191 147.312Z" fill="#F2A424"/>
<path fill-rule="evenodd" clip-rule="evenodd" d="M95.5887 147.25L104.462 144.957L104.483 145.059L95.6359 147.345L95.5887 147.25Z" fill="#F2A324"/>
<path fill-rule="evenodd" clip-rule="evenodd" d="M95.5593 147.191L104.448 144.893L104.469 144.993L95.606 147.286L95.5593 147.191Z" fill="#F2A324"/>
<path fill-rule="evenodd" clip-rule="evenodd" d="M95.5269 147.123L104.432 144.819L104.454 144.921L95.5725 147.217L95.5269 147.123Z" fill="#F2A124"/>
<path fill-rule="evenodd" clip-rule="evenodd" d="M95.4964 147.061L104.417 144.755L104.44 144.857L95.5431 147.156L95.4964 147.061Z" fill="#F2A124"/>
<path fill-rule="evenodd" clip-rule="evenodd" d="M95.4675 147L104.403 144.69L104.426 144.79L95.5127 147.094L95.4675 147Z" fill="#F2A124"/>
<path fill-rule="evenodd" clip-rule="evenodd" d="M95.438 146.938L104.388 144.625L104.411 144.726L95.4807 147.028L95.438 146.938Z" fill="#F39F24"/>
<path fill-rule="evenodd" clip-rule="evenodd" d="M95.4065 146.87L104.371 144.553L104.395 144.653L95.4507 146.964L95.4065 146.87Z" fill="#F1A024"/>
<path fill-rule="evenodd" clip-rule="evenodd" d="M95.3771 146.808L104.356 144.487L104.379 144.589L95.4223 146.904L95.3771 146.808Z" fill="#F19F24"/>
<path fill-rule="evenodd" clip-rule="evenodd" d="M95.3491 146.748L104.34 144.424L104.364 144.523L95.3933 146.844L95.3491 146.748Z" fill="#F29D24"/>
<path fill-rule="evenodd" clip-rule="evenodd" d="M95.3212 146.686L104.324 144.357L104.348 144.458L95.3618 146.775L95.3212 146.686Z" fill="#F29D24"/>
<path fill-rule="evenodd" clip-rule="evenodd" d="M95.2902 146.617L104.306 144.286L104.331 144.388L95.3339 146.713L95.2902 146.617Z" fill="#F29D24"/>
<path fill-rule="evenodd" clip-rule="evenodd" d="M95.2632 146.556L104.289 144.223L104.315 144.322L95.3054 146.65L95.2632 146.556Z" fill="#F19B25"/>
<path fill-rule="evenodd" clip-rule="evenodd" d="M95.2359 146.494L104.273 144.158L104.299 144.259L95.2785 146.59L95.2359 146.494Z" fill="#F19B25"/>
<path fill-rule="evenodd" clip-rule="evenodd" d="M95.21 146.432L104.256 144.093L104.282 144.192L95.2481 146.521L95.21 146.432Z" fill="#F19A24"/>
<path fill-rule="evenodd" clip-rule="evenodd" d="M95.1807 146.362L104.237 144.021L104.264 144.122L95.2218 146.459L95.1807 146.362Z" fill="#F19A24"/>
<path fill-rule="evenodd" clip-rule="evenodd" d="M95.1556 146.3L104.219 143.957L104.246 144.056L95.1957 146.397L95.1556 146.3Z" fill="#F19823"/>
<path fill-rule="evenodd" clip-rule="evenodd" d="M95.1308 146.239L104.201 143.892L104.229 143.993L95.1694 146.335L95.1308 146.239Z" fill="#F19823"/>
<path fill-rule="evenodd" clip-rule="evenodd" d="M95.1035 146.17L104.183 143.829L104.21 143.923L95.142 146.267L95.1035 146.17Z" fill="#EF9723"/>
<path fill-rule="evenodd" clip-rule="evenodd" d="M95.0795 146.107L104.164 143.759L104.191 143.857L95.1166 146.203L95.0795 146.107Z" fill="#EF9623"/>
<path fill-rule="evenodd" clip-rule="evenodd" d="M95.0557 146.042L104.144 143.693L104.173 143.793L95.0927 146.14L95.0557 146.042Z" fill="#EF9623"/>
<path fill-rule="evenodd" clip-rule="evenodd" d="M95.0334 145.981L104.126 143.63L104.155 143.729L95.0684 146.077L95.0334 145.981Z" fill="#EF9523"/>
<path fill-rule="evenodd" clip-rule="evenodd" d="M95.0085 145.91L104.106 143.565L104.134 143.659L95.043 146.009L95.0085 145.91Z" fill="#EF9424"/>
<path fill-rule="evenodd" clip-rule="evenodd" d="M94.9871 145.847L104.085 143.495L104.115 143.593L95.0211 145.946L94.9871 145.847Z" fill="#EF9424"/>
<path fill-rule="evenodd" clip-rule="evenodd" d="M94.9662 145.784L104.065 143.431L104.096 143.53L94.9987 145.882L94.9662 145.784Z" fill="#F09324"/>
<path fill-rule="evenodd" clip-rule="evenodd" d="M94.9461 145.719L104.045 143.367L104.076 143.467L94.9776 145.819C94.9669 145.785 94.9563 145.753 94.9461 145.719Z" fill="#EF9225"/>
<path fill-rule="evenodd" clip-rule="evenodd" d="M94.9247 145.65L104.026 143.305L104.054 143.396L94.9547 145.748L94.9247 145.65Z" fill="#EF9125"/>
<path fill-rule="evenodd" clip-rule="evenodd" d="M94.9055 145.585L104.002 143.234L104.034 143.333L94.935 145.685C94.9248 145.652 94.9152 145.619 94.9055 145.585Z" fill="#EF9125"/>
<path fill-rule="evenodd" clip-rule="evenodd" d="M94.8877 145.522L103.982 143.171L104.014 143.269L94.9156 145.62L94.8877 145.522Z" fill="#EE9024"/>
<path fill-rule="evenodd" clip-rule="evenodd" d="M94.8698 145.456L103.96 143.106L103.993 143.206L94.8972 145.557C94.8881 145.523 94.879 145.49 94.8698 145.456Z" fill="#EE8F24"/>
<path fill-rule="evenodd" clip-rule="evenodd" d="M94.8521 145.386L103.937 143.037L103.951 143.08L103.97 143.135L94.878 145.487C94.8689 145.453 94.8602 145.419 94.8521 145.386Z" fill="#EE8F24"/>
<path fill-rule="evenodd" clip-rule="evenodd" d="M94.8364 145.321L103.915 142.973L103.948 143.072L94.8608 145.421C94.8527 145.387 94.8445 145.354 94.8364 145.321Z" fill="#EE8E24"/>
<path fill-rule="evenodd" clip-rule="evenodd" d="M94.8216 145.255L103.893 142.91L103.927 143.009L94.8449 145.357C94.8368 145.323 94.8292 145.289 94.8216 145.255Z" fill="#EE8E24"/>
<path fill-rule="evenodd" clip-rule="evenodd" d="M94.8074 145.19L103.871 142.847L103.905 142.944L94.8277 145.284C94.8211 145.252 94.814 145.221 94.8074 145.19Z" fill="#EE8E24"/>
<path fill-rule="evenodd" clip-rule="evenodd" d="M94.7927 145.118L103.846 142.777L103.881 142.876L94.8135 145.22C94.8064 145.186 94.7993 145.152 94.7927 145.118Z" fill="#EE8D24"/>
<path fill-rule="evenodd" clip-rule="evenodd" d="M94.7805 145.052L103.823 142.715L103.858 142.812L94.8003 145.155C94.7931 145.121 94.7871 145.087 94.7805 145.052Z" fill="#EE8B23"/>
<path fill-rule="evenodd" clip-rule="evenodd" d="M94.7689 144.985L103.799 142.651L103.836 142.749L94.7871 145.088C94.781 145.054 94.775 145.02 94.7689 144.985Z" fill="#EE8B23"/>
<path fill-rule="evenodd" clip-rule="evenodd" d="M94.7587 144.92L103.776 142.589L103.813 142.687L94.7745 145.017C94.7689 144.984 94.7638 144.952 94.7587 144.92Z" fill="#EE8B23"/>
<path fill-rule="evenodd" clip-rule="evenodd" d="M94.748 144.848L103.749 142.52L103.786 142.617L94.7633 144.95C94.7577 144.916 94.7526 144.882 94.748 144.848Z" fill="#ED8A24"/>
<path fill-rule="evenodd" clip-rule="evenodd" d="M94.7394 144.779L103.725 142.457L103.763 142.554L94.7531 144.883C94.748 144.848 94.7434 144.814 94.7394 144.779Z" fill="#EE8824"/>
<path fill-rule="evenodd" clip-rule="evenodd" d="M94.7313 144.713L103.701 142.395L103.739 142.491L94.744 144.816C94.7394 144.782 94.7353 144.748 94.7313 144.713Z" fill="#EE8824"/>
<path fill-rule="evenodd" clip-rule="evenodd" d="M94.7247 144.646L103.676 142.332L103.714 142.429L94.7349 144.744C94.7313 144.711 94.7278 144.679 94.7247 144.646Z" fill="#EE8724"/>
<path fill-rule="evenodd" clip-rule="evenodd" d="M94.7181 144.572L103.648 142.263L103.687 142.359L94.7277 144.677C94.7242 144.642 94.7206 144.607 94.7181 144.572Z" fill="#EE8724"/>
<path fill-rule="evenodd" clip-rule="evenodd" d="M94.713 144.503L103.622 142.2L103.662 142.298L94.7211 144.609C94.718 144.574 94.7155 144.539 94.713 144.503Z" fill="#EE8724"/>
<path fill-rule="evenodd" clip-rule="evenodd" d="M94.709 144.436L103.597 142.139L103.637 142.236L94.7156 144.542C94.7131 144.507 94.7111 144.472 94.709 144.436Z" fill="#EE8524"/>
<path fill-rule="evenodd" clip-rule="evenodd" d="M94.7053 144.362L103.571 142.075L103.609 142.166L94.7104 144.466C94.7084 144.431 94.7068 144.396 94.7053 144.362Z" fill="#EE8424"/>
<path fill-rule="evenodd" clip-rule="evenodd" d="M94.7034 144.292L103.542 142.007L103.583 142.104L94.7069 144.398C94.7054 144.363 94.7044 144.328 94.7034 144.292Z" fill="#EE8424"/>
<path fill-rule="evenodd" clip-rule="evenodd" d="M94.7017 144.225L103.515 141.946L103.556 142.042L94.7043 144.33C94.7032 144.295 94.7022 144.26 94.7017 144.225Z" fill="#EE8424"/>
<path fill-rule="evenodd" clip-rule="evenodd" d="M94.7017 144.155L103.488 141.884L103.53 141.98L94.7022 144.262L94.7017 144.196V144.155Z" fill="#ED8225"/>
<path fill-rule="evenodd" clip-rule="evenodd" d="M94.7023 144.079L103.461 141.822L103.5 141.911L94.7017 144.186C94.7012 144.151 94.7017 144.115 94.7023 144.079Z" fill="#ED8225"/>
<path fill-rule="evenodd" clip-rule="evenodd" d="M94.7038 144.009L103.43 141.753L103.473 141.85L94.7017 144.117C94.7022 144.081 94.7027 144.045 94.7038 144.009Z" fill="#ED8224"/>
<path fill-rule="evenodd" clip-rule="evenodd" d="M94.7058 143.94L103.402 141.692L103.446 141.789L94.7028 144.048L94.7058 143.94Z" fill="#ED8124"/>
<path fill-rule="evenodd" clip-rule="evenodd" d="M94.709 143.871L103.374 141.63L103.418 141.726L94.7049 143.978C94.7059 143.943 94.7074 143.907 94.709 143.871Z" fill="#ED8025"/>
<path fill-rule="evenodd" clip-rule="evenodd" d="M94.7135 143.793L103.345 141.569L103.387 141.659L94.7079 143.902L94.7135 143.793Z" fill="#ED8025"/>
<path fill-rule="evenodd" clip-rule="evenodd" d="M94.7186 143.723L103.314 141.501L103.358 141.596L94.7115 143.831C94.7135 143.795 94.7161 143.76 94.7186 143.723Z" fill="#ED7F24"/>
<path fill-rule="evenodd" clip-rule="evenodd" d="M94.7241 143.652L103.284 141.439L103.33 141.535L94.7155 143.762C94.7181 143.725 94.7211 143.689 94.7241 143.652Z" fill="#ED7E25"/>
<path fill-rule="evenodd" clip-rule="evenodd" d="M94.7302 143.582L103.255 141.378L103.3 141.472L94.7205 143.692C94.7236 143.655 94.7266 143.619 94.7302 143.582Z" fill="#ED7E25"/>
<path fill-rule="evenodd" clip-rule="evenodd" d="M94.738 143.503L103.222 141.31L103.269 141.405L94.7273 143.614L94.738 143.503Z" fill="#ED7D25"/>
<path fill-rule="evenodd" clip-rule="evenodd" d="M94.7455 143.432L103.192 141.249L103.239 141.345L94.7338 143.543C94.7374 143.506 94.7414 143.47 94.7455 143.432Z" fill="#EC7C24"/>
<path fill-rule="evenodd" clip-rule="evenodd" d="M94.7536 143.363L103.161 141.188L103.209 141.283L94.7414 143.472L94.7536 143.363Z" fill="#EC7C24"/>
<path fill-rule="evenodd" clip-rule="evenodd" d="M94.7628 143.29L103.131 141.127L103.179 141.222L94.7501 143.394L94.7628 143.29Z" fill="#EC7B24"/>
<path fill-rule="evenodd" clip-rule="evenodd" d="M94.7735 143.213L103.097 141.061L103.145 141.155L94.7587 143.322L94.7735 143.213Z" fill="#EC7A24"/>
<path fill-rule="evenodd" clip-rule="evenodd" d="M94.7842 143.14L103.066 140.999L103.114 141.094L94.768 143.251L94.7842 143.14Z" fill="#EC7925"/>
<path fill-rule="evenodd" clip-rule="evenodd" d="M94.7946 143.069L103.034 140.939L103.083 141.032L94.7779 143.18L94.7946 143.069Z" fill="#EC7925"/>
<path fill-rule="evenodd" clip-rule="evenodd" d="M94.8064 142.995L103.001 140.877L103.051 140.971L94.7896 143.101L94.8064 142.995Z" fill="#EC7825"/>
<path fill-rule="evenodd" clip-rule="evenodd" d="M94.8196 142.917L102.966 140.812L103.017 140.906L94.8008 143.03L94.8196 142.917Z" fill="#EC7725"/>
<path fill-rule="evenodd" clip-rule="evenodd" d="M94.8322 142.846L102.933 140.75L102.984 140.844L94.8129 142.956L94.8322 142.846Z" fill="#EC7725"/>
<path fill-rule="evenodd" clip-rule="evenodd" d="M94.8456 142.772L102.901 140.69L102.952 140.784L94.8253 142.885L94.8456 142.772Z" fill="#EC7625"/>
<path fill-rule="evenodd" clip-rule="evenodd" d="M94.8592 142.701L102.868 140.63L102.919 140.723L94.8394 142.805L94.8592 142.701Z" fill="#EC7525"/>
<path fill-rule="evenodd" clip-rule="evenodd" d="M94.8749 142.619L102.831 140.563L102.883 140.657L94.8531 142.733L94.8749 142.619Z" fill="#EB7524"/>
<path fill-rule="evenodd" clip-rule="evenodd" d="M94.8897 142.548L102.797 140.503L102.849 140.596L94.8669 142.661L94.8897 142.548Z" fill="#EB7424"/>
<path fill-rule="evenodd" clip-rule="evenodd" d="M94.9049 142.475L102.763 140.442L102.816 140.536L94.8816 142.587L94.9049 142.475Z" fill="#EB7325"/>
<path fill-rule="evenodd" clip-rule="evenodd" d="M94.9226 142.394L102.729 140.382L102.779 140.47L94.8983 142.507L94.9226 142.394Z" fill="#EB7325"/>
<path fill-rule="evenodd" clip-rule="evenodd" d="M94.9389 142.322L102.691 140.316L102.745 140.41L94.9141 142.434L94.9389 142.322Z" fill="#EB7224"/>
<path fill-rule="evenodd" clip-rule="evenodd" d="M94.9562 142.246L102.656 140.256L102.711 140.35L94.9298 142.361L94.9562 142.246Z" fill="#EB7124"/>
<path fill-rule="evenodd" clip-rule="evenodd" d="M94.9734 142.174L102.621 140.197L102.675 140.289L94.9465 142.287L94.9734 142.174Z" fill="#EB7024"/>
<path fill-rule="evenodd" clip-rule="evenodd" d="M94.9928 142.093L102.585 140.137L102.637 140.225L94.9654 142.207L94.9928 142.093Z" fill="#EB7024"/>
<path fill-rule="evenodd" clip-rule="evenodd" d="M95.0115 142.019L102.546 140.071L102.601 140.163L94.9831 142.134L95.0115 142.019Z" fill="#EB6F24"/>
<path fill-rule="evenodd" clip-rule="evenodd" d="M95.0297 141.946L102.509 140.011L102.566 140.104L95.0013 142.059L95.0297 141.946Z" fill="#EB6E24"/>
<path fill-rule="evenodd" clip-rule="evenodd" d="M95.049 141.872L102.473 139.952L102.53 140.045L95.0196 141.987L95.049 141.872Z" fill="#EA6E24"/>
<path fill-rule="evenodd" clip-rule="evenodd" d="M95.0704 141.791L102.437 139.893L102.49 139.978L95.0405 141.904L95.0704 141.791Z" fill="#EA6D24"/>
<path fill-rule="evenodd" clip-rule="evenodd" d="M95.0913 141.714L102.396 139.826L102.454 139.919L95.0598 141.83L95.0913 141.714Z" fill="#EA6C24"/>
<path fill-rule="evenodd" clip-rule="evenodd" d="M95.1116 141.641L102.359 139.768L102.416 139.859L95.0801 141.755L95.1116 141.641Z" fill="#EA6C24"/>
<path fill-rule="evenodd" clip-rule="evenodd" d="M95.1329 141.567L102.321 139.708L102.38 139.801L95.0999 141.683L95.1329 141.567Z" fill="#EA6B24"/>
<path fill-rule="evenodd" clip-rule="evenodd" d="M95.1562 141.485L102.28 139.644L102.338 139.734L95.1227 141.601L95.1562 141.485Z" fill="#EA6A24"/>
<path fill-rule="evenodd" clip-rule="evenodd" d="M95.1775 141.411L102.241 139.584L102.3 139.676L95.1445 141.526L95.1775 141.411Z" fill="#EA6A24"/>
<path fill-rule="evenodd" clip-rule="evenodd" d="M95.1998 141.336L102.203 139.525L102.263 139.617L95.1658 141.452L95.1998 141.336Z" fill="#EA6924"/>
<path fill-rule="evenodd" clip-rule="evenodd" d="M95.2222 141.262L102.165 139.467L102.224 139.557L95.1897 141.37L95.2222 141.262Z" fill="#EA6924"/>
<path fill-rule="evenodd" clip-rule="evenodd" d="M95.2481 141.177L102.121 139.401L102.182 139.493L95.2126 141.295L95.2481 141.177Z" fill="#EA6823"/>
<path fill-rule="evenodd" clip-rule="evenodd" d="M95.2714 141.104L102.083 139.343L102.142 139.434L95.2359 141.219L95.2714 141.104Z" fill="#E96824"/>
<path fill-rule="evenodd" clip-rule="evenodd" d="M95.2958 141.027L102.042 139.284L102.104 139.375L95.2588 141.145L95.2958 141.027Z" fill="#E86724"/>
<path fill-rule="evenodd" clip-rule="evenodd" d="M95.3197 140.953L102.003 139.225L102.064 139.314L95.2841 141.063L95.3197 140.953Z" fill="#E86623"/>
<path fill-rule="evenodd" clip-rule="evenodd" d="M95.3466 140.872L101.958 139.161L102.021 139.252L95.309 140.987L95.3466 140.872Z" fill="#E86623"/>
<path fill-rule="evenodd" clip-rule="evenodd" d="M95.3719 140.795L101.918 139.103L101.981 139.194L95.3328 140.912L95.3719 140.795Z" fill="#E86523"/>
<path fill-rule="evenodd" clip-rule="evenodd" d="M95.397 140.72L101.878 139.044L101.941 139.134L95.3584 140.836L95.397 140.72Z" fill="#E86423"/>
<path fill-rule="evenodd" clip-rule="evenodd" d="M95.4233 140.643L101.836 138.985L101.9 139.076L95.3853 140.755L95.4233 140.643Z" fill="#E86423"/>
<path fill-rule="evenodd" clip-rule="evenodd" d="M95.4515 140.56L101.791 138.921L101.854 139.011L95.4114 140.676L95.4515 140.56Z" fill="#E86323"/>
<path fill-rule="evenodd" clip-rule="evenodd" d="M95.4791 140.483L101.749 138.862L101.814 138.953L95.4375 140.601L95.4563 140.547L95.4791 140.483Z" fill="#E86223"/>
<path fill-rule="evenodd" clip-rule="evenodd" d="M95.506 140.409L101.708 138.805L101.772 138.895L95.4639 140.527L95.506 140.409Z" fill="#E86223"/>
<path fill-rule="evenodd" clip-rule="evenodd" d="M95.5355 140.327L101.665 138.746L101.726 138.831L95.4939 140.442L95.5355 140.327Z" fill="#E66123"/>
<path fill-rule="evenodd" clip-rule="evenodd" d="M95.5639 140.248L101.619 138.683L101.685 138.773L95.5208 140.367L95.5639 140.248Z" fill="#E76023"/>
<path fill-rule="evenodd" clip-rule="evenodd" d="M95.5914 140.173L101.576 138.626L101.642 138.715L95.5487 140.29L95.5914 140.173Z" fill="#E76023"/>
<path fill-rule="evenodd" clip-rule="evenodd" d="M95.6198 140.095L101.533 138.566L101.6 138.657L95.5761 140.214L95.6198 140.095Z" fill="#E76023"/>
<path fill-rule="evenodd" clip-rule="evenodd" d="M95.6493 140.014L101.49 138.509L101.552 138.592L95.6071 140.129L95.6493 140.014Z" fill="#E75F23"/>
<path fill-rule="evenodd" clip-rule="evenodd" d="M95.6781 139.935L101.441 138.445L101.509 138.535L95.6349 140.054L95.6781 139.935Z" fill="#E75E23"/>
<path fill-rule="evenodd" clip-rule="evenodd" d="M95.7055 139.86L101.398 138.389L101.465 138.477L95.6624 139.978L95.7055 139.86Z" fill="#E75E23"/>
<path fill-rule="evenodd" clip-rule="evenodd" d="M95.733 139.785L101.354 138.33L101.422 138.42L95.6903 139.902L95.733 139.785Z" fill="#E75D24"/>
<path fill-rule="evenodd" clip-rule="evenodd" d="M95.7624 139.702L101.309 138.272L101.374 138.357L95.7203 139.819L95.7624 139.702Z" fill="#E85C24"/>
<path fill-rule="evenodd" clip-rule="evenodd" d="M95.7892 139.625L101.261 138.21L101.33 138.299L95.7481 139.741L95.7892 139.625Z" fill="#E85C24"/>
<path fill-rule="evenodd" clip-rule="evenodd" d="M95.8158 139.548L101.216 138.152L101.286 138.242L95.7747 139.666L95.8158 139.548Z" fill="#E75B24"/>
<path fill-rule="evenodd" clip-rule="evenodd" d="M95.8406 139.473L101.171 138.096L101.24 138.184L95.8015 139.589L95.8406 139.473Z" fill="#E75A24"/>
<path fill-rule="evenodd" clip-rule="evenodd" d="M95.8679 139.389L101.12 138.031L101.191 138.121L95.8293 139.506L95.8679 139.389Z" fill="#E75925"/>
<path fill-rule="evenodd" clip-rule="evenodd" d="M95.8914 139.315L101.075 137.975L101.145 138.063L95.8543 139.432C95.8675 139.393 95.8797 139.354 95.8914 139.315Z" fill="#E75925"/>
<path fill-rule="evenodd" clip-rule="evenodd" d="M95.9143 139.241L101.029 137.917L101.1 138.006L95.8787 139.356C95.8909 139.317 95.9026 139.279 95.9143 139.241Z" fill="#E75925"/>
<path fill-rule="evenodd" clip-rule="evenodd" d="M95.936 139.166L100.983 137.861L101.054 137.949L95.9035 139.276C95.9147 139.24 95.9253 139.203 95.936 139.166Z" fill="#E75825"/>
<path fill-rule="evenodd" clip-rule="evenodd" d="M95.9578 139.084L100.932 137.798L101.003 137.886L95.9263 139.198C95.9375 139.16 95.9477 139.122 95.9578 139.084Z" fill="#E75825"/>
<path fill-rule="evenodd" clip-rule="evenodd" d="M95.9772 139.009L100.885 137.741L100.958 137.83L95.9472 139.125C95.9574 139.086 95.9675 139.048 95.9772 139.009Z" fill="#E75725"/>
<path fill-rule="evenodd" clip-rule="evenodd" d="M95.9944 138.937L100.839 137.685L100.911 137.772L95.9665 139.051C95.9766 139.013 95.9858 138.974 95.9944 138.937Z" fill="#E75625"/>
<path fill-rule="evenodd" clip-rule="evenodd" d="M96.0106 138.862L100.791 137.627L100.863 137.714L95.9863 138.971C95.9949 138.935 96.003 138.899 96.0106 138.862Z" fill="#E75625"/>
<path fill-rule="evenodd" clip-rule="evenodd" d="M96.0263 138.783L100.739 137.565L100.781 137.615L100.812 137.652L96.0035 138.896C96.0116 138.858 96.0192 138.821 96.0263 138.783Z" fill="#E75525"/>
<path fill-rule="evenodd" clip-rule="evenodd" d="M96.039 138.711L100.691 137.508L100.765 137.596L96.0187 138.822C96.0263 138.786 96.0329 138.748 96.039 138.711Z" fill="#E65425"/>
<path fill-rule="evenodd" clip-rule="evenodd" d="M96.0502 138.64L100.644 137.452L100.718 137.54L96.0319 138.752C96.039 138.714 96.0446 138.677 96.0502 138.64Z" fill="#E65425"/>
<path fill-rule="evenodd" clip-rule="evenodd" d="M96.0593 138.568L100.597 137.396L100.669 137.481L96.0451 138.673C96.0502 138.638 96.0553 138.603 96.0593 138.568Z" fill="#E65325"/>
<path fill-rule="evenodd" clip-rule="evenodd" d="M96.0675 138.49L100.542 137.333L100.617 137.421L96.0553 138.6C96.0604 138.563 96.0644 138.526 96.0675 138.49Z" fill="#E65225"/>
<path fill-rule="evenodd" clip-rule="evenodd" d="M96.073 138.42L100.494 137.277L100.569 137.364L96.0638 138.529C96.0674 138.493 96.0704 138.456 96.073 138.42Z" fill="#E65125"/>
<path fill-rule="evenodd" clip-rule="evenodd" d="M96.0772 138.349L100.445 137.22L100.521 137.308L96.0706 138.458C96.0732 138.422 96.0757 138.385 96.0772 138.349Z" fill="#E65125"/>
<path fill-rule="evenodd" clip-rule="evenodd" d="M96.0792 138.276L100.396 137.163L100.468 137.246L96.0756 138.382C96.0771 138.346 96.0787 138.311 96.0792 138.276Z" fill="#E65025"/>
<path fill-rule="evenodd" clip-rule="evenodd" d="M96.0791 138.204L100.342 137.102L100.418 137.189L96.0781 138.311C96.0791 138.275 96.0796 138.239 96.0791 138.204Z" fill="#E64F25"/>
<path fill-rule="evenodd" clip-rule="evenodd" d="M96.0771 138.135L100.292 137.046L100.37 137.134L96.0792 138.242C96.0797 138.207 96.0787 138.172 96.0771 138.135Z" fill="#E64F25"/>
<path fill-rule="evenodd" clip-rule="evenodd" d="M96.0736 138.068L100.243 136.99L100.319 137.076L96.0782 138.172C96.0777 138.138 96.0761 138.103 96.0736 138.068Z" fill="#E64F25"/>
<path fill-rule="evenodd" clip-rule="evenodd" d="M96.0681 137.994L100.191 136.932L100.265 137.015L96.0757 138.098C96.0736 138.064 96.0711 138.029 96.0681 137.994Z" fill="#E64E25"/>
<path fill-rule="evenodd" clip-rule="evenodd" d="M96.0605 137.926L100.138 136.873L100.215 136.959L96.0711 138.031C96.0686 137.996 96.0651 137.961 96.0605 137.926Z" fill="#E64E25"/>
<path fill-rule="evenodd" clip-rule="evenodd" d="M96.0518 137.858L100.087 136.815L100.165 136.903L96.065 137.962C96.061 137.928 96.0569 137.893 96.0518 137.858Z" fill="#E54D25"/>
<path fill-rule="evenodd" clip-rule="evenodd" d="M96.0412 137.793L100.037 136.76L100.115 136.847L96.0569 137.896C96.0534 137.867 96.0488 137.838 96.0437 137.808L96.0412 137.793Z" fill="#E54C25"/>
<path fill-rule="evenodd" clip-rule="evenodd" d="M96.0284 137.723L99.9843 136.702L100.059 136.785L96.0462 137.822L96.0437 137.808C96.0391 137.78 96.034 137.752 96.0284 137.723Z" fill="#E54C25"/>
<path fill-rule="evenodd" clip-rule="evenodd" d="M96.0137 137.655L99.93 136.643L100.009 136.729L96.0345 137.757C96.0284 137.723 96.0213 137.689 96.0137 137.655Z" fill="#E54B25"/>
<path fill-rule="evenodd" clip-rule="evenodd" d="M95.9995 137.59L99.8797 136.587L99.9574 136.673L96.0213 137.69C96.0147 137.657 96.0071 137.624 95.9995 137.59Z" fill="#E54A25"/>
<path fill-rule="evenodd" clip-rule="evenodd" d="M95.9827 137.525L99.8274 136.531L99.9071 136.618L96.0075 137.626C95.9999 137.592 95.9913 137.559 95.9827 137.525Z" fill="#E54925"/>
<path fill-rule="evenodd" clip-rule="evenodd" d="M95.9639 137.454L99.7715 136.47L99.8507 136.556L95.9903 137.554C95.9821 137.521 95.973 137.487 95.9639 137.454Z" fill="#E54925"/>
<path fill-rule="evenodd" clip-rule="evenodd" d="M95.9451 137.389L99.7198 136.414L99.7995 136.5L95.9736 137.489C95.9644 137.457 95.9553 137.423 95.9451 137.389Z" fill="#E54825"/>
<path fill-rule="evenodd" clip-rule="evenodd" d="M95.9258 137.326L99.669 136.359L99.7492 136.446L95.9557 137.426C95.9461 137.393 95.9364 137.36 95.9258 137.326Z" fill="#E44725"/>
<path fill-rule="evenodd" clip-rule="evenodd" d="M95.9061 137.261L99.6173 136.302L99.6954 136.387L95.9355 137.356L95.9061 137.261Z" fill="#E44725"/>
<path fill-rule="evenodd" clip-rule="evenodd" d="M95.8833 137.192L99.561 136.242L99.6412 136.329L95.9153 137.292C95.9051 137.258 95.8945 137.226 95.8833 137.192Z" fill="#E44725"/>
<path fill-rule="evenodd" clip-rule="evenodd" d="M95.8619 137.13L99.5101 136.187L99.5888 136.272L95.8944 137.227L95.8619 137.13Z" fill="#E44625"/>
<path fill-rule="evenodd" clip-rule="evenodd" d="M95.8391 137.065L99.4578 136.129L99.5381 136.216L95.8736 137.163L95.8391 137.065Z" fill="#E44625"/>
<path fill-rule="evenodd" clip-rule="evenodd" d="M95.8167 137.003L99.4071 136.075L99.4847 136.16L95.8502 137.096L95.8167 137.003Z" fill="#E44525"/>
<path fill-rule="evenodd" clip-rule="evenodd" d="M95.7908 136.932L99.3497 136.012L99.4299 136.099L95.8269 137.03L95.7908 136.932Z" fill="#E44425"/>
<path fill-rule="evenodd" clip-rule="evenodd" d="M95.7679 136.87L99.2988 135.957L99.3791 136.044L95.8039 136.968L95.7679 136.87Z" fill="#E34324"/>
<path fill-rule="evenodd" clip-rule="evenodd" d="M95.7442 136.808L99.2477 135.901L99.3269 135.988L95.7808 136.904L95.7442 136.808Z" fill="#E34324"/>
<path fill-rule="evenodd" clip-rule="evenodd" d="M95.7198 136.744L99.1969 135.845L99.2751 135.931L95.7558 136.838L95.7198 136.744Z" fill="#E34225"/>
<path fill-rule="evenodd" clip-rule="evenodd" d="M95.6929 136.676L99.1416 135.784L99.2198 135.87L95.7304 136.772L95.6929 136.676Z" fill="#E34224"/>
<path fill-rule="evenodd" clip-rule="evenodd" d="M95.6678 136.613L99.0901 135.728L99.1693 135.815L95.7064 136.71L95.6678 136.613Z" fill="#E34224"/>
<path fill-rule="evenodd" clip-rule="evenodd" d="M95.6435 136.551L99.0404 135.673L99.1181 135.759L95.6816 136.648L95.6435 136.551Z" fill="#E34124"/>
<path fill-rule="evenodd" clip-rule="evenodd" d="M95.6161 136.483L98.9877 135.613L99.0628 135.697L95.6542 136.578L95.6161 136.483Z" fill="#E34025"/>
<path fill-rule="evenodd" clip-rule="evenodd" d="M95.5908 136.419L98.935 135.555L99.0131 135.642L95.6299 136.516L95.5908 136.419Z" fill="#E34025"/>
<path fill-rule="evenodd" clip-rule="evenodd" d="M95.5659 136.358L98.8847 135.499L98.9623 135.586L95.6045 136.454L95.5659 136.358Z" fill="#E33F25"/>
<path fill-rule="evenodd" clip-rule="evenodd" d="M95.5405 136.294L98.8354 135.442L98.9125 135.53L95.5796 136.391L95.5405 136.294Z" fill="#E33E25"/>
<path fill-rule="evenodd" clip-rule="evenodd" d="M95.5141 136.228L98.7851 135.385L98.8572 135.467L95.5517 136.322L95.5141 136.228Z" fill="#E33E25"/>
<path fill-rule="evenodd" clip-rule="evenodd" d="M95.4878 136.162L98.7319 135.324L98.8086 135.412L95.5269 136.26L95.4878 136.162Z" fill="#E33D25"/>
<path fill-rule="evenodd" clip-rule="evenodd" d="M95.4634 136.1L98.6841 135.268L98.7593 135.354L95.502 136.197L95.4634 136.1Z" fill="#E33C25"/>
<path fill-rule="evenodd" clip-rule="evenodd" d="M95.4384 136.038L98.6353 135.211L98.7105 135.299L95.4765 136.135L95.4384 136.038Z" fill="#E23B25"/>
<path fill-rule="evenodd" clip-rule="evenodd" d="M95.4114 135.971L98.5855 135.153L98.6576 135.237L95.4495 136.067L95.4114 135.971Z" fill="#E23B25"/>
<path fill-rule="evenodd" clip-rule="evenodd" d="M95.3862 135.907L98.5344 135.092L98.6085 135.18L95.4243 136.003L95.3862 135.907Z" fill="#E23A25"/>
<path fill-rule="evenodd" clip-rule="evenodd" d="M95.3618 135.844L98.4871 135.036L98.5613 135.124L95.3999 135.941L95.3618 135.844Z" fill="#E23925"/>
<path fill-rule="evenodd" clip-rule="evenodd" d="M95.338 135.782L98.4404 134.979L98.513 135.067L95.375 135.878L95.338 135.782Z" fill="#E23925"/>
<path fill-rule="evenodd" clip-rule="evenodd" d="M98.4612 135.004L95.3485 135.809C95.1642 135.332 94.9774 134.803 94.8322 134.204C94.4479 132.616 94.3464 130.541 94.9195 130.563C95.4922 130.584 96.7401 132.716 97.792 134.147C98.023 134.462 98.2444 134.743 98.4612 135.004Z" fill="#E33926"/>
<path fill-rule="evenodd" clip-rule="evenodd" d="M27.3572 78.0508L80.4902 80.5831V81.5554L27.3572 79.8031V78.0508Z" fill="#F2E9E1"/>
<path fill-rule="evenodd" clip-rule="evenodd" d="M47.6773 86.3191L80.5622 80.9546L80.6932 81.5624L47.9164 87.406L47.6773 86.3191Z" fill="#F2E9E1"/>
<path fill-rule="evenodd" clip-rule="evenodd" d="M57.7251 90.2524L80.6933 81.3691L80.8964 81.8124L58.0952 91.0465L57.7251 90.2524Z" fill="#F2E9E1"/>
<path fill-rule="evenodd" clip-rule="evenodd" d="M104.292 31.9244C105.809 31.4665 115.689 31.6387 117.242 31.8386C136.618 34.3204 152.833 40.3715 147.348 59.8474C141.501 80.6323 119.599 112.11 100.215 89.5514C100.063 89.3722 100.034 89.0647 99.9904 88.7356C116.313 106.574 141.791 76.4981 145.302 59.8044C151.484 30.4942 98.3217 33.7555 104.292 31.9244Z" fill="#F2E9E1"/>
<path fill-rule="evenodd" clip-rule="evenodd" d="M96.0873 31.9173C94.5713 31.4594 84.6902 31.631 83.1377 31.8315C63.7608 34.3133 47.5469 40.3643 53.0314 59.8402C58.8784 80.6252 80.78 112.103 100.165 89.5437C100.317 89.365 100.346 89.0576 100.389 88.7284C84.0663 106.567 58.588 76.491 55.0769 59.8044C48.8963 30.4871 102.058 33.7483 96.0873 31.9173Z" fill="#F2E9E1"/>
<path fill-rule="evenodd" clip-rule="evenodd" d="M100.165 77.5859C104.873 77.5859 108.681 78.8662 108.681 80.4545C108.681 82.0351 105.068 90.7538 100.165 90.7538C95.2604 90.7538 91.6406 82.0351 91.6406 80.4545C91.6406 78.8662 95.4563 77.5859 100.165 77.5859Z" fill="#F2E9E1"/>
<path fill-rule="evenodd" clip-rule="evenodd" d="M52.0156 34.3926C51.2322 32.6332 50.4488 27.3975 50.6519 23.6495C51.1525 14.4588 54.6636 5.44685 67.4751 0.583179C71.2477 -0.854112 74.2512 4.30287 75.0346 6.14101C76.0499 8.50116 80.5917 19.8233 80.5262 21.7331C80.2069 30.3942 72.6114 2.18555 68.2585 3.78742C52.1242 9.73146 52.5958 23.4637 59.1978 33.9064C57.493 34.7788 52.7989 36.1449 52.0156 34.3926Z" fill="#F2E9E1"/>
<path fill-rule="evenodd" clip-rule="evenodd" d="M60.634 147.142C51.5728 130.942 82.9565 120.542 84.3856 116.13C84.4511 115.929 84.4074 115.793 84.3638 115.593C81.4766 116.337 70.769 122.696 68.5488 124.448C60.1913 131.049 51.718 140.648 60.0608 150.382C73.4749 166.053 80.7074 162.648 88.8324 167.576C91.7491 169.343 91.7999 173.849 90.1387 175.029C76.0499 185.107 33.5307 153.522 40.1763 131.686C41.4018 127.637 68.5417 103.184 75.7235 92.3408C76.4347 91.2751 76.3764 90.431 74.7731 90.746C64.9722 101.703 54.0975 116.208 42.1273 125.535C28.5106 136.135 43.6509 160.031 64.7112 172.762C81.6071 182.975 98.6628 176.495 91.4445 168.692C90.4941 167.67 93.9256 166.975 87.846 165.23C79.8078 162.935 67.0979 158.722 61.4971 148.615C61.2219 148.115 60.9168 147.643 60.634 147.142Z" fill="#F2E9E1"/>
<path fill-rule="evenodd" clip-rule="evenodd" d="M83.3916 169.472C82.5285 169.773 83.022 170.08 84.1536 170.238C85.2781 170.395 87.0337 170.416 88.4121 170.359C89.7828 170.302 90.7769 170.173 90.9657 169.486C91.1541 168.807 90.5449 167.577 90.0372 167.334C89.5219 167.09 89.1081 167.842 87.7881 168.364C86.4747 168.886 84.2551 169.179 83.3916 169.472Z" fill="#F2E9E1"/>
<path fill-rule="evenodd" clip-rule="evenodd" d="M83.7327 173.52C82.8696 173.813 83.3702 174.121 84.4942 174.278C85.6188 174.443 87.3744 174.457 88.7527 174.4C90.124 174.343 91.118 174.214 91.7054 173.535C92.2857 172.848 92.4599 171.618 91.9522 171.374C91.4374 171.131 90.2402 171.882 88.5278 172.404C86.8159 172.927 84.5958 173.22 83.7327 173.52Z" fill="#F2E9E1"/>
<path fill-rule="evenodd" clip-rule="evenodd" d="M148.313 34.3926C149.096 32.6332 149.88 27.3975 149.677 23.6495C149.177 14.4588 145.665 5.44685 132.853 0.583179C129.074 -0.854112 126.078 4.30287 125.294 6.14101C124.279 8.50116 119.73 19.8233 119.802 21.7331C120.122 30.3942 127.717 2.18555 132.07 3.78742C148.204 9.73146 147.733 23.4637 141.131 33.9064C142.836 34.7788 147.53 36.1449 148.313 34.3926Z" fill="#F2E9E1"/>
<path fill-rule="evenodd" clip-rule="evenodd" d="M91.0596 56.3287C91.0814 56.5432 91.0961 56.7648 91.0961 56.9794C91.0961 61.1277 86.4823 64.4895 80.78 64.4895C75.0852 64.4895 70.4714 61.1277 70.4714 56.9794C70.4714 56.3857 70.5653 55.8137 70.7394 55.2559C71.1964 59.0967 75.6219 62.1147 81.0196 62.1147C85.9015 62.1147 89.9863 59.647 91.0596 56.3287Z" fill="#F2E9E1"/>
<path fill-rule="evenodd" clip-rule="evenodd" d="M109.269 56.3287C109.24 56.5432 109.232 56.7648 109.232 56.9794C109.232 61.1277 113.847 64.4895 119.541 64.4895C125.244 64.4895 129.858 61.1277 129.858 56.9794C129.858 56.3857 129.763 55.8137 129.589 55.2559C129.132 59.0967 124.707 62.1147 119.309 62.1147C114.427 62.1147 110.335 59.647 109.269 56.3287Z" fill="#F2E9E1"/>
<path fill-rule="evenodd" clip-rule="evenodd" d="M139.695 147.142C148.756 130.942 117.372 120.542 115.943 116.13C115.878 115.929 115.921 115.793 115.965 115.593C118.852 116.337 129.56 122.696 131.78 124.448C140.137 131.049 148.603 140.648 140.268 150.382C126.854 166.053 119.621 162.648 111.496 167.576C108.579 169.343 108.529 173.849 110.19 175.029C124.279 185.107 166.798 153.522 160.153 131.686C158.927 127.637 131.78 103.184 124.605 92.3408C123.894 91.2751 123.952 90.431 125.555 90.746C135.356 101.703 146.231 116.208 158.201 125.535C171.818 136.135 156.678 160.031 135.618 172.762C118.721 182.975 101.666 176.495 108.885 168.692C109.827 167.67 106.403 166.975 112.483 165.23C120.521 162.935 133.231 158.722 138.831 148.615C139.107 148.115 139.412 147.643 139.695 147.142Z" fill="#F2E9E1"/>
<path fill-rule="evenodd" clip-rule="evenodd" d="M116.937 169.472C117.8 169.773 117.307 170.08 116.175 170.238C115.051 170.395 113.295 170.416 111.917 170.359C110.546 170.302 109.552 170.173 109.363 169.486C109.167 168.807 109.777 167.577 110.292 167.334C110.807 167.09 111.22 167.842 112.533 168.364C113.854 168.886 116.074 169.179 116.937 169.472Z" fill="#F2E9E1"/>
<path fill-rule="evenodd" clip-rule="evenodd" d="M116.596 173.52C117.452 173.813 116.959 174.121 115.834 174.278C114.71 174.443 112.947 174.457 111.576 174.4C110.205 174.343 109.211 174.214 108.623 173.535C108.043 172.848 107.869 171.618 108.376 171.374C108.892 171.131 110.089 171.882 111.801 172.404C113.513 172.927 115.733 173.22 116.596 173.52Z" fill="#F2E9E1"/>
<path fill-rule="evenodd" clip-rule="evenodd" d="M102.907 91.6904C103.131 91.9121 103.255 92.1625 103.255 92.427C103.255 93.2994 101.876 94.0147 100.165 94.0147C98.4521 94.0147 97.0667 93.2994 97.0667 92.427C97.0667 92.1983 97.1682 91.9837 97.3352 91.7833C97.7703 92.4911 98.8441 92.9919 100.092 92.9919C101.405 92.9919 102.508 92.4482 102.907 91.6904Z" fill="#F2E9E1"/>
<path fill-rule="evenodd" clip-rule="evenodd" d="M84.915 150.067H86.5254V164.851L86.4457 164.823C86.3442 164.794 86.2497 164.765 86.1482 164.737C86.1122 164.723 86.0685 164.715 86.0325 164.701C85.9309 164.673 85.8365 164.644 85.735 164.615L85.6263 164.58C85.5243 164.551 85.4227 164.516 85.3212 164.487C85.2851 164.473 85.2486 164.465 85.2125 164.451C85.1181 164.423 85.0166 164.394 84.9221 164.365L84.915 164.358V150.067ZM84.915 165.724V165.717L84.9221 165.724C84.9221 165.724 84.9221 165.724 84.915 165.724ZM91.089 175.78C96.4426 177.254 105.206 176.975 110.139 175.416C110.647 175.845 111.256 176.188 111.873 176.453C106.258 178.312 95.3257 178.634 89.2461 176.796C89.667 176.617 90.0584 176.424 90.4214 176.217L90.4432 176.202C90.5519 176.138 90.6605 176.073 90.7621 176.009C90.7768 175.995 90.7915 175.988 90.8057 175.973C90.9073 175.909 91.0017 175.845 91.089 175.78ZM113.803 165.824V150.067H115.406V165.588C115.239 165.531 115.058 165.503 114.877 165.503C114.586 165.503 114.216 165.617 113.803 165.824Z" fill="#F2E9E1"/>
<path fill-rule="evenodd" clip-rule="evenodd" d="M104.546 144.26C110.647 144.946 115.406 147.15 115.406 150.475C115.406 154.524 108.311 156.791 100.339 156.791C92.3582 156.791 84.915 154.588 84.915 150.532C84.915 147.386 89.4203 145.197 95.1728 144.381C95.1515 144.482 95.1439 144.589 95.1439 144.689C95.1439 145.197 95.347 145.676 95.6953 146.091C90.4214 146.542 86.6996 147.865 86.6996 150.103C86.6996 152.914 92.8735 155.868 100.309 155.868C107.738 155.868 113.629 152.914 113.629 150.103C113.629 147.829 109.559 146.492 104.067 146.07C104.401 145.655 104.597 145.19 104.597 144.689C104.597 144.546 104.582 144.403 104.546 144.26Z" fill="#F2E9E1"/>
<path fill-rule="evenodd" clip-rule="evenodd" d="M99.8087 136.113C101.702 138.681 101.18 136.986 101.884 137.443C102.805 138.037 102.928 138.938 103.697 139.868C106.476 143.222 104.111 149.38 105.3 150.067C105.438 150.153 105.417 152.299 104.031 150.897C103.937 150.797 103.349 143.401 102.087 141.806C97.4804 135.992 95.3111 131.693 95.3182 131.972C95.3908 133.538 94.049 132.329 96.6027 138.108C97.618 140.39 92.9026 144.381 97.386 148.458C99.1776 150.089 99.0761 150.947 100.73 152.606C101.158 153.043 101.557 153.472 102.029 153.872C102.051 153.887 102 153.901 101.971 153.915C100.825 154.452 100.048 153.801 99.2868 153.007C98.7644 152.456 98.2709 151.841 97.7774 151.262C95.8843 149.08 94.4694 147.292 94.0703 144.338C93.9109 143.129 93.9982 142.1 94.5059 140.977C95.1441 139.567 96.5372 138.602 95.5502 137.186C93.9982 134.976 93.1565 129.103 95.3979 129.304C95.797 129.34 96.2833 131.993 96.4935 132.415C98.1039 135.669 97.9155 133.538 99.8087 136.113Z" fill="#F2E9E1"/>
<path fill-rule="evenodd" clip-rule="evenodd" d="M101.934 150.004C101.267 149.925 100.469 148.802 100.077 147.472C99.6782 146.141 99.6782 144.603 99.6782 143.609C99.6782 142.615 99.6782 142.157 99.7579 142.636C99.8376 143.108 100.005 144.517 100.672 145.598C101.332 146.671 102.508 147.428 102.827 148.28C103.139 149.138 102.602 150.089 101.934 150.004Z" fill="#F2E9E1"/>
<path fill-rule="evenodd" clip-rule="evenodd" d="M172.747 78.0508L119.614 80.5831V81.5554L172.747 79.8031V78.0508Z" fill="#F2E9E1"/>
<path fill-rule="evenodd" clip-rule="evenodd" d="M152.426 86.3191L119.541 80.9546L119.411 81.5624L152.187 87.406L152.426 86.3191Z" fill="#F2E9E1"/>
<path fill-rule="evenodd" clip-rule="evenodd" d="M142.372 90.2524L119.411 81.3691L119.208 81.8124L142.009 91.0465L142.372 90.2524Z" fill="#F2E9E1"/>
<path d="M2.75674 198.117L5.44088 191.573C6.39837 189.206 7.11675 187.811 7.58839 187.396C8.06003 186.974 8.64032 186.767 9.32925 186.767C10.1055 186.788 10.831 187.138 11.5128 187.825C12.188 188.512 13.2034 190.3 14.5599 193.203L17.5487 199.669C18.7895 202.395 19.5368 204.061 19.7835 204.676C20.0374 205.291 20.1679 205.749 20.1679 206.049C20.1679 206.622 19.9211 207.086 19.4276 207.437C18.9347 207.794 18.3544 207.973 17.6868 207.973C17.1136 207.973 16.6278 207.858 16.2287 207.63C15.8226 207.394 15.3799 206.722 14.9011 205.599L14.0086 203.539C11.5494 197.931 10.2507 194.984 10.0984 194.698C9.9532 194.412 9.82983 194.176 9.73591 193.976C9.09724 192.896 8.7779 192.345 8.7779 192.338C8.7779 192.331 8.7779 192.324 8.7779 192.324C8.75607 192.324 8.72713 192.331 8.70581 192.338C8.68398 192.345 8.34992 193.44 7.71176 195.607C7.45792 196.393 7.07309 197.588 6.5583 199.19C6.04299 200.792 5.62212 202.244 5.30329 203.539L4.75195 205.728C4.4981 206.672 4.128 207.301 3.64925 207.601C3.1705 207.902 2.59732 208.052 1.92972 208.052C1.33471 208.052 0.863067 207.866 0.515302 207.494C0.174137 207.122 0 206.614 0 205.97C0 205.613 0.232013 204.776 0.689438 203.446C1.14636 202.122 1.83529 200.342 2.75674 198.117ZM33.4799 205.756V206.235C33.4581 206.986 33.2337 207.551 32.8128 207.937C32.3843 208.316 31.7827 208.51 31.0065 208.51C30.4333 208.51 29.9687 208.395 29.6276 208.174C29.2869 207.952 29.0549 207.644 28.9386 207.251C28.2061 207.487 27.473 207.659 26.7333 207.773C26.0007 207.887 25.3188 207.944 24.6731 207.944C23.2292 207.944 22.025 207.673 21.0604 207.122C20.0953 206.564 19.6165 205.813 19.6165 204.848C19.6165 203.389 20.574 202.101 22.4895 200.978C24.4045 199.855 26.7043 199.383 29.3885 199.562V198.546C29.3885 198.082 29.2651 197.767 29.026 197.595C28.7863 197.43 28.3873 197.345 27.8359 197.345C27.2628 197.345 26.6607 197.423 26.0149 197.574C25.3696 197.724 24.6365 197.967 23.8095 198.303C22.9175 198.682 22.192 198.761 21.6259 198.546C21.0675 198.332 20.7847 197.924 20.7847 197.316C20.7629 196.587 21.6478 195.936 23.4323 195.357C25.2244 194.777 26.9653 194.484 28.663 194.484C30.3388 194.505 31.572 194.913 32.363 195.714C33.1535 196.515 33.5596 197.76 33.5814 199.455V202.523C34.2054 202.487 34.7207 202.63 35.1339 202.938C35.5477 203.253 35.7508 203.596 35.7508 203.968C35.7508 204.34 35.5914 204.662 35.272 204.926C34.9527 205.198 34.3506 205.47 33.4799 205.756ZM29.2143 204.154V203.968C29.2143 203.31 29.0838 202.888 28.8153 202.716C28.5543 202.537 28.1263 202.445 27.5313 202.445C26.6607 202.445 25.8407 202.652 25.0645 203.074C24.303 203.489 23.9186 203.904 23.9186 204.319C23.9186 204.526 24.0126 204.705 24.2085 204.833C24.4045 204.969 24.6731 205.033 25.0137 205.033C25.6377 205.033 26.3271 204.955 27.0957 204.798C27.8649 204.633 28.5756 204.418 29.2143 204.154ZM49.5126 205.835L48.8598 202.445L48.6927 201.458C47.1986 204.59 46.2772 206.335 45.9218 206.693C45.5664 207.051 45.1237 207.229 44.5942 207.229C44.021 207.229 43.5712 207.108 43.2519 206.864C42.933 206.629 42.6716 206.192 42.4614 205.57C42.2583 205.055 42.0476 204.44 41.8445 203.725C41.6344 203.017 41.4602 202.323 41.3221 201.643C41.2353 202.144 41.1627 202.587 41.1191 202.981C41.0754 203.374 41.0246 204.369 40.9815 205.97L40.9449 206.829C40.9231 207.308 40.6693 207.687 40.1905 207.959C39.7118 208.238 39.1822 208.374 38.6091 208.374C38.014 208.374 37.55 208.216 37.2307 207.909C36.9114 207.594 36.7809 207.108 36.8535 206.45L36.919 205.649C36.9692 204.883 37.1363 203.739 37.4196 202.201C37.7094 200.671 37.9851 199.541 38.2679 198.811L38.7832 197.345C39.0081 196.651 39.3274 196.136 39.726 195.807C40.125 195.478 40.7997 195.314 41.743 195.314C42.2654 195.314 42.6645 195.414 42.9254 195.621C43.194 195.829 43.4118 196.15 43.6001 196.594L43.9413 197.531C44.0063 197.745 44.1296 198.203 44.3038 198.904C44.4779 199.612 44.8044 200.542 45.2831 201.7C45.3049 201.629 45.3049 201.622 45.2831 201.686C45.2613 201.743 45.7405 200.699 46.727 198.546L47.2783 197.345C47.6921 196.436 48.0475 195.893 48.3445 195.714C48.642 195.535 49.0486 195.442 49.5492 195.421C49.9843 195.421 50.3544 195.514 50.6519 195.7C50.9494 195.886 51.1667 196.143 51.3048 196.465L51.5805 197.238C51.6236 197.43 51.682 197.631 51.7546 197.824C51.8196 198.017 51.9937 198.597 52.2694 199.562C52.4725 200.256 52.6395 200.721 52.7481 200.964C52.8644 201.207 53.0238 201.686 53.2345 202.416L53.6478 203.968C54.0326 205.498 54.0905 206.543 53.8148 207.094C53.5391 207.644 52.9659 207.923 52.0952 207.923C51.3627 207.923 50.7753 207.744 50.3397 207.387C49.9046 207.029 49.6289 206.514 49.5126 205.835ZM56.8832 206.957V206.292C56.8543 204.741 56.7964 203.847 56.6878 203.596C56.5857 203.346 56.5568 202.03 56.6076 199.641C56.0562 199.641 55.6211 199.541 55.3165 199.333C55.0043 199.126 54.852 198.839 54.852 198.468C54.852 198.074 54.9028 197.781 55.0043 197.588C55.1058 197.388 55.6211 197.08 56.535 196.651C56.6294 196.315 56.8472 196.021 57.1884 195.779C57.5361 195.542 57.9352 195.421 58.3921 195.421C58.6246 195.421 58.8784 195.464 59.1688 195.556C59.4516 195.642 59.7491 195.757 60.0461 195.9L61.8022 195.449C62.9917 195.142 64.0218 194.913 64.8778 194.741C65.7414 194.569 66.4232 194.477 66.9309 194.462C67.5477 194.462 68.0265 194.605 68.3529 194.885C68.6864 195.17 68.8535 195.521 68.8535 195.929C68.8316 196.536 68.788 196.851 68.7159 196.88C68.6504 196.901 68.6215 197.202 68.6504 197.774C68.6504 199.054 68.7377 200.213 68.9042 201.243C69.0784 202.28 69.1728 202.831 69.1946 202.902L69.3688 204.211C69.579 205.863 69.4993 206.922 69.1292 207.387C68.759 207.851 68.1645 208.081 67.3375 208.081C66.6989 208.081 66.1622 207.858 65.7414 207.415C65.3134 206.965 65.0885 206.414 65.0666 205.756L64.9286 202.874C64.8854 202.122 64.8636 201.286 64.8636 200.363C64.8636 199.433 64.8854 198.503 64.9286 197.559C62.4983 198.096 61.2869 198.36 61.3016 198.36C61.3158 198.36 60.9605 198.475 60.2497 198.704C60.2279 200.806 60.3655 202.316 60.663 203.231C60.9605 204.146 61.1128 205.391 61.1128 206.957C61.1128 207.472 60.895 207.887 60.4599 208.202C60.0248 208.51 59.4948 208.667 58.8784 208.667C58.3271 208.667 57.8555 208.524 57.4635 208.231C57.0721 207.937 56.8832 207.508 56.8832 206.957ZM79.0026 197.559L78.3137 197.48C77.5375 197.388 77.2542 196.973 77.472 196.236C77.6898 195.499 78.5599 195.127 80.0693 195.127C81.4695 195.142 82.6955 195.693 83.7327 196.773C84.7776 197.845 85.2995 199.247 85.2995 200.978C85.2782 202.938 84.6034 204.619 83.2682 206.02C81.9406 207.429 80.3231 208.138 78.4223 208.138C76.6307 208.138 75.0488 207.53 73.6704 206.321C72.292 205.105 71.6031 203.725 71.6031 202.18C71.6031 201.021 72.0164 199.776 72.8434 198.453C73.6704 197.123 74.5919 196.465 75.6001 196.465C76.1007 196.465 76.5505 196.63 76.9424 196.958C77.3344 197.288 77.5375 197.609 77.5593 197.931C77.5375 197.988 77.5156 198.039 77.4938 198.096C77.472 198.146 77.3344 198.303 77.08 198.575L76.6668 198.997C76.3911 199.269 76.1733 199.655 76.0139 200.163C75.8469 200.671 75.7672 201.171 75.7672 201.672C75.7453 202.652 76.0718 203.439 76.7536 204.032C77.4283 204.633 78.1685 204.926 78.9666 204.926C79.7718 204.926 80.4394 204.547 80.9689 203.782C81.4908 203.017 81.7594 202.08 81.7594 200.978C81.7594 200.013 81.5203 199.233 81.0339 198.625C80.5551 198.017 79.8733 197.667 79.0026 197.559ZM96.726 196.086C98.1257 195.75 99.3375 195.9 100.375 196.543C101.405 197.181 101.934 198.189 101.956 199.562C101.956 201.021 100.875 202.845 98.7207 205.019C96.5661 207.208 94.3972 208.302 92.2208 208.323C90.4286 208.323 89.2102 207.272 88.5497 205.17C87.8968 203.067 87.5704 199.562 87.5704 194.648C87.5704 192.474 87.9983 190.908 88.8472 189.949C89.696 188.984 90.98 188.504 92.6995 188.504C94.3099 188.504 95.6375 188.89 96.6894 189.663C97.7485 190.443 98.278 191.502 98.278 192.86C98.278 193.518 98.1475 194.105 97.8937 194.634C97.6469 195.156 97.2555 195.642 96.726 196.086ZM97.618 199.669C97.618 199.433 97.5672 199.269 97.4657 199.162C97.3641 199.054 97.2047 198.997 97.0011 198.997C96.9072 199.018 96.827 199.033 96.7402 199.054C96.6605 199.069 95.8985 199.627 94.4551 200.706C94.02 201.05 93.6281 201.286 93.2869 201.429C92.9386 201.572 92.5614 201.65 92.1482 201.672C92.2639 202.795 92.402 203.546 92.5614 203.925C92.7213 204.311 92.9315 204.504 93.1783 204.504C93.686 204.504 94.5495 203.925 95.7827 202.781C97.0088 201.629 97.618 200.592 97.618 199.669ZM91.8725 198.439L92.4964 198.175C91.8288 197.409 91.9233 196.522 92.7863 195.514C93.6499 194.505 94.0779 193.683 94.0779 193.046C94.0561 192.581 93.9616 192.223 93.8022 191.959C93.6428 191.701 93.4103 191.573 93.1128 191.573C92.6777 191.573 92.3512 191.773 92.1334 192.159C91.9156 192.553 91.8146 193.082 91.8359 193.74C91.8359 195.786 91.8359 196.98 91.8359 197.316C91.8359 197.653 91.8507 198.031 91.8725 198.439ZM107.948 197.288V198.225L108.115 199.855C108.391 199.426 108.812 199.105 109.37 198.897C109.936 198.682 110.734 198.575 111.764 198.575C113.092 198.575 114.187 198.868 115.051 199.469C115.907 200.063 116.349 200.864 116.371 201.858C116.371 203.317 115.602 204.776 114.05 206.235C112.504 207.694 110.894 208.431 109.218 208.431C107.774 208.431 106.643 208.045 105.83 207.265C105.01 206.492 104.582 205.27 104.539 203.596L104.466 201.536C104.423 200.256 104.365 199.24 104.3 198.489C104.227 197.745 104.19 197.38 104.19 197.395C104.19 196.773 104.365 196.308 104.713 195.993C105.054 195.685 105.489 195.528 106.019 195.528C106.614 195.528 107.085 195.685 107.426 196.007C107.774 196.329 107.948 196.758 107.948 197.288ZM108.63 204.554C108.703 204.983 108.819 205.284 108.993 205.462C109.167 205.642 109.392 205.728 109.668 205.728C110.125 205.728 110.705 205.284 111.402 204.383C112.105 203.481 112.454 202.766 112.454 202.23C112.454 201.944 112.345 201.722 112.127 201.55C111.909 201.379 111.591 201.3 111.177 201.3C110.625 201.3 110.103 201.5 109.61 201.908C109.117 202.323 108.732 202.924 108.464 203.725C108.464 203.832 108.486 203.982 108.529 204.168C108.572 204.354 108.608 204.483 108.63 204.554ZM121.123 201.808L120.913 205.649C120.847 206.579 120.608 207.258 120.194 207.694C119.781 208.131 119.229 208.345 118.54 208.345C117.967 208.345 117.532 208.216 117.234 207.944C116.937 207.68 116.785 207.279 116.785 206.743C116.785 206.357 116.821 205.491 116.893 204.154C116.959 202.817 117.002 201.643 117.031 200.628C117.031 200.413 117.017 200.206 116.995 199.991C116.973 199.776 116.922 199.491 116.857 199.133C116.697 198.26 116.618 197.81 116.618 197.774C116.618 197.738 116.618 197.695 116.618 197.638C116.618 197.123 116.821 196.687 117.234 196.329C117.648 195.971 118.126 195.793 118.678 195.793C119.599 195.814 120.252 196.028 120.644 196.436C121.028 196.844 121.224 197.445 121.224 198.225C121.224 199.011 121.217 199.648 121.188 200.134C121.167 200.628 121.145 201.178 121.123 201.808ZM137.641 203.432L138.019 204.554C138.338 205.591 138.302 206.378 137.895 206.922C137.497 207.465 136.916 207.737 136.162 207.737C135.654 207.737 135.182 207.623 134.747 207.401C134.312 207.179 133.978 206.829 133.753 206.342C133.224 206.95 132.578 207.401 131.809 207.709C131.04 208.009 130.242 208.159 129.415 208.159C127.812 208.159 126.571 207.558 125.701 206.357C124.83 205.155 124.424 203.553 124.496 201.536L124.561 198.811C124.583 197.795 124.786 197.059 125.164 196.594C125.541 196.136 126.136 195.893 126.941 195.879C127.652 195.893 128.174 196.079 128.522 196.436C128.864 196.794 129.001 197.681 128.936 199.104L128.798 201.536C128.725 202.573 128.856 203.382 129.19 203.968C129.524 204.554 130.002 204.841 130.619 204.819C131.446 204.819 132.034 204.461 132.389 203.739C132.745 203.017 132.882 201.772 132.788 199.991L132.687 198.096C132.614 197.094 132.745 196.351 133.064 195.864C133.383 195.371 133.92 195.127 134.682 195.127C135.342 195.127 135.835 195.264 136.14 195.542C136.452 195.814 136.655 196.486 136.742 197.559L136.916 199.934C136.938 200.413 137.018 201 137.156 201.686C137.294 202.373 137.453 202.952 137.641 203.432ZM132.447 195.099C132.005 195.299 131.606 195.442 131.236 195.528C130.873 195.614 130.525 195.664 130.205 195.664C129.219 195.664 128.392 195.442 127.732 195.006C127.064 194.569 126.731 194.04 126.731 193.418C126.731 192.939 126.898 192.56 127.231 192.281C127.565 192.009 127.993 191.866 128.522 191.866C128.566 191.866 128.617 191.873 128.675 191.88C128.733 191.895 129.139 192.009 129.901 192.245C130.307 192.388 130.554 192.46 130.641 192.467C130.721 192.481 130.793 192.481 130.859 192.481C132.237 192.481 133.078 192.216 133.391 191.68C133.695 191.151 134.232 190.879 134.986 190.879C135.313 190.879 135.588 190.972 135.835 191.158C136.075 191.351 136.19 191.552 136.19 191.766C136.19 192.152 135.719 192.738 134.769 193.525C133.811 194.305 133.042 194.835 132.447 195.099ZM158.491 196.944L159.42 195.957C159.993 195.349 160.711 195.077 161.574 195.142C162.431 195.206 162.859 195.556 162.859 196.193C162.859 197.03 162.264 197.995 161.052 199.083C159.855 200.163 158.745 200.835 157.737 201.085C159.384 201.314 160.813 201.987 162.017 203.102C163.221 204.211 163.823 205.413 163.823 206.693C163.823 207.208 163.627 207.616 163.243 207.923C162.851 208.224 162.336 208.381 161.691 208.402C161.234 208.402 160.849 208.309 160.537 208.138C160.232 207.959 159.993 207.609 159.833 207.094C159.377 205.828 158.615 204.919 157.548 204.354C156.482 203.796 155.191 203.531 153.674 203.567C153.747 203.925 153.827 204.447 153.936 205.141C154.037 205.835 154.088 206.3 154.088 206.535C154.066 207.136 153.827 207.623 153.362 207.987C152.905 208.352 152.354 208.531 151.716 208.531C150.889 208.531 150.294 208.359 149.938 208.016C149.583 207.666 149.409 206.8 149.409 205.413C149.387 204.554 149.351 203.56 149.307 202.43C149.256 201.3 149.213 200.306 149.169 199.455C149.096 198.761 149.06 198.317 149.046 198.132C149.039 197.945 149.039 197.738 149.06 197.502C149.06 196.88 149.198 196.393 149.474 196.036C149.75 195.678 150.221 195.499 150.889 195.499C151.621 195.499 152.151 195.628 152.47 195.879C152.789 196.122 152.999 196.515 153.094 197.051C153.116 197.338 153.13 197.674 153.145 198.067C153.152 198.46 153.181 199.176 153.224 200.227C154.878 199.519 156.025 198.947 156.671 198.518C157.309 198.096 157.918 197.567 158.491 196.944ZM172.5 197.559L171.811 197.48C171.027 197.388 170.752 196.973 170.962 196.236C171.187 195.499 172.05 195.127 173.566 195.127C174.959 195.142 176.186 195.693 177.23 196.773C178.275 197.845 178.797 199.247 178.797 200.978C178.768 202.938 178.093 204.619 176.766 206.02C175.431 207.429 173.813 208.138 171.912 208.138C170.121 208.138 168.539 207.53 167.16 206.321C165.79 205.105 165.1 203.725 165.1 202.18C165.1 201.021 165.514 199.776 166.333 198.453C167.16 197.123 168.082 196.465 169.09 196.465C169.591 196.465 170.04 196.63 170.432 196.958C170.824 197.288 171.027 197.609 171.049 197.931C171.027 197.988 171.006 198.039 170.984 198.096C170.962 198.146 170.824 198.303 170.571 198.575L170.157 198.997C169.881 199.269 169.663 199.655 169.504 200.163C169.344 200.671 169.264 201.171 169.264 201.672C169.242 202.652 169.569 203.439 170.244 204.032C170.918 204.633 171.658 204.926 172.464 204.926C173.262 204.926 173.929 204.547 174.459 203.782C174.988 203.017 175.249 202.08 175.249 200.978C175.249 200.013 175.01 199.233 174.524 198.625C174.045 198.017 173.37 197.667 172.5 197.559ZM186.951 201.458L186.088 202.151C186.044 202.666 186.022 203.138 186.022 203.567C186.022 203.996 186.044 204.583 186.088 205.327C186.11 206.292 185.899 207.008 185.449 207.48C185.007 207.952 184.368 208.188 183.541 208.188C182.903 208.188 182.432 208.031 182.134 207.709C181.837 207.387 181.684 206.736 181.684 205.756C181.684 205.505 181.713 204.855 181.772 203.796C181.829 202.738 181.88 201.579 181.924 200.334C181.924 200.248 181.924 200.141 181.924 200.013C181.924 199.891 181.924 199.269 181.924 198.146C181.902 197.288 182.083 196.708 182.461 196.393C182.838 196.086 183.382 195.921 184.093 195.9C184.855 195.921 185.435 196.122 185.848 196.501C186.262 196.887 186.422 197.423 186.327 198.117C188.257 197.102 189.454 196.522 189.926 196.372C190.397 196.222 190.825 196.136 191.217 196.115C191.674 196.115 192.044 196.258 192.32 196.543C192.596 196.83 192.755 197.231 192.799 197.745C193.944 197.03 194.888 196.515 195.62 196.179C196.353 195.857 196.977 195.678 197.477 195.664C198.348 195.664 198.972 195.864 199.357 196.279C199.734 196.687 199.922 197.309 199.922 198.146C199.922 199.798 199.843 200.95 199.683 201.593C199.523 202.23 199.444 202.817 199.444 203.353C199.444 203.71 199.451 204.004 199.473 204.233C199.494 204.468 199.552 204.655 199.647 204.798L199.821 205.141C200.097 205.728 200.053 206.307 199.698 206.879C199.342 207.451 198.66 207.737 197.652 207.737C196.76 207.737 196.099 207.508 195.693 207.065C195.28 206.622 195.069 205.977 195.069 205.141C195.069 204.755 195.12 204.082 195.207 203.138C195.301 202.194 195.366 201.164 195.417 200.041C195.417 199.97 195.417 199.905 195.417 199.841C195.417 199.776 195.417 199.712 195.417 199.641C195.388 199.426 195.374 199.304 195.359 199.269C195.352 199.233 195.338 199.212 195.309 199.212C195.127 199.212 194.742 199.412 194.155 199.812C193.575 200.213 193.088 200.592 192.697 200.95C192.697 201.128 192.697 201.271 192.697 201.393C192.697 201.508 192.719 201.958 192.762 202.738C192.762 203.274 192.791 203.725 192.835 204.089C192.878 204.454 192.914 204.776 192.936 205.062C192.914 205.992 192.675 206.686 192.218 207.144C191.754 207.609 191.217 207.837 190.593 207.837C189.839 207.837 189.287 207.652 188.946 207.279C188.598 206.907 188.431 206.321 188.431 205.52C188.431 204.29 188.482 203.36 188.584 202.723C188.685 202.094 188.736 201.572 188.736 201.164C188.736 201 188.721 200.878 188.685 200.792C188.649 200.699 188.613 200.656 188.569 200.656C188.453 200.656 188.192 200.756 187.793 200.964C187.394 201.171 187.111 201.336 186.951 201.458Z" fill="#F2E9E1"/>
</svg>
