<svg width="506" height="593" viewBox="0 0 506 593" fill="none" xmlns="http://www.w3.org/2000/svg">
<path d="M294.826 283.826L252.421 338.576C245.864 347.042 247.139 359.171 255.313 366.089L308.174 410.826L253.424 368.421C244.958 361.864 232.829 363.139 225.911 371.313L181.174 424.174L223.579 369.424C230.136 360.958 228.861 348.829 220.687 341.911L167.826 297.174L222.576 339.579C231.042 346.136 243.171 344.861 250.089 336.687L294.826 283.826Z" fill="#FBF3F1"/>
<g filter="url(#filter0_f_768_1641)">
<circle cx="238.468" cy="354.304" r="87.8301" fill="#FEE1B5"/>
</g>
<path d="M385.146 19.1731C385.146 11.4149 381.248 4.87513 379.818 2.73781C379.532 2.31117 378.979 2.1985 378.545 2.47317C374.143 5.26141 351.655 19.938 341.666 34.8846C325.283 59.3972 334.875 90.2118 332.531 107.962C329.973 127.327 318.419 143.827 313.531 167.885C304.382 212.911 318.646 249.731 313.531 285.538C311.218 301.728 297.86 306.44 293.07 322.077C273.704 385.288 293.318 486.048 308.781 493.077C328.877 502.212 363.954 491.981 371.627 496C379.3 500.019 386.411 509.309 397.935 516.462C408.531 523.038 419.858 535.462 412.916 544.882C405.973 554.302 332.531 543.31 306.223 561.69C301.038 565.312 295.099 570.021 292.339 576.385C289.598 582.704 291.393 588.572 292.094 590.409C292.234 590.775 292.586 590.994 292.978 590.967C294.955 590.831 301.313 590.133 309.146 586.615C316.209 583.444 324.471 575.644 331.8 576.385C367.973 580.038 406.704 591 434.108 580.038C455.714 571.396 471.012 547.519 466.993 530.712C462.786 513.122 420.547 491.105 434.108 487.231C441.781 485.038 464.8 491.615 479.05 484.673C495.835 476.496 491.506 441.93 491.132 439.175C491.115 439.046 491.122 438.942 491.153 438.816C492.039 435.199 505.571 379.143 502.8 342.538C499.36 297.092 480.877 261.788 466.993 231.462C456.614 208.791 467.439 192.011 461.146 167.885C456.011 148.193 437.323 134.269 441.416 119.654C446.531 101.385 458.21 88.5523 457.127 64.4808C456.093 41.4865 437.623 9.17493 433.993 3.03058C433.673 2.48872 432.953 2.3986 432.513 2.84819C430.265 5.14333 424.326 11.8012 423.146 19.1731M385.146 19.1731C399.762 17.7115 408.166 16.9808 423.146 19.1731M385.146 19.1731C382.863 20.0292 379.3 20.2692 379.3 20.2692M423.146 19.1731C425.287 20.0292 428.627 20.2692 428.627 20.2692" stroke="#FBF3F1" stroke-width="4" stroke-linecap="round" stroke-linejoin="round"/>
<defs>
<filter id="filter0_f_768_1641" x="0.637695" y="116.474" width="475.66" height="475.66" filterUnits="userSpaceOnUse" color-interpolation-filters="sRGB">
<feFlood flood-opacity="0" result="BackgroundImageFix"/>
<feBlend mode="normal" in="SourceGraphic" in2="BackgroundImageFix" result="shape"/>
<feGaussianBlur stdDeviation="75" result="effect1_foregroundBlur_768_1641"/>
</filter>
</defs>
</svg>
