<svg width="704" height="104" viewBox="0 0 704 104" fill="none" xmlns="http://www.w3.org/2000/svg">
<path d="M656.149 4.48779L654.165 31.5445C653.378 42.2864 661.191 51.7425 671.888 52.9946L698.834 56.1486L671.777 54.165C661.035 53.3775 651.579 61.1907 650.327 71.8884L647.173 98.8338L649.157 71.777C649.944 61.0352 642.131 51.5791 631.433 50.3269L604.488 47.173L631.545 49.1565C642.286 49.944 651.743 42.1308 652.995 31.4332L656.149 4.48779Z" fill="#FBF3F1"/>
<path d="M10.378 50.0059L17.1268 52.6369C27.1619 56.549 38.4978 51.8627 42.8411 42.0065L45.762 35.378L43.131 42.1269C39.2189 52.1619 43.9052 63.4979 53.7614 67.8411L60.3899 70.762L53.641 68.131C43.606 64.2189 32.27 68.9052 27.9268 78.7614L25.0059 85.3899L27.6369 78.6411C31.549 68.606 26.8627 57.2701 17.0065 52.9268L10.378 50.0059Z" fill="#FBF3F1"/>
</svg>
