<svg width="458" height="249" viewBox="0 0 458 249" fill="none" xmlns="http://www.w3.org/2000/svg">
<path d="M355.613 89.2365C350.925 93.1003 343.241 99.6072 340.169 100.552C337.098 101.497 328.257 99.5706 321.416 102.208C314.287 104.957 306.523 114.904 306.523 114.904C306.523 114.904 312.94 114.412 317.003 114.904C320.065 115.275 323.622 115.732 324.725 116.56C326.012 117.525 317.279 135.051 321.416 149.127C325.553 163.202 340.353 178.934 346.788 180.866C353.223 182.798 362.631 183.554 372.988 182.798C381.668 182.164 395.051 178.658 395.051 178.658C405.807 174.794 412.977 164.03 416.011 146.919C416.011 146.919 421.114 144.588 424.56 144.711C427.591 144.819 432.006 146.919 432.006 146.919C432.006 146.919 431.916 138.386 429.249 133.947C426.405 129.216 418.217 125.115 418.217 125.115" stroke="white" stroke-width="4" stroke-linecap="round" stroke-linejoin="round"/>
<path d="M394.499 178.934C400.225 181.706 403.307 187.49 409.668 187.49C433.937 187.49 456 152.077 456 120.148C456 106.9 441.318 68.8506 416.287 49.4935C379.883 21.3423 306.097 -6.11824 233.164 4.23077C159.253 14.7185 80.378 66.053 99.6831 142.227C103.74 158.235 93.8916 181.142 83.1359 194.114C75.1358 203.762 62.1761 207.637 29.909 216.745C13.9794 221.241 -1.25494 241.032 2.60606 246C6.46707 250.968 46.732 236.064 71.5528 231.097C88.4187 227.721 98.173 222.809 111.818 212.329C120.234 205.865 126.017 196.22 128.917 186.938C135.811 172.586 136.666 167.527 146.567 165.41C186.483 156.876 203.872 175.358 217.996 180.59C225.34 183.311 234.216 180.517 239.783 172.586C242.689 168.446 237.301 158.235 228.476 156.027C225.166 155.199 216.617 154.371 216.617 154.371C216.617 146.045 256.33 145.815 294.389 157.683C307.351 161.724 318.658 162.65 327.207 162.65" stroke="white" stroke-width="4" stroke-linecap="round" stroke-linejoin="round"/>
<path d="M375.47 169.274C373.39 169.238 370.506 171.206 370.506 171.206C370.506 171.206 373.352 173.29 375.47 173.414C377.612 173.539 380.71 171.758 380.71 171.758C380.71 171.758 377.734 169.314 375.47 169.274Z" fill="#A88B7F" stroke="white" stroke-width="2" stroke-linecap="round" stroke-linejoin="round"/>
<path d="M377.401 167.342C373.957 166.437 368.52 167.894 368.3 168.722C367.965 169.981 371.803 173.485 375.746 173.414C378.635 173.362 383.192 170.378 383.192 170.378C383.192 170.378 379.87 167.991 377.401 167.342Z" fill="white" fill-opacity="0.5" stroke="white" stroke-width="2" stroke-linecap="round" stroke-linejoin="round"/>
<path d="M345.134 160.994C343.888 160.648 340.445 161.546 340.445 161.546C340.445 161.546 342.461 163.783 344.03 164.306C346.513 165.134 349.27 164.306 349.27 164.306C349.27 164.306 346.487 161.371 345.134 160.994Z" fill="#A8897E" stroke="white" stroke-width="2" stroke-linecap="round" stroke-linejoin="round"/>
<path d="M341.548 159.062L338.239 159.062C338.239 159.062 340.559 164.354 344.582 164.858C347.184 165.184 350.736 164.582 350.925 163.478C351.02 162.926 350.264 160.56 347.891 159.614C345.581 158.694 342.955 159.062 341.548 159.062Z" fill="white" fill-opacity="0.5" stroke="white" stroke-width="2" stroke-linecap="round" stroke-linejoin="round"/>
<path d="M355.225 178.944C355.225 178.392 348.922 176.55 348.025 176.943C347.128 177.335 348.231 181.413 350.621 181.813C353.01 182.214 355.225 179.789 355.225 178.944Z" fill="white" stroke="white" stroke-width="2" stroke-linecap="round" stroke-linejoin="round"/>
</svg>
