<svg width="223" height="593" viewBox="0 0 223 593" fill="none" xmlns="http://www.w3.org/2000/svg">
<path d="M102.146 19.1731C102.146 11.4149 98.2476 4.87513 96.8178 2.73781C96.5325 2.31117 95.9785 2.1985 95.5449 2.47317C91.1432 5.26141 68.6548 19.938 58.6657 34.8846C42.2834 59.3972 51.8753 90.2118 49.531 107.962C46.9733 127.327 35.4193 143.827 30.5311 167.885C21.3824 212.911 35.6464 249.731 30.5311 285.538C28.2182 301.728 14.86 306.44 10.0695 322.077C-9.29588 385.288 10.3181 486.048 25.7811 493.077C45.8773 502.212 80.9541 491.981 88.6272 496C96.3003 500.019 103.411 509.309 114.935 516.462C125.531 523.038 136.858 535.462 129.916 544.882C122.973 554.302 49.5311 543.31 23.2234 561.69C18.038 565.312 12.0985 570.021 9.33875 576.385C6.59836 582.704 8.39281 588.572 9.09386 590.409C9.23374 590.775 9.58617 590.994 9.97762 590.967C11.9546 590.831 18.3132 590.133 26.1464 586.615C33.2091 583.444 41.4707 575.644 48.8003 576.385C84.9734 580.038 123.704 591 151.108 580.038C172.714 571.396 188.012 547.519 183.993 530.712C179.786 513.122 137.547 491.105 151.108 487.231C158.781 485.038 181.8 491.615 196.05 484.673C212.835 476.496 208.506 441.93 208.132 439.175C208.115 439.046 208.122 438.942 208.153 438.816C209.039 435.199 222.571 379.143 219.8 342.538C216.36 297.092 197.877 261.788 183.993 231.462C173.614 208.791 184.439 192.011 178.146 167.885C173.011 148.193 154.323 134.269 158.416 119.654C163.531 101.385 175.21 88.5523 174.127 64.4808C173.093 41.4865 154.623 9.17493 150.993 3.03058C150.673 2.48872 149.953 2.3986 149.513 2.84819C147.265 5.14333 141.326 11.8012 140.146 19.1731M102.146 19.1731C116.762 17.7115 125.166 16.9808 140.146 19.1731M102.146 19.1731C99.8634 20.0292 96.3003 20.2692 96.3003 20.2692M140.146 19.1731C142.287 20.0292 145.627 20.2692 145.627 20.2692" stroke="#FBF3F1" stroke-width="4" stroke-linecap="round" stroke-linejoin="round"/>
</svg>
