<svg width="678" height="596" viewBox="0 0 678 596" fill="none" xmlns="http://www.w3.org/2000/svg">
<path d="M33.6037 366.353L33.1263 373.62C32.4244 384.305 40.2637 393.648 50.9089 394.812L58.1477 395.604L50.8814 395.126C40.1957 394.424 30.8532 402.264 29.689 412.909L28.8973 420.148L29.3746 412.881C30.0766 402.196 22.2372 392.853 11.592 391.689L4.35322 390.897L11.6195 391.375C22.3052 392.077 31.6477 384.237 32.812 373.592L33.6037 366.353Z" fill="#FBF3F1"/>
<g filter="url(#filter0_f_724_1641)">
<circle cx="410.468" cy="354.304" r="87.8301" fill="#FEE1B5"/>
</g>
<path d="M466.826 283.826L424.421 338.576C417.864 347.042 419.139 359.171 427.313 366.089L480.174 410.826L425.424 368.421C416.958 361.864 404.829 363.139 397.911 371.313L353.174 424.174L395.579 369.424C402.136 360.958 400.861 348.829 392.687 341.911L339.826 297.174L394.576 339.579C403.042 346.136 415.171 344.861 422.089 336.687L466.826 283.826Z" fill="#FBF3F1"/>
<path d="M557.146 19.1731C557.146 11.4149 553.248 4.87513 551.818 2.73781C551.532 2.31117 550.979 2.1985 550.545 2.47317C546.143 5.26141 523.655 19.938 513.666 34.8846C497.283 59.3972 506.875 90.2118 504.531 107.962C501.973 127.327 490.419 143.827 485.531 167.885C476.382 212.911 490.646 249.731 485.531 285.538C483.218 301.728 469.86 306.44 465.07 322.077C445.704 385.288 465.318 486.048 480.781 493.077C500.877 502.212 535.954 491.981 543.627 496C551.3 500.019 558.411 509.309 569.935 516.462C580.531 523.038 591.858 535.462 584.916 544.882C577.973 554.302 504.531 543.31 478.223 561.69C473.038 565.312 467.099 570.021 464.339 576.385C461.598 582.704 463.393 588.572 464.094 590.409C464.234 590.775 464.586 590.994 464.978 590.967C466.955 590.831 473.313 590.133 481.146 586.615C488.209 583.444 496.471 575.644 503.8 576.385C539.973 580.038 578.704 591 606.108 580.038C627.714 571.396 643.012 547.519 638.993 530.712C634.786 513.122 592.547 491.105 606.108 487.231C613.781 485.038 636.8 491.615 651.05 484.673C667.835 476.496 663.506 441.93 663.132 439.175C663.115 439.046 663.122 438.942 663.153 438.816C664.039 435.199 677.571 379.143 674.8 342.538C671.36 297.092 652.877 261.788 638.993 231.462C628.614 208.791 639.439 192.011 633.146 167.885C628.011 148.193 609.323 134.269 613.416 119.654C618.531 101.385 630.21 88.5523 629.127 64.4808C628.093 41.4865 609.623 9.17493 605.993 3.03058C605.673 2.48872 604.953 2.3986 604.513 2.84819C602.265 5.14333 596.326 11.8012 595.146 19.1731M557.146 19.1731C571.762 17.7115 580.166 16.9808 595.146 19.1731M557.146 19.1731C554.863 20.0292 551.3 20.2692 551.3 20.2692M595.146 19.1731C597.287 20.0292 600.627 20.2692 600.627 20.2692" stroke="#FBF3F1" stroke-width="4" stroke-linecap="round" stroke-linejoin="round"/>
<path d="M355.613 436.236C350.925 440.1 343.241 446.607 340.169 447.552C337.098 448.497 328.257 446.571 321.416 449.208C314.287 451.957 306.523 461.904 306.523 461.904C306.523 461.904 312.94 461.412 317.003 461.904C320.065 462.275 323.622 462.732 324.725 463.56C326.012 464.525 317.279 482.051 321.416 496.127C325.553 510.202 340.353 525.934 346.788 527.866C353.223 529.798 362.631 530.554 372.988 529.798C381.668 529.164 395.051 525.658 395.051 525.658C405.807 521.794 412.977 511.03 416.011 493.919C416.011 493.919 421.114 491.588 424.56 491.711C427.591 491.819 432.006 493.919 432.006 493.919C432.006 493.919 431.916 485.386 429.249 480.947C426.405 476.216 418.217 472.115 418.217 472.115" stroke="white" stroke-width="4" stroke-linecap="round" stroke-linejoin="round"/>
<path d="M394.499 525.934C400.225 528.706 403.307 534.49 409.668 534.49C433.937 534.49 456 499.077 456 467.148C456 453.9 441.318 415.851 416.287 396.494C379.883 368.342 306.097 340.882 233.164 351.231C159.253 361.719 80.378 413.053 99.6831 489.227C103.74 505.235 93.8916 528.142 83.1359 541.114C75.1358 550.762 62.1761 554.637 29.909 563.745C13.9794 568.241 -1.25494 588.032 2.60606 593C6.46707 597.968 46.732 583.064 71.5528 578.097C88.4187 574.721 98.173 569.809 111.818 559.329C120.234 552.865 126.017 543.22 128.917 533.938C135.811 519.586 136.666 514.527 146.567 512.41C186.483 503.876 203.872 522.358 217.996 527.59C225.34 530.311 234.216 527.517 239.783 519.586C242.689 515.446 237.301 505.235 228.476 503.027C225.166 502.199 216.617 501.371 216.617 501.371C216.617 493.045 256.33 492.815 294.389 504.683C307.351 508.724 318.658 509.65 327.207 509.65" stroke="white" stroke-width="4" stroke-linecap="round" stroke-linejoin="round"/>
<path d="M375.47 516.274C373.39 516.238 370.506 518.206 370.506 518.206C370.506 518.206 373.352 520.29 375.47 520.414C377.612 520.539 380.71 518.758 380.71 518.758C380.71 518.758 377.734 516.314 375.47 516.274Z" fill="#A88B7F" stroke="white" stroke-width="2" stroke-linecap="round" stroke-linejoin="round"/>
<path d="M377.401 514.342C373.957 513.437 368.52 514.894 368.3 515.722C367.965 516.981 371.803 520.485 375.746 520.414C378.635 520.362 383.192 517.378 383.192 517.378C383.192 517.378 379.87 514.991 377.401 514.342Z" fill="white" fill-opacity="0.5" stroke="white" stroke-width="2" stroke-linecap="round" stroke-linejoin="round"/>
<path d="M345.134 507.994C343.888 507.648 340.445 508.546 340.445 508.546C340.445 508.546 342.461 510.783 344.03 511.306C346.513 512.134 349.27 511.306 349.27 511.306C349.27 511.306 346.487 508.371 345.134 507.994Z" fill="#A8897E" stroke="white" stroke-width="2" stroke-linecap="round" stroke-linejoin="round"/>
<path d="M341.548 506.062L338.239 506.062C338.239 506.062 340.559 511.354 344.582 511.858C347.184 512.184 350.736 511.582 350.925 510.478C351.02 509.926 350.264 507.56 347.891 506.614C345.581 505.694 342.955 506.062 341.548 506.062Z" fill="white" fill-opacity="0.5" stroke="white" stroke-width="2" stroke-linecap="round" stroke-linejoin="round"/>
<path d="M355.225 525.944C355.225 525.392 348.922 523.55 348.025 523.943C347.128 524.335 348.231 528.413 350.621 528.813C353.01 529.214 355.225 526.789 355.225 525.944Z" fill="white" stroke="white" stroke-width="2" stroke-linecap="round" stroke-linejoin="round"/>
<defs>
<filter id="filter0_f_724_1641" x="172.638" y="116.474" width="475.66" height="475.66" filterUnits="userSpaceOnUse" color-interpolation-filters="sRGB">
<feFlood flood-opacity="0" result="BackgroundImageFix"/>
<feBlend mode="normal" in="SourceGraphic" in2="BackgroundImageFix" result="shape"/>
<feGaussianBlur stdDeviation="75" result="effect1_foregroundBlur_724_1641"/>
</filter>
</defs>
</svg>
