<svg width="120" height="71" viewBox="0 0 120 71" fill="none" xmlns="http://www.w3.org/2000/svg">
<path d="M106.717 22.3982C108.169 27.8922 104.894 34.4404 97.4154 40.6524C90.0255 46.7906 78.9101 52.2447 65.8122 55.4782C52.7143 58.7116 40.2536 59.0777 30.7222 57.1169C21.0762 55.1324 14.9517 50.9048 13.4991 45.4107C12.0464 39.9167 15.3217 33.3685 22.8005 27.1565C30.1904 21.0183 41.3059 15.5642 54.4037 12.3307C67.5016 9.09728 79.9623 8.73117 89.4937 10.692C99.1397 12.6765 105.264 16.9041 106.717 22.3982Z" stroke="#A7897E" stroke-width="2.92683"/>
<rect x="31.3955" y="6.34617" width="57.209" height="56.6172" rx="28.3086" fill="#F2E9E1"/>
<rect x="31.3955" y="6.34617" width="57.209" height="56.6172" rx="28.3086" stroke="#A7897E" stroke-width="2.79097"/>
<path d="M59.3123 45.3781C57.9355 45.3781 56.5958 45.1641 55.2933 44.7361C54.0095 44.3082 52.9582 43.7314 52.1395 43.0057L53.4234 40.8009C54.0746 41.4149 54.9212 41.9173 55.9632 42.308C57.0051 42.6987 58.1215 42.8941 59.3123 42.8941C60.7636 42.8941 61.8893 42.5871 62.6894 41.9731C63.5081 41.3405 63.9174 40.4939 63.9174 39.4333C63.9174 38.4099 63.5267 37.5913 62.7452 36.9772C61.9824 36.3446 60.7636 36.0283 59.0891 36.0283H57.5261V34.0746L63.3313 26.9298L63.7221 28.0461H53.0327V25.618H65.9269V27.5159L60.1496 34.6328L58.6983 33.7676H59.6193C61.9824 33.7676 63.75 34.2979 64.9222 35.3585C66.113 36.4191 66.7084 37.768 66.7084 39.4054C66.7084 40.5032 66.4386 41.5079 65.899 42.4196C65.3594 43.3314 64.5408 44.057 63.443 44.5966C62.3638 45.1176 60.9869 45.3781 59.3123 45.3781Z" fill="#A7897E"/>
<path d="M108.806 9.83535L107.654 19.1369L115.508 24.3661L106.028 23.3486L100.596 31.108L101.749 21.8065L93.8947 16.5772L103.374 17.5947L108.806 9.83535Z" fill="#A7897E"/>
<path d="M18.8065 38.5492L17.6536 47.8507L25.5077 53.08L16.028 52.0625L10.5959 59.8219L11.7488 50.5204L3.89473 45.2911L13.3744 46.3086L18.8065 38.5492Z" fill="#A7897E"/>
</svg>
