<svg width="120" height="71" viewBox="0 0 120 71" fill="none" xmlns="http://www.w3.org/2000/svg">
<path d="M106.717 22.3982C108.169 27.8922 104.894 34.4404 97.4154 40.6524C90.0255 46.7906 78.9101 52.2447 65.8122 55.4782C52.7143 58.7116 40.2536 59.0777 30.7222 57.1169C21.0762 55.1324 14.9517 50.9048 13.4991 45.4107C12.0464 39.9167 15.3217 33.3685 22.8005 27.1565C30.1904 21.0183 41.3059 15.5642 54.4037 12.3307C67.5016 9.09728 79.9623 8.73117 89.4937 10.692C99.1397 12.6765 105.264 16.9041 106.717 22.3982Z" stroke="#A7897E" stroke-width="2.92683"/>
<rect x="31.3955" y="6.34617" width="57.209" height="56.6172" rx="28.3086" fill="#F2E9E1"/>
<rect x="31.3955" y="6.34617" width="57.209" height="56.6172" rx="28.3086" stroke="#A7897E" stroke-width="2.79097"/>
<path d="M52.5327 45.1548V43.2569L60.4869 35.5818C61.194 34.9119 61.7149 34.3258 62.0499 33.8235C62.4034 33.3025 62.636 32.828 62.7476 32.4001C62.8778 31.9535 62.943 31.5256 62.943 31.1162C62.943 30.1115 62.5894 29.3207 61.8824 28.7439C61.1754 28.1671 60.1427 27.8787 58.7844 27.8787C57.7425 27.8787 56.8028 28.0555 55.9655 28.409C55.1283 28.7439 54.4026 29.2742 53.7886 29.9998L51.8907 28.3532C52.635 27.4042 53.6304 26.6786 54.8771 26.1762C56.1423 25.6552 57.5285 25.3947 59.0356 25.3947C60.3939 25.3947 61.5754 25.618 62.5801 26.0646C63.5849 26.4925 64.3571 27.1158 64.8966 27.9345C65.4548 28.7532 65.7339 29.7207 65.7339 30.8371C65.7339 31.4697 65.6502 32.0931 65.4828 32.7071C65.3153 33.3211 64.999 33.9723 64.5338 34.6607C64.0687 35.3492 63.3988 36.1213 62.5243 36.9772L55.4353 43.8151L54.7654 42.7266H66.5712V45.1548H52.5327Z" fill="#A7897E"/>
<path d="M108.806 9.83535L107.654 19.1369L115.508 24.3661L106.028 23.3486L100.596 31.108L101.749 21.8065L93.8947 16.5772L103.374 17.5947L108.806 9.83535Z" fill="#A7897E"/>
<path d="M18.8065 38.5492L17.6536 47.8507L25.5077 53.08L16.028 52.0625L10.5959 59.8219L11.7488 50.5204L3.89473 45.2911L13.3744 46.3086L18.8065 38.5492Z" fill="#A7897E"/>
</svg>
