<svg width="120" height="71" viewBox="0 0 120 71" fill="none" xmlns="http://www.w3.org/2000/svg">
<path d="M105.526 49.0597C103.913 54.5103 97.6991 58.4528 88.0575 59.9636C78.5303 61.4565 66.1656 60.4632 53.2567 56.5555C40.3479 52.6478 29.4766 46.6072 22.3267 40.0659C15.091 33.4461 12.0401 26.699 13.6529 21.2484C15.2657 15.7979 21.4795 11.8554 31.1211 10.3445C40.6483 8.85163 53.013 9.84494 65.9219 13.7526C78.8307 17.6604 89.702 23.7009 96.8519 30.2422C104.088 36.8621 107.139 43.6092 105.526 49.0597Z" stroke="#A7897E" stroke-width="2.92683"/>
<rect x="31.3955" y="6.34617" width="57.209" height="56.6172" rx="28.3086" fill="#A7897E"/>
<rect x="31.3955" y="6.34617" width="57.209" height="56.6172" rx="28.3086" stroke="#A7897E" stroke-width="2.79097"/>
<path d="M59.3123 45.378C57.9355 45.378 56.5958 45.1641 55.2933 44.7361C54.0095 44.3082 52.9582 43.7314 52.1395 43.0057L53.4234 40.8009C54.0746 41.4149 54.9212 41.9172 55.9632 42.308C57.0051 42.6987 58.1215 42.8941 59.3123 42.8941C60.7636 42.8941 61.8893 42.5871 62.6894 41.9731C63.5081 41.3404 63.9174 40.4939 63.9174 39.4333C63.9174 38.4099 63.5267 37.5912 62.7452 36.9772C61.9824 36.3446 60.7636 36.0283 59.0891 36.0283H57.5261V34.0746L63.3313 26.9297L63.7221 28.0461H53.0327V25.618H65.9269V27.5158L60.1496 34.6328L58.6983 33.7676H59.6193C61.9824 33.7676 63.75 34.2979 64.9222 35.3585C66.113 36.419 66.7084 37.768 66.7084 39.4054C66.7084 40.5032 66.4386 41.5079 65.899 42.4196C65.3594 43.3313 64.5408 44.057 63.443 44.5966C62.3638 45.1176 60.9869 45.378 59.3123 45.378Z" fill="#F2E9E1"/>
<path d="M114.237 37.563L108.411 44.948L112.423 53.4356L104.826 47.7292L96.134 51.6102L101.961 44.2251L97.9484 35.7375L105.545 41.4439L114.237 37.563Z" fill="#A7897E"/>
<path d="M22.2372 16.7701L16.4106 24.1551L20.4228 32.6427L12.8264 26.9363L4.134 30.8173L9.96058 23.4323L5.94841 14.9447L13.5448 20.6511L22.2372 16.7701Z" fill="#A7897E"/>
</svg>
