<svg width="120" height="71" viewBox="0 0 120 71" fill="none" xmlns="http://www.w3.org/2000/svg">
<path d="M105.526 49.0597C103.913 54.5103 97.6991 58.4528 88.0575 59.9636C78.5303 61.4565 66.1656 60.4632 53.2567 56.5555C40.3479 52.6478 29.4766 46.6072 22.3267 40.0659C15.091 33.4461 12.0401 26.699 13.6529 21.2484C15.2657 15.7979 21.4795 11.8554 31.1211 10.3445C40.6483 8.85163 53.013 9.84494 65.9219 13.7526C78.8307 17.6604 89.702 23.7009 96.8519 30.2422C104.088 36.8621 107.139 43.6092 105.526 49.0597Z" stroke="#A7897E" stroke-width="2.92683"/>
<rect x="31.3955" y="6.34617" width="57.209" height="56.6172" rx="28.3086" fill="#A7897E"/>
<rect x="31.3955" y="6.34617" width="57.209" height="56.6172" rx="28.3086" stroke="#A7897E" stroke-width="2.79097"/>
<path d="M51.5606 40.3543V38.4006L61.5522 25.618H64.5665L54.6585 38.4006L53.2351 37.9541H68.8367V40.3543H51.5606ZM62.4174 45.1548V40.3543L62.5012 37.9541V33.7118H65.1247V45.1548H62.4174Z" fill="#F2E9E1"/>
<path d="M114.237 37.563L108.411 44.948L112.423 53.4356L104.826 47.7292L96.134 51.6102L101.961 44.2251L97.9484 35.7375L105.545 41.4439L114.237 37.563Z" fill="#A7897E"/>
<path d="M22.2372 16.7701L16.4106 24.1551L20.4228 32.6427L12.8264 26.9363L4.134 30.8173L9.96058 23.4323L5.94841 14.9447L13.5448 20.6511L22.2372 16.7701Z" fill="#A7897E"/>
</svg>
