<svg width="120" height="71" viewBox="0 0 120 71" fill="none" xmlns="http://www.w3.org/2000/svg">
<path d="M105.526 49.0597C103.913 54.5103 97.6991 58.4528 88.0575 59.9636C78.5303 61.4565 66.1656 60.4632 53.2567 56.5555C40.3479 52.6478 29.4766 46.6072 22.3267 40.0659C15.091 33.4461 12.0401 26.699 13.6529 21.2484C15.2657 15.7979 21.4795 11.8554 31.1211 10.3445C40.6483 8.85163 53.013 9.84494 65.9219 13.7526C78.8307 17.6604 89.702 23.7009 96.8519 30.2422C104.088 36.8621 107.139 43.6092 105.526 49.0597Z" stroke="#A7897E" stroke-width="2.92683"/>
<rect x="31.3955" y="6.34617" width="57.209" height="56.6172" rx="28.3086" fill="#A7897E"/>
<rect x="31.3955" y="6.34617" width="57.209" height="56.6172" rx="28.3086" stroke="#A7897E" stroke-width="2.79097"/>
<path d="M52.5327 45.1548V43.2569L60.4869 35.5817C61.194 34.9119 61.7149 34.3258 62.0499 33.8234C62.4034 33.3025 62.636 32.828 62.7476 32.4C62.8778 31.9535 62.943 31.5255 62.943 31.1162C62.943 30.1114 62.5894 29.3207 61.8824 28.7439C61.1754 28.1671 60.1427 27.8787 58.7844 27.8787C57.7425 27.8787 56.8028 28.0554 55.9655 28.409C55.1283 28.7439 54.4026 29.2742 53.7886 29.9998L51.8907 28.3531C52.635 27.4042 53.6304 26.6786 54.8771 26.1762C56.1423 25.6552 57.5285 25.3947 59.0356 25.3947C60.3939 25.3947 61.5754 25.618 62.5801 26.0645C63.5849 26.4925 64.3571 27.1158 64.8966 27.9345C65.4548 28.7532 65.7339 29.7207 65.7339 30.8371C65.7339 31.4697 65.6502 32.093 65.4828 32.7071C65.3153 33.3211 64.999 33.9723 64.5338 34.6607C64.0687 35.3492 63.3988 36.1213 62.5243 36.9772L55.4353 43.8151L54.7654 42.7266H66.5712V45.1548H52.5327Z" fill="#F2E9E1"/>
<path d="M114.237 37.563L108.411 44.948L112.423 53.4356L104.826 47.7292L96.134 51.6102L101.961 44.2251L97.9484 35.7375L105.545 41.4439L114.237 37.563Z" fill="#A7897E"/>
<path d="M22.2372 16.7701L16.4106 24.1551L20.4228 32.6427L12.8264 26.9363L4.134 30.8173L9.96058 23.4323L5.94841 14.9447L13.5448 20.6511L22.2372 16.7701Z" fill="#A7897E"/>
</svg>
