<svg width="120" height="71" viewBox="0 0 120 71" fill="none" xmlns="http://www.w3.org/2000/svg">
<path d="M106.717 22.3982C108.169 27.8922 104.894 34.4404 97.4154 40.6524C90.0255 46.7906 78.9101 52.2447 65.8122 55.4782C52.7143 58.7116 40.2536 59.0777 30.7222 57.1169C21.0762 55.1324 14.9517 50.9048 13.4991 45.4107C12.0464 39.9167 15.3217 33.3685 22.8005 27.1565C30.1904 21.0183 41.3059 15.5642 54.4037 12.3307C67.5016 9.09728 79.9623 8.73117 89.4937 10.692C99.1397 12.6765 105.264 16.9041 106.717 22.3982Z" stroke="#A7897E" stroke-width="2.92683"/>
<rect x="31.3955" y="6.34617" width="57.209" height="56.6172" rx="28.3086" fill="#F2E9E1"/>
<rect x="31.3955" y="6.34617" width="57.209" height="56.6172" rx="28.3086" stroke="#A7897E" stroke-width="2.79097"/>
<path d="M59.133 45.1548V26.7344L60.3331 28.0461H54.7233V25.618H61.8961V45.1548H59.133Z" fill="#A7897E"/>
<path d="M108.806 9.83535L107.654 19.1369L115.508 24.3661L106.028 23.3486L100.596 31.108L101.749 21.8065L93.8947 16.5772L103.374 17.5947L108.806 9.83535Z" fill="#A7897E"/>
<path d="M18.8065 38.5492L17.6536 47.8507L25.5077 53.08L16.028 52.0625L10.5959 59.8219L11.7488 50.5204L3.89473 45.2911L13.3744 46.3086L18.8065 38.5492Z" fill="#A7897E"/>
</svg>
