<svg width="519" height="437" viewBox="0 0 519 437" fill="none" xmlns="http://www.w3.org/2000/svg">
<path d="M468.411 137.69L467.891 141.101M468.411 137.69C468.411 137.69 471.861 127.377 470.92 120.296C470.19 114.803 466.312 107.448 465.069 105.199C464.856 104.814 464.975 104.329 465.344 104.09L484.242 91.8334C484.825 91.4553 484.715 90.5628 484.058 90.3356C481.227 89.356 474.991 87.1028 467.446 83.7835C453.589 77.6871 434.787 68.7089 419.488 64.2802C401.3 59.0156 387.694 62.7443 372.675 60.8284C353.374 58.3662 340.624 47.7302 318.668 46.581C260.783 43.5513 219.908 68.6812 177.317 108.812C140.062 143.915 119.085 184.761 117.873 231.617C117.608 241.866 89.8727 243.335 77.2712 257.764C58.4059 279.366 55.752 300.796 57.7936 332.78C59.5132 359.722 79.2359 398.979 79.8816 400.258C79.902 400.298 79.8958 400.287 79.9228 400.324C80.7715 401.47 103.086 431.402 121.319 434.995C134.036 437.502 80.2737 361.574 90.0553 318.319C98.9813 278.848 135.262 283.668 135.262 283.668M468.411 137.69C468.411 137.69 475.573 139.023 479.948 141.143C482.577 142.417 486.014 144.854 487.921 146.265C488.488 146.684 488.297 147.609 487.623 147.819C486.058 148.305 483.482 149.233 480.098 150.894C480.03 150.928 479.966 150.971 479.909 151.022C471.347 158.73 454.845 165.318 445.51 167.819C427.726 172.585 418.777 180.436 400.748 182.722M400.748 182.722C400.109 180.338 399.112 176.617 399.112 176.617M400.748 182.722C405.591 195.105 407.182 203.08 407.422 216.195C407.66 229.115 402.121 247.788 402.121 247.788M402.121 247.788C402.121 247.788 407.957 265.696 402.95 272.286C400.022 276.139 398.593 277.342 392.524 277.261C387.919 277.199 378.73 260.034 369.799 249.179C362.8 240.672 355.954 233.9 348.821 231.898C334.245 227.806 319.998 255.979 302.231 276.372C297.893 281.351 290.176 284.623 284.651 286.453C283.728 286.759 283.903 288.737 284.87 288.854C293.282 289.871 307.715 292.595 316.807 299.73C328.521 308.924 345.944 323.914 340.537 332.633C338.546 335.843 333.817 336.526 330.425 336.569C329.538 336.58 329.037 338 329.757 338.518C335.037 342.317 345.32 350.485 347.262 357.732C349.569 366.341 344.984 375.331 336.892 374.688C331.282 374.243 326.001 367.119 320.503 364.902C299.924 356.602 253.869 362.399 245.811 358.014C239.098 354.362 240.236 339.64 233.563 335.85C227.474 332.392 202.475 337.458 181.903 327.153C161.088 316.726 135.262 283.668 135.262 283.668M402.121 247.788L387.025 227.841M135.262 283.668L140.159 280.538M387.025 227.841C387.025 227.841 380.391 203.081 375.827 201.032C370.845 198.796 365.731 201.223 365.497 207.435C365.179 215.882 387.025 227.841 387.025 227.841Z" stroke="#A7897E" stroke-width="3.29961" stroke-linecap="round" stroke-linejoin="round"/>
<path d="M439.907 113.702C440.144 114.584 440.091 115.419 439.855 116.045C439.619 116.673 439.23 117.028 438.814 117.139C438.398 117.251 437.884 117.138 437.365 116.713C436.848 116.288 436.385 115.591 436.149 114.709C435.912 113.826 435.965 112.991 436.201 112.365C436.437 111.737 436.825 111.383 437.242 111.271C437.658 111.16 438.172 111.273 438.69 111.698C439.208 112.122 439.671 112.819 439.907 113.702Z" fill="#A7897E" stroke="#A7897E" stroke-width="1.64981" stroke-linecap="round" stroke-linejoin="round"/>
<path d="M437.565 117.17C437.565 117.17 437.565 117.169 437.565 117.166C437.565 117.169 437.565 117.17 437.565 117.17Z" fill="#EDE7E5" stroke="white" stroke-width="1.64981" stroke-linecap="round" stroke-linejoin="round"/>
<path d="M446.016 140.783C446.282 141.774 446.247 142.705 446.017 143.398C445.785 144.099 445.398 144.457 445.014 144.56C444.629 144.663 444.115 144.546 443.564 144.056C443.019 143.57 442.523 142.781 442.257 141.79C441.992 140.799 442.027 139.868 442.256 139.175C442.488 138.474 442.875 138.116 443.26 138.013C443.644 137.91 444.158 138.027 444.709 138.518C445.255 139.003 445.751 139.792 446.016 140.783Z" fill="#A7897E" stroke="#A7897E" stroke-width="1.64981" stroke-linecap="round" stroke-linejoin="round"/>
<path d="M443.784 144.098C443.784 144.098 443.784 144.096 443.784 144.093C443.784 144.097 443.784 144.098 443.784 144.098ZM444.265 143.647C444.268 143.648 444.27 143.649 444.27 143.649C444.27 143.649 444.268 143.648 444.265 143.647Z" fill="#A7897E" stroke="white" stroke-width="1.64981" stroke-linecap="round" stroke-linejoin="round"/>
<path d="M433.021 130.815C433.236 131.62 433.096 132.458 432.741 133.141C432.377 133.841 431.846 134.275 431.392 134.396C430.976 134.508 430.462 134.395 429.944 133.969C429.426 133.545 428.963 132.848 428.727 131.966C428.49 131.083 428.543 130.248 428.779 129.622C429.015 128.994 429.403 128.64 429.82 128.528C430.274 128.406 430.95 128.517 431.615 128.941C432.265 129.355 432.805 130.01 433.021 130.815Z" fill="#A7897E" stroke="#A7897E" stroke-width="1.64981" stroke-linecap="round" stroke-linejoin="round"/>
<path d="M429.931 134.344C429.931 134.343 429.928 134.338 429.925 134.327C429.93 134.339 429.932 134.344 429.931 134.344Z" fill="#A7897E" stroke="#A7897E" stroke-width="1.64981" stroke-linecap="round" stroke-linejoin="round"/>
</svg>
